<?xml version="1.0" encoding="utf-8"?>
<!-- Generator: Adobe Illustrator 26.3.1, SVG Export Plug-In . SVG Version: 6.00 Build 0)  -->
<svg version="1.1" id="圖層_1" xmlns="http://www.w3.org/2000/svg" xmlns:xlink="http://www.w3.org/1999/xlink" x="0px" y="0px"
	 viewBox="0 0 515 427.3" style="enable-background:new 0 0 515 427.3;" xml:space="preserve">
<style type="text/css">
	.st0{fill:none;stroke:#050505;stroke-miterlimit:10;}
	.st1{fill:#232323;}
	.st2{fill:#878786;}
	.st3{fill:none;stroke:#232323;stroke-miterlimit:10;}
	.st4{fill:#FCF6B1;}
	.st5{fill:#333333;}
	.st6{fill:none;}
</style>
<g>
	<path class="st0" d="M660.2,112.7"/>
</g>
<path class="st1" d="M410.4,183.1c0,10.4,0,25.8,0,30.4c2.9,0,16.3,0,29.3,0c0-7,0-40.3,0-46.7c-12.6,3.4-25.4,6.8-29.3,7.8
	C410.4,176.2,410.4,179.3,410.4,183.1z"/>
<path class="st1" d="M435.8,328.3c-4.5,15.6-12.6,29.7-23.3,41.3c-2.9-2.9-7.2-7.2-7.2-7.2s-12.7-12.7-17.8-17.8
	c10-10.8,17.3-24.2,20.8-39.2c4.4,2.6,19.1,11,29,16.8C436.9,324.3,436.2,326.3,435.8,328.3z"/>
<path class="st1" d="M95.7,363.4c0.8,1,1.6,2,2.4,3c7.7-7.7,20.1-20.1,25-25c-8.7-10.5-15-23.1-18-37c-4.3,2.5-18.1,10.4-29,16.8
	C79.3,336.9,86.2,351.3,95.7,363.4z"/>
<path class="st2" d="M215,62.9"/>
<path class="st2" d="M403.1,221.1c0,9.1,0,26.7,0,31.7c-5.5-1.5-23.8-6.4-29.3-7.8c0-5,0-23.7,0-28.5c4.4,0,24.5,0,29.3,0
	C403.1,217.4,403.1,219,403.1,221.1z"/>
<path class="st2" d="M378,183.2c-1.8,0.5-3.3,0.9-4.2,1.1c0,5.1,0,24.8,0,29.1c4.4,0,24.5,0,29.3,0c0-5.1,0-32.2,0-36.9
	C398.6,177.7,385.5,181.2,378,183.2z"/>
<path class="st2" d="M359.9,109.9c6.4-6.4,17.3-17.3,21.4-21.4c10.5,11.1,17.9,25.2,20.7,40.9c-5.9,3.4-24.4,14.1-29,16.8
	c-2.2-12.5-8.1-23.8-16.6-32.7C357.2,112.6,358.4,111.4,359.9,109.9z"/>
<path class="st2" d="M110.4,249.2c0,1.5,0,2.6,0,3.3c5.7-1.5,23.5-6.3,29.3-7.8c0-3,0-22.7,0-28.2c-5.1,0-24,0-29.3,0
	C110.4,221,110.4,240.6,110.4,249.2z"/>
<path class="st2" d="M135.1,85.7c-1.1,1.1-2.2,2.2-3.2,3.3c10.7,10.7,21.5,21.5,25,25c7.5-8.1,17-14.3,27.8-17.8
	c-3.1-5.4-14.7-25.5-17.1-29.6C155.1,70.3,144.1,77,135.1,85.7z"/>
<g>
	<path class="st2" d="M110.4,143.5c0,0,0,26.4,0,30.8c4.9,1.3,24.2,6.5,29.3,7.8c0-5.1,0-24.7,0-24.7"/>
	<path class="st2" d="M110.4,143.5c0-3.3,0.2-6.5,0.6-9.7c5.9,3.4,24.6,14.2,29.1,16.8c-0.2,2.3-0.4,4.6-0.4,6.9"/>
</g>
<path class="st2" d="M126.8,332c0.8,1.1,1.7,2.2,2.5,3.2c4.2-4.2,19.5-19.5,25-25c-6.2-7.6-10.7-16.7-12.9-26.7
	c-5,2.9-23.5,13.6-29,16.8C114.9,312,119.9,322.8,126.8,332z"/>
<g>
	<path class="st1" d="M439.8,125.7c0-4.7-0.3-9.3-1-13.9c-9.3,5.4-24.1,13.9-29,16.8c0.5,3.6,0.7,7.4,0.7,11.2"/>
	<path class="st1" d="M410.4,139.8c0,0,0,27.6,0,32.4c4.4-1.2,17.6-4.7,29.3-7.8c0-4.7,0-38.6,0-38.6"/>
</g>
<path class="st1" d="M103.1,199.5c0,6.3,0,11.9,0,14c-3.9,0-16.7,0-29.3,0c0-5.7,0-38.9,0-45.3c13,3.5,25.6,6.9,29.3,7.8
	C103.1,179.5,103.1,190.3,103.1,199.5z"/>
<path class="st1" d="M123.6,80.8c0.7,0.7,1.3,1.3,1.9,1.9c10.1-10.9,23-19.2,37.7-23.7c-2.9-5-12.1-21-17.1-29.6
	c-17.8,5.3-33.5,15.3-45.6,28.5C100.5,57.9,113.8,71,123.6,80.8z"/>
<g>
	<path class="st1" d="M73.8,126c0,0,0,32.7,0,38.5c11.6,3.1,24.6,6.6,29.3,7.8c0-5.7,0-32.4,0-32.4"/>
	<path class="st1" d="M103.1,140c0-3.5,0.2-7,0.6-10.4c-4.5-2.6-18.4-10.6-29-16.8c-0.6,4.3-0.9,8.7-0.9,13.1"/>
</g>
<path class="st2" d="M399.4,306.9c-3.7,11.9-10,22.6-18.2,31.5c-4.6-4.6-20.1-20.1-24.9-24.9c7.5-8,12.9-17.9,15.6-29
	c7.9,4.6,23.3,13.5,29,16.8C400.5,303.2,400,305,399.4,306.9z"/>
<g>
	<path class="st2" d="M110.4,282.6c0,4.9,0.4,9.7,1.2,14.4c5-2.9,23.9-13.8,29-16.7c-0.6-3.7-1-7.5-1-11.4"/>
	<path class="st2" d="M139.8,269c0,0,0-17.2,0-21.9c-6,1.6-24.1,6.5-29.3,7.8c0,4.5,0,27.9,0,27.9"/>
</g>
<path class="st3" d="M188.3,213.5"/>
<path class="st2" d="M136.3,213.5c1.5,0,2.7,0,3.4,0c0-3.7,0-23.5,0-27.7c-5.9-1.6-24.8-6.6-29.3-7.8c0,5.5,0,30.6,0,35.5
	C114.9,213.5,129,213.5,136.3,213.5z"/>
<g>
	<path class="st2" d="M403.1,143.3c0-3.6-0.2-7-0.7-10.5c-5.3,3.1-24.4,14.1-29.1,16.8c0.3,2.5,0.5,5.1,0.5,7.8"/>
	<path class="st2" d="M403.1,143.3c0,0,0,25.7,0,30.8c-5.6,1.5-23.7,6.3-29.3,7.8c0-4.2,0-24.6,0-24.6"/>
</g>
<path class="st1" d="M391.6,78.1c5.5-5.5,13.6-13.6,13.6-13.6s3.1-3.1,7.2-7.2c13.2,13.9,22.3,31.6,25.8,51.1
	c-3.3,1.9-23.2,13.4-29.1,16.8c-2.9-16.4-10.6-31.2-21.7-42.9C388.4,81.4,389.9,79.9,391.6,78.1z"/>
<path class="st3" d="M172.8,261.7"/>
<g>
	<path class="st1" d="M73.8,300.1c0,0,0-29.2,0-35.4c12.2-3.3,24.2-6.5,29.3-7.8c0,5.2,0,29.4,0,29.4"/>
	<path class="st1" d="M73.8,299.8c0,6.2,0.5,12.2,1.6,18c5.4-3.1,23.3-13.5,29-16.8c-0.9-4.9-1.3-9.9-1.3-15.1"/>
</g>
<path class="st3" d="M187.6,282.1"/>
<path class="st2" d="M219.8,336.8c0.3-1.1,0.6-2.1,0.8-2.8c-4.8,0-8.7,0-11.4,0c-7.4,0.6-14.6-0.1-21.4-1.9
	c-3.2,5.6-14.4,24.9-17.1,29.7c8.4,2.2,17.4,3.1,26.6,2.3c3.5,0,8.8,0,15.2,0C213.8,359.7,217.8,344.4,219.8,336.8z"/>
<path class="st1" d="M209.3,376.1c-1.6,6.1-4.3,15.9-6.9,25.6c-8.5,0-15.5,0-20,0c-11.5,0.9-22.7-0.1-33.2-2.9
	c0.8-1.5,1.7-2.9,1.7-2.9s12.5-21.6,15.4-26.7c8.8,2.3,18.2,3.2,27.9,2.4c3.7,0,9.3,0,16.2,0C210.2,372.6,209.8,374.2,209.3,376.1z"
	/>
<g>
	<path class="st1" d="M324.6,55.3c6.3,0,12.4,0.7,18.4,1.9c0,0,12-20.9,17.1-29.6c-7.3-1.6-14.8-2.4-22.5-2.4"/>
	<path class="st1" d="M324.6,55.3c0,0-22.2,0-26,0c1.3-4.9,5.1-19,8.1-30.1c5,0,30.8,0,30.8,0"/>
</g>
<g>
	<path class="st2" d="M308.5,93c4.5,0,8.9,0.4,13.1,1.3c3.2-5.6,13.8-23.8,17.1-29.6c-5.6-1.2-11.4-1.8-17.3-1.8"/>
	<path class="st2" d="M308.5,93c0,0-16,0-19.9,0c2.3-8.5,6.6-24.8,8.1-30.1c4.3,0,24.8,0,24.8,0"/>
</g>
<path class="st3" d="M225.4,328.8"/>
<path class="st2" d="M249.2,364.1c-12.1,0-23.7,0-33.3,0c1.3-4.8,6.5-24.4,8.1-30.1c8.6,0,19.2,0,30.1,0c0,5.8,0,24.1,0,30.1
	C252.4,364.1,250.8,364.1,249.2,364.1z"/>
<path class="st1" d="M249.1,401.7c-15.7,0-30.9,0-43.3,0c3-11.3,6.8-25.5,8.1-30.1c11.4,0,25.7,0,40.2,0c0,4.9,0,17.3,0,30.1
	C252.4,401.7,250.8,401.7,249.1,401.7z"/>
<path class="st3" d="M256.3,329.2"/>
<path class="st3" d="M256.3,365.3"/>
<path class="st1" d="M209.8,25.2c11.5,0,39.1,0,44.3,0c0,9.2,0,19.6,0,30.1c-5.4,0-34.4,0-40.2,0c-1.3-4.7-5.1-18.9-8.1-30.1
	C206.8,25.2,208.1,25.2,209.8,25.2z"/>
<path class="st3" d="M287.4,329.2"/>
<g>
	<path class="st2" d="M322.8,364c5.4,0,10.6-0.5,15.7-1.6c-3.2-5.5-13.8-24-17.1-29.6c-3.8,0.7-7.7,1.1-11.8,1.1"/>
	<path class="st2" d="M309.5,334c0,0-8.6,0-21,0c1.4,5.4,6.7,25,8.1,30.1c15.3,0,26.1,0,26.1,0"/>
</g>
<path class="st3" d="M297,365.3"/>
<g>
	<path class="st1" d="M175,25.2c0,0,22.5,0,27.8,0c3.3,12.4,7,26,8.1,30.1c-4.6,0-22.8,0-22.8,0"/>
	<path class="st1" d="M188.6,55.3c-7.6,0-15,1-22,2.8C163.5,52.7,151,31,151,31s-0.6-1.1-1.5-2.5c8.3-2.2,17-3.3,26.1-3.3"/>
</g>
<path class="st3" d="M192.6,103.2"/>
<path class="st2" d="M357.2,319.5c-1.5-1.5-2.7-2.7-3.4-3.4c-8,7.7-17.9,13.3-28.9,16c3.4,5.8,14,24.2,17.1,29.6
	c14.1-3.5,26.7-10.8,36.8-20.7C374.5,336.9,363.4,325.8,357.2,319.5z"/>
<path class="st1" d="M390,352.4c6.5,6.5,16.1,16.1,19.8,19.8c-12.7,12.7-28.7,22.1-46.6,26.5c-0.9-1.6-1.7-2.9-1.7-2.9
	s-12.1-20.9-15.4-26.8c14.9-3.7,28.2-11.3,38.8-21.8C386,348.4,387.9,350.2,390,352.4z"/>
<path class="st2" d="M137.8,145c1.2,0.7,2.1,1.2,2.9,1.7c1.9-11.2,6.7-21.5,13.7-30c-3.7-3.7-20-20-25-25
	c-9,10.7-15.3,23.8-17.8,38.2C116.7,132.9,130.6,140.9,137.8,145z"/>
<path class="st3" d="M187.8,173.9"/>
<path class="st3" d="M334.1,258.4"/>
<g>
	<path class="st2" d="M403.1,282.6c0,0,0-21.6,0-26.2c-6.1-1.6-21.8-5.8-29.3-7.8c0,3.7,0,20.2,0,20.2"/>
	<path class="st2" d="M403.1,282.3c0,5.2-0.5,10.2-1.4,15.1c-5.8-3.4-21.5-12.4-29-16.7c0.7-3.9,1.1-8,1.1-12.1"/>
</g>
<g>
	<path class="st1" d="M439.8,299.8c0,0,0-27.8,0-33.6c-12.4-3.3-25.1-6.7-29.3-7.8c0,5,0,27.7,0,27.7"/>
	<path class="st1" d="M410.4,285.8c0,5.4-0.5,10.7-1.4,15.9c4.8,2.8,25,14.4,29,16.7c1.1-6.1,1.7-12.4,1.7-18.9"/>
</g>
<path class="st1" d="M439.8,220.9c0-2,0-3.6,0-4.5c-13.6,0-26.4,0-29.3,0c0,5.9,0,32.5,0,38.3c3.9,1.1,17.4,4.7,29.3,7.8
	C439.8,257.3,439.8,232,439.8,220.9z"/>
<path class="st1" d="M103.1,238.3c0,7.3,0,14.1,0,16.2c-4.5,1.2-17.6,4.7-29.3,7.8c0-5.4,0-39.8,0-45.9c12.8,0,24.7,0,29.3,0
	C103.1,219.5,103.1,229.3,103.1,238.3z"/>
<path class="st3" d="M409.2,174.9"/>
<path class="st4" d="M195,232.3"/>
<path class="st3" d="M342.6,165.4"/>
<path class="st3" d="M202.1,248.5"/>
<path class="st1" d="M349.2,52.5c-1.8,3.2-3.1,5.5-3.1,5.5c14.9,3.8,28.2,11.4,38.8,21.7c4.2-4.2,21.5-21.5,21.5-21.5
	s1.8-1.8,3.5-3.5c-12.7-12.5-28.8-21.8-46.7-26.3c-0.9,1.5-1.6,2.7-1.6,2.7S353.8,44.6,349.2,52.5z"/>
<path class="st2" d="M326.6,91.7c-0.8,1.3-1.4,2.5-1.9,3.3c11.1,2.8,21,8.3,29,15.9c3.9-3.9,20.1-20.1,25-25
	C368.6,76.2,356,69,341.9,65.4C338.8,70.7,330.9,84.5,326.6,91.7z"/>
<path class="st3" d="M332.8,137.8"/>
<path class="st3" d="M203.8,260.7"/>
<path class="st3" d="M319,98.9"/>
<path class="st3" d="M217.3,275"/>
<path class="st2" d="M162.3,359c1.8,0.7,3.6,1.3,5.4,1.9c2.6-4.5,13.6-23.5,17.1-29.7c-10.9-3.5-20.6-9.8-28.2-18.1
	c-5,5-20.6,20.6-25,25C140.1,347.2,150.5,354.5,162.3,359z"/>
<path class="st1" d="M141.2,396.3c-15.7-5.6-29.6-15-40.6-27.1c2.9-2.9,6.8-6.8,6.8-6.8s13.9-13.9,18.2-18.2
	c10.1,11.2,23.2,19.6,37.9,24c-3,5.3-11.3,19.5-17.1,29.7C144.6,397.5,142.9,396.9,141.2,396.3z"/>
<path class="st1" d="M265.5,55.3c9.9,0,24.8,0,29.8,0c1.8-6.7,5.1-19,8.1-30.1c-6.2,0-39.8,0-46.1,0c0,9,0,19.7,0,30.1
	C258.8,55.3,261.8,55.3,265.5,55.3z"/>
<path class="st2" d="M257.3,89.8c0-6.9,0-16.6,0-26.9c5.5,0,31.7,0,36,0c-1,3.9-4.6,17.3-8.1,30.1c-4.4,0-23.3,0-27.9,0
	C257.3,92,257.3,90.9,257.3,89.8z"/>
<path class="st3" d="M278,119.8"/>
<path class="st4" d="M234.3,279.9"/>
<path class="st2" d="M219.2,62.9c9.2,0,30.3,0,34.8,0c0,10.5,0,20.9,0,30.1c-5.8,0-25.8,0-30.1,0c-1.4-5.1-6.5-24.4-8.1-30.1
	C216.8,62.9,217.8,62.9,219.2,62.9z"/>
<path class="st3" d="M254.1,329.2"/>
<path class="st3" d="M254.1,366"/>
<g>
	<path class="st2" d="M204.8,93c-5.8,0-11.5,0.8-16.8,2.2c-2.9-5.1-13.8-24-17.1-29.6c6.7-1.7,13.7-2.7,20.9-2.7"/>
	<path class="st2" d="M204.4,93c0,0,12.6,0,16.6,0c-1.5-5.5-6.3-23.3-8.1-30.1c-2.9,0-21.6,0-21.6,0"/>
</g>
<path class="st3" d="M284.4,329.2"/>
<path class="st2" d="M256.3,337.4c0,7.9,0,22.4,0,26.7c13.1,0,26.2,0,37.4,0c-1.3-5-6.4-23.7-8.1-30.1c-8.8,0-19.1,0-29.3,0
	C256.3,334.8,256.3,336,256.3,337.4z"/>
<path class="st3" d="M293.9,365.3"/>
<path class="st1" d="M267.6,371.6c9.9,0,19.6,0,28.1,0c1.3,4.7,4.7,17.6,8.1,30.1c-14,0-30.8,0-47.4,0c0-12.2,0-25.6,0-30.1
	C260,371.6,263.9,371.6,267.6,371.6z"/>
<path class="st3" d="M318.8,328.4"/>
<path class="st3" d="M339.4,364"/>
<g>
	<path class="st1" d="M326,371.6c0,0-11.3,0-27.4,0c1.5,5.5,5.1,19.2,8.1,30.1c19.1,0,32.5,0,32.5,0"/>
	<path class="st1" d="M326,371.6c5.7,0,11.3-0.6,16.7-1.7c2.5,4.4,11.3,19.5,17.1,29.6c-6.6,1.4-13.5,2.1-20.6,2.1"/>
</g>
<path class="st1" d="M101.4,124c1.2,0.7,2.2,1.3,2.9,1.7c2.6-15.1,9.2-28.9,18.8-40.2c-3.9-3.9-20.1-20.1-25-25
	C86.5,74,78.4,90.7,75.2,108.9C79.9,111.6,94.3,119.9,101.4,124z"/>
<path class="st3" d="M349.9,312.3"/>
<path class="st3" d="M141,151.2"/>
<path class="st3" d="M320.8,254.9"/>
<path class="st3" d="M327.4,236.1"/>
<path class="st4" d="M239.5,275.9c0-2.8,0-5.1,0-6.3c-14.8,1.7-26.4,11.8-28.1,24.5c6.7,0,24.3,0,28.1,0
	C239.5,291.6,239.5,282.5,239.5,275.9z"/>
<path class="st4" d="M211.8,295.9c-0.2,0-0.4,0-0.5,0c0,0.5,0,0.9,0,1.4v23.8c0,0,23.9,0,28.3,0c0-5.6,0-22.4,0-25.1
	C235.8,295.9,218.6,295.9,211.8,295.9z"/>
<path class="st4" d="M241.8,295.9c-0.1,0-0.1,0-0.2,0c0,3.5,0,20.9,0,25.1c3.8,0,24.5,0,28.3,0c0-4.3,0-21.8,0-25.1
	C265.9,295.9,246.6,295.9,241.8,295.9z"/>
<path class="st4" d="M269.9,269.7c0,5.3,0,21,0,24.4c-3,0-24.6,0-28.3,0c0-2.8,0-19.1,0-24.4C241.5,269.7,269.9,269.7,269.9,269.7
	L269.9,269.7z"/>
<path class="st4" d="M271.9,320.2c0,0.3,0,0.6,0,0.9c4,0,28.3,0,28.3,0v-23.8c0-0.5,0-0.9,0-1.4c-6.6,0-25,0-28.3,0
	C271.9,298.6,271.9,314.7,271.9,320.2z"/>
<path class="st4" d="M271.9,276.8c0-3,0-5.6,0-7.2c14.8,1.7,26.4,11.8,28.1,24.5c-6.6,0-23.9,0-28.1,0
	C271.9,291.8,271.9,283.4,271.9,276.8z"/>
<path class="st3" d="M315.5,251.7"/>
<path class="st4" d="M320.4,234.6"/>
<path class="st4" d="M316.4,229.4c-2.8,0-5.1,0-6.3,0c1.7,14.8,11.8,26.4,24.5,28.1c0-6.7,0-24.3,0-28.1
	C332.2,229.4,323,229.4,316.4,229.4z"/>
<path class="st4" d="M336.4,257.2c0,0.2,0,0.4,0,0.5c0.5,0,0.9,0,1.4,0h23.8c0,0,0-23.9,0-28.3c-5.6,0-22.4,0-25.1,0
	C336.4,233.2,336.4,250.3,336.4,257.2z"/>
<path class="st4" d="M336.4,227.3c0,0.1,0,0.1,0,0.2c3.5,0,20.9,0,25.1,0c0-3.8,0-24.5,0-28.3c-4.3,0-21.8,0-25.1,0
	C336.4,203.1,336.4,222.3,336.4,227.3z"/>
<path class="st4" d="M310.4,199.1c5.3,0,21,0,24.4,0c0,3,0,24.6,0,28.3c-2.8,0-19.1,0-24.4,0C310.2,227.4,310.2,199.1,310.4,199.1
	C310.2,199.1,310.2,199.1,310.4,199.1z"/>
<path class="st4" d="M360.8,197.1c0.3,0,0.6,0,0.9,0c0-4,0-28.3,0-28.3h-23.8c-0.5,0-0.9,0-1.4,0c0,6.6,0,25,0,28.3
	C339.1,197.1,355.2,197.1,360.8,197.1z"/>
<path class="st4" d="M317.4,197.1c-3,0-5.6,0-7.2,0c1.7-14.8,11.8-26.4,24.5-28.1c0,6.6,0,23.9,0,28.1
	C332.4,197.1,323.9,197.1,317.4,197.1z"/>
<path class="st3" d="M294.4,153.1"/>
<path class="st4" d="M277.4,148.2"/>
<path class="st4" d="M271.9,152.2c0,2.8,0,5.1,0,6.3c14.8-1.7,26.4-11.8,28.1-24.5c-6.7,0-24.3,0-28.1,0
	C271.9,136.5,271.9,145.7,271.9,152.2z"/>
<path class="st4" d="M299.9,132.2c0.2,0,0.4,0,0.5,0c0-0.5,0-0.9,0-1.4V107c0,0-23.9,0-28.3,0c0,5.6,0,22.4,0,25.1
	C275.9,132.2,293,132.2,299.9,132.2z"/>
<path class="st4" d="M270.6,132.2c0.1,0,0.1,0,0.2,0c0-3.5,0-20.9,0-25.1c-3.8,0-24.5,0-28.3,0c0,4.3,0,21.8,0,25.1
	C246.5,132.2,265.8,132.2,270.6,132.2z"/>
<path class="st4" d="M241.8,158.4c0-5.3,0-21,0-24.4c3,0,24.6,0,28.3,0c0,2.8,0,19.1,0,24.4H241.8L241.8,158.4z"/>
<path class="st4" d="M239.8,108c0-0.3,0-0.6,0-0.9c-4,0-28.3,0-28.3,0v23.7c0,0.5,0,0.9,0,1.4c6.6,0,25,0,28.3,0
	C239.8,129.5,239.8,113.5,239.8,108z"/>
<path class="st4" d="M239.8,151.3c0,3,0,5.6,0,7.2c-14.8-1.7-26.4-11.8-28.1-24.5c6.6,0,23.9,0,28.1,0
	C239.8,136.4,239.8,144.7,239.8,151.3z"/>
<path class="st3" d="M198.4,174.3"/>
<path class="st4" d="M193.5,191.4"/>
<path class="st4" d="M197.5,196.6c2.8,0,5.1,0,6.3,0c-1.7-14.8-11.8-26.4-24.5-28.1c0,6.7,0,24.3,0,28.1
	C181.8,196.6,190.9,196.6,197.5,196.6z"/>
<path class="st4" d="M177.5,169.5c0-0.2,0-0.4,0-0.5c-0.5,0-0.9,0-1.4,0h-23.8c0,0,0,23.9,0,28.3c5.6,0,22.4,0,25.1,0
	C177.5,193.5,177.5,176.4,177.5,169.5z"/>
<path class="st4" d="M177.5,198.8c0-0.1,0-0.1,0-0.2c-3.5,0-20.9,0-25.1,0c0,3.8,0,24.5,0,28.3c4.3,0,21.8,0,25.1,0
	C177.5,222.9,177.5,203.7,177.5,198.8z"/>
<path class="st4" d="M203.8,226.9c-5.3,0-21,0-24.4,0c0-3,0-24.6,0-28.3c2.8,0,19.1,0,24.4,0C203.8,198.6,203.8,226.9,203.8,226.9
	L203.8,226.9z"/>
<path class="st4" d="M153.2,228.9c-0.3,0-0.6,0-0.9,0c0,4,0,28.3,0,28.3h23.8c0.5,0,0.9,0,1.4,0c0-6.6,0-25,0-28.3
	C174.8,228.9,158.8,228.9,153.2,228.9z"/>
<path class="st4" d="M196.6,228.9c3,0,5.6,0,7.2,0c-1.7,14.8-11.8,26.4-24.5,28.1c0-6.6,0-23.9,0-28.1
	C181.6,228.9,190,228.9,196.6,228.9z"/>
<path class="st3" d="M368,148.2"/>
<g>
	<path class="st5" d="M209.9,191.2c0-1.8,0.2-3.5,0.5-5.2"/>
	<g>
		<g>
			<path class="st5" d="M145.6,251.7"/>
			<path class="st5" d="M277.9,261.7c0,0-32.7,0-40.1,0c-4.4,0.4-8.7-0.4-12.4-2.1c0,0-32.3,57.1-37.1,65.6
				c-20.3-6.5-36.1-23.6-41-44.9c10.8-5.9,64.5-35.2,64.5-35.2c-0.7-1.8-1.2-3.7-1.5-5.6"/>
		</g>
		<line class="st6" x1="235.8" y1="165.4" x2="277.5" y2="165.4"/>
		<line class="st6" x1="303.6" y1="191.1" x2="303.6" y2="235.7"/>
		<path class="st5" d="M303.6,235.6c0,3.3-0.6,6.5-1.7,9.4c0,0,54.1,30.5,64.2,36.2c-5.5,22-22.6,39.3-44.3,44.9
			c-5.7-11.4-33.2-66.6-33.2-66.7c-3.3,1.5-6.9,2.4-10.7,2.4"/>
		<line class="st6" x1="209.9" y1="227.4" x2="209.9" y2="235.7"/>
		<line class="st6" x1="209.9" y1="191.2" x2="209.9" y2="227.4"/>
		<path class="st5" d="M236,165.4c-3.8,0-7.3,0.8-10.6,2.2c0,0-31.1-54.5-37.4-65.5c-21.3,7-37.4,25.1-41.5,47.3
			c12.4,5.7,66.1,30.4,66,30.4c-1,1.9-1.7,4-2.1,6.2"/>
		<path class="st5" d="M209.9,235.7c0,1.3,0.1,2.6,0.3,3.8"/>
		<path class="st5" d="M303.6,191.1c0-5.3-1.6-10.2-4.4-14.3c0.5-0.2,0.7-0.3,0.7-0.3s58.2-24.2,67-27.9
			c-4.5-23.2-22.2-41.7-45.2-47.6c-5.6,11.3-33.1,66.7-33.1,66.8c-3.4-1.6-7.1-2.4-11.1-2.4"/>
	</g>
</g>
<g>
	<g>
		<path d="M231.1,218.5c0.2,1.8,0.8,3.4,2.5,3.4c1.6,0,2.2-1.2,2.2-2.8c0-1.8-0.7-2.8-3.1-4.2c-3.2-1.8-4.4-3.4-4.4-6.6
			c0-3.5,1.9-5.9,5.2-5.9c4.2,0,5.2,3.3,5.2,6.2h-3.2c-0.1-1.3-0.4-3.1-2.1-3.1c-1.3,0-1.9,1-1.9,2.5c0,1.6,0.6,2.3,2.8,3.5
			c3.3,1.8,4.8,3.6,4.8,7.2c0,3.4-1.8,6.3-5.7,6.3c-4.2,0-5.5-3.2-5.7-6.5H231.1z"/>
		<path d="M244,206.2h-3.9v-3.4h11.2v3.4h-3.9v18.5h-3.3v-18.5H244z"/>
		<path d="M255.8,219.1l-0.9,5.5h-3.3l4.3-21.9h4.3l4.3,21.9h-3.5l-0.9-5.5H255.8z M259.4,215.7c-0.7-4.2-1.2-7.2-1.5-9.3h-0.1
			c-0.2,2-0.8,5.3-1.5,9.3H259.4z"/>
		<path d="M277.1,224.7h-2.5c-0.1-0.7-0.1-1.2-0.2-1.9c-0.8,1.7-2.1,2.2-3.7,2.2c-3.9,0-5.3-4.1-5.3-11.2c0-8,2.3-11.4,6.2-11.4
			c5,0,5.3,5.1,5.3,6.4h-3.3c-0.1-0.9-0.2-3.1-2.2-3.1c-2.1,0-2.7,3.4-2.7,8.1c0,5.1,0.5,7.9,2.6,7.9c1.8,0,2.3-1.6,2.3-4.8v-1.2
			h-2.5v-3.3h5.8C277.1,212.4,277.1,224.7,277.1,224.7z"/>
		<path d="M289.1,214.9h-5.9v6.4h6.7l-0.4,3.4h-9.5v-21.9h9.5v3.4h-6.2v5.3h5.9v3.4H289.1z"/>
	</g>
</g>
</svg>
