<?xml version="1.0" encoding="utf-8"?>
<!-- Generator: Adobe Illustrator 26.3.1, SVG Export Plug-In . SVG Version: 6.00 Build 0)  -->
<svg version="1.1" id="Layer_1" xmlns="http://www.w3.org/2000/svg" xmlns:xlink="http://www.w3.org/1999/xlink" x="0px" y="0px"
	 viewBox="0 0 749.3 531.4" style="enable-background:new 0 0 749.3 531.4;" xml:space="preserve">
<style type="text/css">
	.st0{fill:none;stroke:#B5B5B6;stroke-miterlimit:10;}
	.st1{fill:none;stroke:#B5B5B6;stroke-width:2;stroke-miterlimit:10;}
	.st2{fill:#B5B5B6;}
	.st3{fill:#226735;}
	.st4{fill:#672F88;}
	.st5{fill:none;}
	.st6{fill:#FFD503;}
	.st7{fill:#FFFFFF;}
	.st8{font-family:'Algerian';}
	.st9{font-size:18px;}
</style>
<g id="Background">
</g>
<path class="st0" d="M650.5,95.4C609,55.1,554.2,32,500.2,32H265.7c-62.4,0-121.1,24.3-165.3,68.5C56.3,144.5,32,203.2,32,265.6
	s24.3,121.1,68.5,165.3s102.8,68.5,165.3,68.5h234.6c58,0,112.4-22.6,153.4-63.6s63.6-95.5,63.6-153.4v-33.5
	C717.2,191.8,693.6,137.3,650.5,95.4z"/>
<path class="st1" d="M345.8,88.6"/>
<path class="st1" d="M427.9,88.6"/>
<path class="st1" d="M501.7,88.6"/>
<path class="st1" d="M512.6,89.1"/>
<path class="st1" d="M543,95.2"/>
<path class="st1" d="M584.7,114.9"/>
<path class="st1" d="M620.6,146.1"/>
<path class="st1" d="M621,146.6"/>
<path class="st1" d="M621.5,147.1"/>
<path class="st1" d="M645.4,183.4"/>
<path class="st1" d="M646.1,184.8"/>
<path class="st1" d="M659,227.5"/>
<path class="st1" d="M660.6,263.9"/>
<path class="st1" d="M658.8,306.4"/>
<path class="st1" d="M647.1,346.8"/>
<path class="st1" d="M628.4,378.6"/>
<path class="st1" d="M599.7,408.1"/>
<path class="st1" d="M560.9,430.9"/>
<path class="st1" d="M402.9,442.8"/>
<path class="st1" d="M400.8,442.8"/>
<path class="st1" d="M348.2,442.8"/>
<path class="st1" d="M345.7,442.8"/>
<path class="st1" d="M344.4,442.8"/>
<path class="st1" d="M244.7,441.4"/>
<path class="st1" d="M200.2,430.1"/>
<path class="st1" d="M121.1,367.6"/>
<path class="st1" d="M98.4,323.5"/>
<path class="st1" d="M89.4,281.1"/>
<path class="st1" d="M90.6,239.6"/>
<path class="st1" d="M100.7,201.5"/>
<path class="st1" d="M124.3,159.3"/>
<path class="st1" d="M157,126"/>
<path class="st1" d="M196,102.9"/>
<path class="st1" d="M284.3,88.6"/>
<path class="st1" d="M293,88.6"/>
<path class="st1" d="M481.1,88.6"/>
<path class="st1" d="M475.7,88.6"/>
<path class="st1" d="M426.5,88.6"/>
<path class="st1" d="M421.7,88.6"/>
<path class="st1" d="M219.6,150.3"/>
<path class="st1" d="M370.6,97.1"/>
<path class="st1" d="M423,97.1"/>
<path class="st1" d="M475.7,97.1"/>
<path class="st1" d="M517.5,98.2"/>
<path class="st1" d="M423,145.3"/>
<path class="st2" d="M474.8,145.3C474.8,145.3,474.7,145.3,474.8,145.3"/>
<path class="st2" d="M474.9,145.3L474.9,145.3"/>
<path class="st2" d="M475.5,145.3c-0.1,0-0.3,0-0.5,0"/>
<path class="st2" d="M475.7,145.3c0,0-0.1,0-0.2,0"/>
<path class="st1" d="M475.7,145.3"/>
<path class="st1" d="M507.7,145.6"/>
<path class="st1" d="M420.7,32"/>
<path class="st1" d="M420.7,88.6"/>
<path class="st1" d="M713.1,267.9"/>
<path class="st1" d="M711.2,267.8"/>
<path class="st1" d="M711.2,267.8"/>
<path class="st1" d="M271.9,36"/>
<path class="st1" d="M215.6,41.5"/>
<path class="st1" d="M169,57.2"/>
<path class="st1" d="M130.1,80.3"/>
<path class="st1" d="M97.9,109"/>
<path class="st1" d="M70.3,145.1"/>
<path class="st1" d="M39.8,305"/>
<path class="st1" d="M52,348.9"/>
<path class="st1" d="M69.9,385"/>
<path class="st1" d="M97.2,421"/>
<path class="st1" d="M129.5,450"/>
<path class="st1" d="M168.5,473.4"/>
<path class="st1" d="M215.6,489.4"/>
<path class="st1" d="M268.2,494.9"/>
<path class="st1" d="M321.9,494.9"/>
<path class="st1" d="M422.4,494.9"/>
<path class="st1" d="M427.3,494.9"/>
<path class="st1" d="M475.4,494.9"/>
<path class="st1" d="M531,492.7"/>
<path class="st1" d="M578.7,480.1"/>
<path class="st1" d="M621.9,456.9"/>
<path class="st1" d="M623.7,455.5"/>
<path class="st1" d="M655.6,427.6"/>
<path class="st1" d="M684,389.8"/>
<path class="st1" d="M701.4,352"/>
<path class="st1" d="M711.4,309"/>
<path class="st1" d="M713.8,270.4"/>
<path class="st1" d="M711.5,266.2"/>
<path class="st1" d="M711.5,266.2"/>
<path class="st1" d="M659.6,300.2"/>
<path class="st1" d="M651.2,336.2"/>
<path class="st1" d="M636.4,366.9"/>
<path class="st1" d="M615.8,393.5"/>
<path class="st1" d="M584.5,418.8"/>
<path class="st1" d="M520.1,441.4"/>
<path class="st1" d="M479.9,442.8"/>
<path class="st1" d="M426.7,442.8"/>
<path class="st1" d="M326.6,442.8"/>
<path class="st1" d="M196.4,428.5"/>
<path class="st1" d="M168.9,413.8"/>
<path class="st1" d="M139.4,389.6"/>
<path class="st1" d="M120.6,366.9"/>
<path class="st1" d="M119.5,365.4"/>
<path class="st1" d="M119.5,365.4"/>
<path class="st1" d="M118.9,364.4"/>
<path class="st1" d="M118.2,363.4"/>
<path class="st1" d="M103.4,336.4"/>
<path class="st1" d="M92.8,303.8"/>
<path class="st1" d="M88.7,265.4"/>
<path class="st1" d="M88.7,268.4"/>
<path class="st1" d="M88.7,267"/>
<path class="st1" d="M91.7,232.9"/>
<path class="st1" d="M102.2,197.8"/>
<path class="st1" d="M117.1,169.5"/>
<path class="st1" d="M137.6,143.6"/>
<path class="st1" d="M166.2,119.3"/>
<path class="st1" d="M194.1,103.8"/>
<path class="st1" d="M226.6,92.9"/>
<path class="st1" d="M268.6,88.6"/>
<path class="st1" d="M271.1,88.6"/>
<path class="st1" d="M322.6,88.6"/>
<path class="st1" d="M660.6,270.4"/>
<path class="st1" d="M661.4,269"/>
<path class="st1" d="M662.5,269"/>
<path class="st1" d="M662.5,269"/>
<path class="st1" d="M711.2,269"/>
<path class="st1" d="M714.5,269"/>
<path class="st1" d="M373.2,495.9"/>
<path class="st1" d="M373.7,493.1"/>
<path class="st1" d="M374,151.6"/>
<path class="st1" d="M374,435.9"/>
<path class="st1" d="M374,36"/>
<path class="st1" d="M896,463.1"/>
<path class="st1" d="M384.7,495.9"/>
<path class="st1" d="M525.2,494.4"/>
<path class="st1" d="M542.2,491.6"/>
<path class="st1" d="M542.2,491.6"/>
<path class="st1" d="M580.2,479.1"/>
<path class="st1" d="M612.2,265.8"/>
<path class="st1" d="M363.2,495.9"/>
<path class="st1" d="M222.6,494.4"/>
<path class="st1" d="M205.8,491.6"/>
<path class="st1" d="M205.8,491.6"/>
<path class="st1" d="M167.7,479.1"/>
<path class="st1" d="M135.6,265.8"/>
<path class="st1" d="M363.2,36.5"/>
<path class="st1" d="M222.6,38"/>
<path class="st1" d="M205.8,41"/>
<path class="st1" d="M205.8,41"/>
<path class="st1" d="M167.7,53.3"/>
<path class="st1" d="M135.6,266.6"/>
<path class="st1" d="M35.1,266.8"/>
<path class="st1" d="M46.6,266.8"/>
<path class="st1" d="M58.2,266.8"/>
<path class="st1" d="M74.5,266.8"/>
<path class="st3" d="M289.9,442.8"/>
<path class="st4" d="M374,36h46.7v52.6H374"/>
<path class="st4" d="M474.7,88.6H428V36h46.7V88.6z"/>
<path class="st3" d="M525.2,36"/>
<path class="st3" d="M523.6,36"/>
<path class="st3" d="M521,36"/>
<path class="st3" d="M517.5,36"/>
<path class="st3" d="M713.1,270.4"/>
<path class="st3" d="M713.1,268.8"/>
<path class="st3" d="M713.1,267.8"/>
<path class="st3" d="M713.1,267.8"/>
<path class="st3" d="M713.1,265.4"/>
<path class="st3" d="M711.6,224.5"/>
<path class="st3" d="M684.5,144.9"/>
<path class="st3" d="M656.4,107.2"/>
<path class="st3" d="M623.2,77.6"/>
<path class="st3" d="M534.2,38.7"/>
<path class="st3" d="M519.7,89.9"/>
<path class="st3" d="M521.6,90.2"/>
<path class="st3" d="M522.2,90.3"/>
<path class="st3" d="M552.9,98.6"/>
<path class="st3" d="M555.9,99.8"/>
<path class="st4" d="M584.2,54.3L557,99.5c0,0-0.1,0.2-0.4,0.6c8.5,3.5,16.8,7.8,24.8,12.7c0.4-0.4,0.6-0.6,0.6-0.6l38.2-36.8l0,0
	C608.8,67.1,596.7,60,584.2,54.3"/>
<path class="st3" d="M582.7,113.6"/>
<path class="st3" d="M612.6,137.6"/>
<path class="st4" d="M620.8,136.2c-3,2.3-5,3.9-5.4,4.2c6.6,6.9,12.5,14.1,17.7,21.7c0.5-0.2,0.8-0.4,0.8-0.4s43.3-18.3,48.4-20.5
	c-7.2-11.7-15.6-22.9-25.2-33.3C653,111.1,631.2,128.1,620.8,136.2z"/>
<path class="st3" d="M633.8,163.1"/>
<path class="st3" d="M635.2,165.4"/>
<path class="st3" d="M635.5,165.8"/>
<path class="st4" d="M652.4,191.6c-1.4,0.4-2.4,0.7-2.9,0.8c-3.6-9-8.2-17.7-13.5-26c0.2-0.1,0.3-0.1,0.3-0.1s42.1-17.8,48.7-20.6
	c6.1,10.4,11.2,21.1,15.3,32.2c-0.1,0-0.1,0-0.1,0S663.6,188.4,652.4,191.6z"/>
<path class="st3" d="M650.1,194.2"/>
<path class="st3" d="M651,196.3"/>
<path class="st4" d="M651.2,197.2c3.5,9.5,6,18.9,7.5,28.8c2.2-0.2,47.6-5,52.3-5.5c-1.8-12.9-4.9-25.6-9.1-37.9"/>
<path class="st3" d="M659.1,228"/>
<path class="st3" d="M659.2,229"/>
<path class="st3" d="M659.4,230"/>
<path class="st3" d="M659.4,230.4"/>
<path class="st3" d="M660.6,265.4"/>
<path class="st3" d="M480.7,36"/>
<line class="st5" x1="427" y1="36" x2="475.7" y2="36"/>
<path class="st3" d="M426.4,36"/>
<path class="st3" d="M372.5,36"/>
<path class="st4" d="M488.9,36c-3.3,0-6,0-6.8,0v52.7c0,0,9.2,0,18.3,0c5.9,0,11.9,0.4,17.9,1.2l12-51.7c-8.8-1.3-17.6-2-26.5-2.1
	c0.6,0-0.6,0,0,0C508,36,496.8,36,488.9,36z"/>
<path class="st4" d="M579.5,52.2c-14.3-6.2-29.2-10.7-44.3-13.3l-12,51.6c9.6,1.6,19.2,4.2,28.6,7.7c0.4-0.6,0.6-1,0.6-1L579.5,52.2
	"/>
<path class="st3" d="M579.6,52.2C579.5,52.2,579.5,52.2,579.6,52.2"/>
<path class="st4" d="M625.9,79.4c-0.5-0.3-0.9-0.7-1.4-1c-2.5,2.4-38.6,37.2-38.6,37.2s0,0-0.1,0.1c8.9,5.9,17.3,12.7,25.1,20.3
	c0.3,0.3,0.5,0.5,0.8,0.8h0.1c0,0,39.2-30.6,41.7-32.5c-1.9-2-3.9-4-5.9-6C640.7,91.4,633.4,85.2,625.9,79.4z"/>
<path class="st4" d="M713.1,271.9c0,3.1,0,10.3,0,10.3c0,7.3-0.4,14.5-1.1,21.6c0,0-47-4.9-52.2-5.4c0.5-5.2,0.8-10.6,0.8-15.9
	c0,0,0-6.3,0-10.7h52.5"/>
<path class="st4" d="M115.6,369.5c-0.3,0.1-0.4,0.2-0.4,0.2c-0.5,0.2-0.8,0.4-0.8,0.4s-29.3,12.4-42.5,18
	C79,399.4,87.2,410,96.3,420c8.2-6.4,23.2-18.1,31.2-24.4c3-2.3,5-3.9,5.4-4.2c0,0,2.4-1.8,4.7-3.7c-0.1-0.1-0.2-0.2-0.2-0.2
	c-6-6.3-11.5-13-16.5-20.1C118.4,368.4,116.4,369.1,115.6,369.5z"/>
<path class="st4" d="M136.1,454.9c9.8,6.8,20.1,12.7,30.8,17.8c7.1-11.9,24.2-40.3,24.2-40.3s0.1-0.2,0.4-0.6c0,0,1.3-2.1,2.5-4.2
	c-0.4-0.2-0.9-0.4-0.9-0.4c-7.7-3.5-15.2-7.5-22.3-12.1c-2.3,2.2-4.1,3.9-4.1,3.9c-0.4,0.4-0.6,0.6-0.6,0.6s-23.7,22.8-33.8,32.6
	C133.7,453,134.9,453.9,136.1,454.9z"/>
<path class="st4" d="M543.2,490.6c12.4-2.5,24.5-6.1,36.1-10.8c-2.3-3.8-27.2-45.2-27.2-45.2s-0.1-0.2-0.3-0.4
	c-9.3,3.2-19,5.5-29,6.9c0,0.1,0,0.2,0,0.2s10.3,44.3,11.8,50.8C537.6,491.6,540.4,491.1,543.2,490.6z"/>
<path class="st4" d="M703.4,346c-0.3,1.1-0.7,2.1-1,3.2c0,0-43-12.3-50.6-14.5c3.2-9.3,5.6-19,7.1-29c4.9,0.5,52.2,5.4,52.2,5.4
	C709.5,323.1,706.9,334.8,703.4,346z"/>
<path class="st4" d="M687,384.4c5.4-9.8,9.9-19.9,13.7-30.3c-0.4-0.1-0.7-0.2-0.7-0.2c-0.1,0-0.1,0-0.1,0s-42.2-12.1-49.9-14.3
	c-3.5,9.2-7.9,18-13,26.3c7.2,3,48.5,20.5,48.5,20.5s0.1,0,0.3,0.1C686.2,385.9,686.6,385.1,687,384.4z"/>
<path class="st3" d="M475.4,442.8"/>
<path class="st4" d="M371,442.8c0,0.3,0,0.5,0,0.5s-0.2,44.5-0.2,51.7c-19.1,0-37.5,0-43.3,0c0-7.2,0-51.6,0-51.6h1"/>
<path class="st3" d="M326.6,442.8"/>
<path class="st4" d="M713.1,265.6c0-5.2,0-14.6,0-14.6c0-7-0.4-14-1.1-21c-0.1-0.6-0.1-1.3-0.2-1.9c-3.4,0.4-12.9,1.3-22.7,2.4
	c-14.2,1.5-29.4,3.1-29.4,3.1s-0.1,0-0.2,0c0.7,5.9,1.1,11.8,1.1,17.7c0,0,0,10,0,14.4"/>
<path class="st4" d="M38.9,231c-1.7,11.3-2.5,22.7-2.5,34.4c0,0,0,0.1,0,0.3c9.5,0,46.2,0,51.3,0c0,0,0.5,0,1,0l0,0
	c0-10.7,0.9-21.1,2.8-31.2c-1.6-0.2-2.7-0.3-2.7-0.3c-0.1,0-0.2,0-0.2,0s-36.7-3.8-49.3-5.1C39.1,229.6,39,230.4,38.9,231z"/>
<path class="st4" d="M115.1,168.2c-1.6-0.7-2.8-1.2-2.8-1.2c-0.2-0.1-0.3-0.1-0.3-0.1S81.5,154,68.4,148.4
	c-6,10.1-11.2,20.6-15.5,31.5c11.9,3.4,42.5,12.2,46,13.2c0,0,2.1,0.6,4.9,1.4c3.8-8.7,8.3-17,13.4-24.9c0,0,0.1-0.2,0.2-0.4
	C116.6,168.9,115.8,168.5,115.1,168.2z"/>
<path class="st4" d="M191,99.8c0.2,0.2,0.2,0.4,0.2,0.4s0.1,0.2,0.4,0.6c0,0,0.8,1.4,2,3.3c-8.1,3.6-15.9,7.9-23.4,12.7
	c-2-1.9-3.4-3.2-3.4-3.2c-0.4-0.4-0.6-0.6-0.6-0.6s-25.3-24.4-34.7-33.5c11-8,22.6-14.9,34.8-20.8C169.3,63.7,188.7,95.8,191,99.8z"
	/>
<path class="st4" d="M266.2,83c0,2.7,0,4.7,0,5.6c-0.3,0-0.5,0-0.5,0c-12.1,0-23.9,1.2-35.3,3.5c-0.2-1.1-0.4-1.8-0.4-1.8
	s-9.2-39.8-11.5-49.6c15.4-3.2,31.2-4.8,47.2-4.8c0,0,0.1,0,0.4,0c0,0.4,0,0.6,0,0.6S266.2,69.1,266.2,83z"/>
<path class="st4" d="M428.7,442.8h-1c0,0,0,45,0,52.2c4.5,0,40.4,0,46.7,0c0-7.2,0-52.2,0-52.2h-1.1"/>
<path class="st3" d="M524.9,495.9"/>
<path class="st3" d="M523.2,495.9"/>
<path class="st3" d="M520.7,495.9"/>
<path class="st3" d="M517.2,495.9"/>
<path class="st3" d="M712.8,261.4"/>
<path class="st3" d="M712.8,263.1"/>
<path class="st3" d="M712.8,264"/>
<path class="st3" d="M712.8,264"/>
<path class="st3" d="M712.8,266.4"/>
<path class="st3" d="M711.4,307.4"/>
<path class="st3" d="M701.4,349.9"/>
<path class="st3" d="M684.2,386.9"/>
<path class="st3" d="M656.1,424.6"/>
<path class="st3" d="M623,454.4"/>
<path class="st3" d="M582.9,477.9"/>
<path class="st3" d="M534,493.1"/>
<path class="st3" d="M519.4,441.9"/>
<path class="st3" d="M522,441.4"/>
<path class="st3" d="M552.6,433.2"/>
<path class="st3" d="M555.6,432"/>
<path class="st4" d="M560.8,439c-2.2-3.6-3.7-6.2-4-6.6c8.9-3.4,17.4-7.5,25.5-12.3c4.5,4.3,37.7,36.4,37.7,36.4l0,0
	c0,0,0.4,0.4,1,1c-11.6,8-24,14.9-36.9,20.4c0-0.1-0.1-0.1-0.1-0.1S568.4,451.8,560.8,439z"/>
<path class="st3" d="M582.9,477.9"/>
<path class="st3" d="M582.4,418.2"/>
<path class="st3" d="M612.2,394.2"/>
<path class="st4" d="M623,397.5c-0.9-0.7-1.7-1.3-2.5-1.9c-1.6-1.2-2.9-2.3-3.9-3c6.5-6.9,12.4-14.3,17.6-22.2
	c5.4,2.3,43,18.2,47.7,20.2c0,0,0.5,0.2,1.2,0.5c-7.2,12-15.6,23.3-25.1,33.9c-0.8-0.6-1.3-1-1.3-1C653,420.9,634,406.1,623,397.5z"
	/>
<path class="st3" d="M619.8,386.2"/>
<path class="st3" d="M633.5,368.6"/>
<path class="st3" d="M635,366.4"/>
<path class="st3" d="M635.2,366"/>
<path class="st3" d="M689.6,377"/>
<path class="st3" d="M689.6,377"/>
<path class="st3" d="M684.2,386.9"/>
<path class="st3" d="M649.9,337.6"/>
<path class="st3" d="M650.7,335.4"/>
<path class="st3" d="M701.4,349.9"/>
<path class="st3" d="M658.8,303.9"/>
<path class="st3" d="M659,302.9"/>
<path class="st3" d="M659.1,301.9"/>
<path class="st3" d="M659.2,301.4"/>
<path class="st3" d="M660.2,266.4"/>
<path class="st3" d="M480.4,495.9"/>
<path class="st3" d="M426.7,495.9"/>
<path class="st3" d="M428.7,495.9"/>
<path class="st3" d="M431.9,495.9"/>
<path class="st3" d="M471.5,495.9"/>
<path class="st3" d="M475.4,495.9"/>
<path class="st3" d="M426.1,495.9"/>
<path class="st3" d="M416.3,495.9"/>
<path class="st3" d="M417.1,495.9"/>
<path class="st3" d="M421.4,495.9"/>
<path class="st3" d="M372.2,495.9"/>
<path class="st4" d="M481.8,448.8c0,12.1,0,40.5,0,46.1c5.4,0,18.6,0,18.6,0c9.9,0,19.6-0.7,29.3-2c-1.6-6.8-11.8-50.8-11.8-50.8
	s0-0.1-0.1-0.3c-5.7,0.6-11.6,1-17.5,1c0,0-13.5,0-18.5,0c0,0.3,0,0.5,0,0.5S481.8,445.4,481.8,448.8z"/>
<path class="st4" d="M627.2,453c8.3-6.2,16.2-13,23.6-20.4c1.3-1.3,2.6-2.6,3.8-3.9c-0.8-0.6-1.3-1-1.3-1
	C651,426,620.2,402,613,396.4c-8,7.9-16.8,15-26.3,21.1c6.2,5.9,35.2,34,37.4,36.1c0,0,0.4,0.4,1.1,1
	C625.9,453.9,626.6,453.4,627.2,453z"/>
<path class="st4" d="M274.5,443.2h-1c0,0,0,44.4,0,51.6c7.5,0,39,0,46.7,0c0-7.2,0-51.6,0-51.6h-1"/>
<path class="st3" d="M223,495.9"/>
<path class="st3" d="M224.7,495.9"/>
<path class="st3" d="M227.3,495.9"/>
<path class="st3" d="M230.8,495.9"/>
<path class="st3" d="M35.1,261.4"/>
<path class="st3" d="M35.1,263.1"/>
<path class="st3" d="M35.1,264"/>
<path class="st3" d="M35.1,264"/>
<path class="st3" d="M35.1,266.4"/>
<path class="st3" d="M36.6,307.4"/>
<path class="st3" d="M46.6,349.9"/>
<path class="st3" d="M63.8,386.9"/>
<path class="st3" d="M91.8,424.6"/>
<path class="st3" d="M124.9,454.4"/>
<path class="st3" d="M165.1,477.9"/>
<path class="st3" d="M214,493.1"/>
<path class="st3" d="M228.6,441.9"/>
<path class="st3" d="M226.6,441.5"/>
<path class="st3" d="M226,441.4"/>
<path class="st3" d="M195.3,433.2"/>
<path class="st3" d="M192.4,432"/>
<path class="st3" d="M165.1,477.9"/>
<path class="st3" d="M165.6,418.2"/>
<path class="st3" d="M135.6,394.2"/>
<path class="st3" d="M128.2,386.2"/>
<path class="st3" d="M114.5,368.6"/>
<path class="st3" d="M113,366.4"/>
<path class="st3" d="M112.7,366"/>
<path class="st4" d="M103.8,337.9c0.1,0,0.2-0.1,0.3-0.1c3.9,8.8,8.6,17.2,13.8,25.1c-3.2,1.4-5.6,2.4-5.6,2.4
	c-0.2,0.1-0.3,0.1-0.3,0.1s-29.4,12.4-42.9,18.2c-6.1-10-11.3-20.5-15.7-31.3c12.3-3.5,42-12,45.4-13
	C98.8,339.4,100.9,338.8,103.8,337.9z"/>
<path class="st3" d="M58.3,377"/>
<path class="st3" d="M58.3,377"/>
<path class="st3" d="M63.8,386.9"/>
<path class="st3" d="M98.1,337.6"/>
<path class="st3" d="M97.3,335.4"/>
<path class="st4" d="M88.4,305.9c-6.2,0.6-36.4,3.8-47.5,5c2.5,12.7,6.1,25,10.7,37c5.8-1.7,41.1-12,45.4-13.2c0,0,2.2-0.6,5.1-1.5
	c-3.7-8.9-6.7-18.2-8.9-27.7c-2.2,0.2-3.8,0.4-3.8,0.4C89.2,305.8,88.9,305.9,88.4,305.9z"/>
<path class="st3" d="M46.6,349.9"/>
<path class="st3" d="M89.1,303.9"/>
<path class="st3" d="M89,302.9"/>
<path class="st3" d="M88.9,301.9"/>
<path class="st3" d="M88.8,301.4"/>
<path class="st3" d="M87.6,266.4"/>
<path class="st3" d="M267.5,495.9"/>
<path class="st3" d="M319.2,495.9"/>
<path class="st3" d="M321.2,495.9"/>
<path class="st3" d="M316,495.9"/>
<path class="st3" d="M276.4,495.9"/>
<path class="st3" d="M272.6,495.9"/>
<path class="st3" d="M321.9,495.9"/>
<path class="st3" d="M331.7,495.9"/>
<path class="st3" d="M330.9,495.9"/>
<path class="st3" d="M326.6,495.9"/>
<path class="st3" d="M375.7,495.9"/>
<path class="st4" d="M223.5,491.1c13.8,2.6,28,3.9,42.3,3.9c0,0,0.1,0,0.4,0c0-7.2,0-51.6,0-51.6s0-0.2,0-0.5c-0.3,0-0.5,0-0.5,0
	c-12,0-23.7-1.2-35-3.5c-0.4,1.7-0.7,2.9-0.7,2.9s-8.4,36.3-11.1,48C220.5,490.4,222,490.7,223.5,491.1z"/>
<path class="st4" d="M195.1,435.8c0.4-0.7,0.7-1.2,0.7-1.2s3.5-5.9,3.1-5c8.6,3.5,17.6,6.4,26.9,8.5c-0.4,1.8-0.7,3.2-0.7,3.2
	S216.8,477,214,489c-14.6-3.4-28.7-8.1-42.3-14.2C178,464.2,191.9,441.2,195.1,435.8z"/>
<path class="st4" d="M166.5,412.2c-2,2-4.1,3.9-4.1,3.9c-0.1,0-0.1,0.1-0.1,0.1s-23.8,23-34.1,32.9c-8.6-6.5-16.9-13.6-24.7-21.4
	c-1.3-1.3-2.6-2.6-3.9-4c11.2-8.7,36.7-28.6,36.7-28.6s0,0,0.1,0c0,0,2-1.5,4.7-3.5l0.1-0.1c5.5,5.5,12.8,12.2,24.3,20.1"/>
<path class="st4" d="M86.7,270c0.7,0,1.4,0,2,0c0.2,9.5,1.2,18.8,2.9,27.9c-1.7,0.2-2.9,0.3-2.9,0.3c-0.1,0-0.2,0-0.2,0
	s-36.2,3.8-49.1,5.1c-1.8-11-2.9-22.2-3.1-33.5C49.6,269.9,66.7,270,86.7,270z"/>
<path class="st4" d="M273.5,36v0.6c0,0,0,46.3,0,52c8.3,0,39.1,0,46.7,0c0-5.8,0-52,0-52s0-0.2,0-0.6
	C311.5,35.9,273.4,35.9,273.5,36"/>
<path class="st3" d="M223,36.5"/>
<path class="st3" d="M224.7,36.5"/>
<path class="st3" d="M227.3,36.5"/>
<path class="st3" d="M230.8,36.5"/>
<path class="st3" d="M35.1,271"/>
<path class="st3" d="M35.1,269.4"/>
<path class="st3" d="M35.1,268.4"/>
<path class="st3" d="M35.1,268.4"/>
<path class="st3" d="M35.1,266"/>
<path class="st3" d="M36.6,225.1"/>
<path class="st3" d="M46.6,182.4"/>
<path class="st3" d="M63.8,145.5"/>
<path class="st3" d="M91.8,107.8"/>
<path class="st3" d="M124.9,78.1"/>
<path class="st3" d="M165.1,54.5"/>
<path class="st3" d="M214,39.3"/>
<path class="st3" d="M228.6,90.5"/>
<path class="st3" d="M226.6,90.8"/>
<path class="st3" d="M226,90.9"/>
<path class="st3" d="M195.3,99.2"/>
<path class="st3" d="M192.4,100.4"/>
<path class="st3" d="M165.1,54.5"/>
<path class="st3" d="M165.6,114.2"/>
<path class="st3" d="M135.6,138.2"/>
<path class="st4" d="M133.4,141.5c0.7,0.5,2,1.5,3.5,2.8c-6.1,6.4-11.7,13.3-16.7,20.6c-2.9-1.2-5.1-2.1-5.1-2.1
	c-0.5-0.2-0.8-0.4-0.8-0.4S83.8,149.6,71,144.1c7.1-11.3,15.2-22.1,24.3-32.2c8,6.2,23.7,18.5,32.1,25c3,2.3,5,3.9,5.4,4.2
	C132.8,141,133.1,141.2,133.4,141.5z"/>
<path class="st3" d="M128.2,146.1"/>
<path class="st3" d="M114.5,163.8"/>
<path class="st3" d="M113,166"/>
<path class="st3" d="M112.7,166.4"/>
<path class="st3" d="M58.3,155.3"/>
<path class="st3" d="M58.3,155.3"/>
<path class="st3" d="M63.8,145.5"/>
<path class="st3" d="M98.1,194.8"/>
<path class="st3" d="M97.3,196.9"/>
<path class="st4" d="M97.2,197.9c-0.2-0.1-0.3-0.1-0.3-0.1c-3.7-1.1-33.7-9.6-46-13.2c-4.6,12.2-8,24-10.4,36.9
	c7.9,0.8,46.7,4.9,48.9,5.1c0,0,1.5,0.2,3.6,0.4c2.1-9.6,5.1-18.9,8.7-27.8C99.5,198.6,97.9,198.1,97.2,197.9z"/>
<path class="st3" d="M46.6,182.4"/>
<path class="st3" d="M89.1,228.5"/>
<path class="st3" d="M89,229.6"/>
<path class="st3" d="M88.9,230.6"/>
<path class="st3" d="M88.8,231"/>
<path class="st3" d="M87.6,266"/>
<path class="st3" d="M267.5,36.5"/>
<path class="st3" d="M319.2,36.5"/>
<path class="st3" d="M316,36.5"/>
<path class="st3" d="M276.4,36.5"/>
<path class="st3" d="M272.6,36.5"/>
<path class="st3" d="M331.2,36.5"/>
<path class="st3" d="M330.5,36.5"/>
<path class="st3" d="M326.6,36.5"/>
<path class="st3" d="M375.7,36.5"/>
<path class="st3" d="M374.9,88.6"/>
<path class="st3" d="M373.9,88.6"/>
<path class="st3" d="M327.2,36"/>
<path class="st3" d="M327.4,36.5"/>
<path class="st3" d="M321.8,36.5"/>
<g>
	<polyline class="st4" points="327.2,36 369.5,36 369.5,88.6 327.2,88.6 	"/>
</g>
<path class="st3" d="M325.7,36"/>
<path class="st3" d="M328.7,36.5"/>
<path class="st4" d="M223.5,84.8c0.9,3.9,1.5,6.4,1.5,6.4s0.2,0.9,0.5,2.1c-9.4,2.2-18.4,5.1-27.2,8.7c-1.2-2.1-2.5-4.1-2.5-4.1
	S173.9,62,170.6,56.6c13.8-6.3,28.1-11.2,43-14.6C215.4,49.5,220.9,73.2,223.5,84.8z"/>
<path class="st4" d="M163.6,117.4c0.6,0.6,1.4,1.3,2.2,2.1c-9,6.2-17.5,13.2-25.2,20.9c-2.4-1.8-4.2-3.1-4.2-3.1h-0.1
	c0,0-31.9-25.2-37.3-29.5c1.5-1.6,2.9-3,4.5-4.6c7.5-7.5,15.4-14.4,23.7-20.7c9.7,9.3,35,33.8,35,33.8S162.8,116.6,163.6,117.4z"/>
<g id="XMLID_00000183956708234452668730000003370327085745169835_">
</g>
<path class="st1" d="M474.7,89.9"/>
<path class="st1" d="M474.7,88.6"/>
<path class="st1" d="M506.1,146.1"/>
<path class="st1" d="M517,95.2"/>
<path class="st1" d="M517.7,92.1"/>
<path class="st1" d="M511,146"/>
<path class="st1" d="M521.8,97"/>
<path class="st1" d="M525.2,149.1"/>
<path class="st1" d="M530.1,139.8"/>
<path class="st1" d="M530.1,139.8"/>
<path class="st1" d="M528.7,151.6"/>
<path class="st1" d="M533.4,143"/>
<path class="st1" d="M533.4,143"/>
<path class="st1" d="M550.2,112.1"/>
<path class="st1" d="M557,99.5"/>
<path class="st1" d="M541.5,155.5"/>
<path class="st1" d="M577.7,116.8"/>
<path class="st1" d="M482,91.2"/>
<path class="st1" d="M482,36"/>
<path class="st1" d="M321.5,377.5"/>
<path class="st1" d="M269.4,377.5"/>
<path class="st1" d="M189.8,341.4"/>
<path class="st1" d="M420.7,147.1"/>
<path class="st1" d="M420.7,145.3"/>
<path class="st1" d="M474.7,198.2"/>
<path class="st1" d="M497.2,220.8"/>
<path class="st2" d="M475.5,385.5c0-0.1,0-0.2,0-0.2"/>
<path class="st2" d="M475.7,386.2L475.7,386.2"/>
<path class="st2" d="M476.1,386.2c-0.1,0-0.2,0-0.3,0"/>
<path class="st2" d="M476.4,386.2c0,0-0.1,0-0.3,0"/>
<path class="st1" d="M658.8,271.8"/>
<path class="st1" d="M374,199.9"/>
<path class="st1" d="M374,151.6"/>
<path class="st2" d="M273.5,145.2c-0.2,0-0.3,0-0.3,0"/>
<path class="st1" d="M264.3,145.2"/>
<path class="st1" d="M230,147.4"/>
<path class="st1" d="M135,151.2"/>
<path class="st1" d="M176.6,177.3"/>
<path class="st1" d="M96.7,258.9"/>
<path class="st1" d="M96.7,266.1"/>
<path class="st1" d="M144.9,266"/>
<path class="st1" d="M151.1,215.9"/>
<path class="st1" d="M170.1,198.2"/>
<path class="st1" d="M372.7,145.2"/>
<path class="st1" d="M320.8,198.2"/>
<path class="st1" d="M266.8,198.2"/>
<path class="st1" d="M266.4,146.5"/>
<path class="st1" d="M262.2,144.8"/>
<path class="st1" d="M252.9,153.8"/>
<path class="st1" d="M148.7,262.6"/>
<path class="st1" d="M159.4,226.2"/>
<path class="st1" d="M286.7,434.4"/>
<path class="st1" d="M154.2,324.5"/>
<path class="st1" d="M175.3,353.6"/>
<path class="st1" d="M144.9,271.6"/>
<path class="st1" d="M146.8,300.2"/>
<path class="st1" d="M151,314.9"/>
<path class="st1" d="M185,362.4"/>
<path class="st1" d="M218.1,380.9"/>
<path class="st1" d="M154.5,297"/>
<path class="st1" d="M420.7,198.2"/>
<path class="st1" d="M187.4,354.2"/>
<path class="st1" d="M228.5,383.9"/>
<path class="st1" d="M260.3,386.2"/>
<path class="st1" d="M270.7,434.9"/>
<path class="st1" d="M313.6,434.9"/>
<path class="st1" d="M325.2,434.9"/>
<path class="st1" d="M368.2,199.9"/>
<path class="st1" d="M191.2,355.2"/>
<path class="st1" d="M188.7,357"/>
<path class="st1" d="M222.2,267.1"/>
<path class="st1" d="M222.2,328.8"/>
<path class="st6" d="M255.5,376.9c3.8,0.4,7.6,0.6,11.4,0.6c0,0,0.1,0,0.3,0c0-3.7,0-11.9,0-20.1c-8.3,0-43.8,0-43.8,0s0-18.8,0-25
	c-10.3,6.9-21.1,14.2-28.2,19C211.8,365.4,232.7,374.6,255.5,376.9z"/>
<path class="st6" d="M428.1,153.9C428.1,153.8,428.1,153.8,428.1,153.9c5.1-0.1,37.4-0.1,46.6-0.1c0,4.3,0,14.3,0,23.7
	c-7.7,0-38.8,0-46.7,0C428.1,168.4,428.1,158.8,428.1,153.9z"/>
<path class="st6" d="M503.2,153.8c-1,0-2-0.1-3-0.1c0,0-12.4,0-18.3,0c0,4.8,0,14.6,0,23.7c8.3,0,37.9,0,37.9,0s0,20.8,0,27.2
	c15-10.6,33.1-23.4,39.2-27.7C542.4,163.1,522.2,154.8,503.2,153.8z"/>
<path class="st6" d="M476.6,376.1c0,0.5,0,1,0,1.4c-8.3,0-37.9,0-46.7,0c0-3.6,0-11.8-0.1-20.1c7.6,0,39.5,0,46.7,0
	C476.6,364.5,476.6,371.8,476.6,376.1z"/>
<path class="st6" d="M306.2,153.8c7.4,0,13.7,0,15.8,0c0,4.8,0,14.6,0,23.8c-7.5,0-38.1,0-46.7,0c0-9.4,0-19.4,0-23.7
	c9.9,0,27.6,0,47.4,0"/>
<path class="st6" d="M310.7,377.4c-3.3,0-6.9,0-10.6,0c-10.3,0-21,0-25.5,0c0-4.1,0-12.1,0-20.1c8.6,0,39.6,0,46.7,0
	c0,8.3,0,16.5-0.1,20.1C318.9,377.4,315.1,377.4,310.7,377.4"/>
<path class="st6" d="M376,153.8c21.7,0,39.7,0,45.9,0c0,5.1,0,14.8,0,23.7c-8.7,0-37.7,0-45.9,0C376,168,376,158.1,376,153.8z"/>
<path class="st6" d="M329.3,153.8c13.3,0,27.3,0,40.2,0c0,4.3-0.1,14.2-0.1,23.7c-6.7,0-33.2,0-40.2,0
	C329.3,168.4,329.3,158.8,329.3,153.8L329.3,153.8z"/>
<path class="st6" d="M373,376.1c0,0.5,0,1,0,1.4c-14.2,0-29.8,0-44.5,0c0,0,0-10.1,0-20.1c8.5,0,36.7,0,44.5,0
	C373,364.6,373,371.9,373,376.1z"/>
<path class="st6" d="M172.3,206c5.2-8.2,11.4-15.7,18.5-22.3c7.7,5.5,20.5,14.7,32.5,23.4c0,9.3,0,49.8,0,58.4
	c-23.9,0-46.9-0.1-68.3-0.1C155.1,243.6,161.4,223.2,172.3,206z"/>
<path class="st6" d="M172.1,324.9c5.3,8.5,11.7,16.2,19,22.9c8-5.2,20.5-13.5,32.2-21.1c0-9.7,0-50,0-56.2
	c-23.9-0.1-46.8-0.1-68.2-0.2C156,290.2,162.1,308.9,172.1,324.9z"/>
<path class="st6" d="M422.6,376.4c0,0.4,0,0.8,0,1.1c-5,0-22.7,0-44.5,0c0-5.6,0-19.9,0-19.9s0-0.1,0-0.3c7.2,0,36.9,0,44.5,0
	C422.6,364.9,422.6,372.2,422.6,376.4z"/>
<path class="st6" d="M555.5,351c2.9,1.9,5.2,3.5,6.7,4.5c-11.6,9.7-25.6,16.6-40.9,19.9c-6.4,1.4-13,2.1-19.8,2.1c0,0-12.2,0-17.5,0
	c0-3.7,0-11.9,0-20.1c8.5,0,37.1,0,37.1,0s0-27.2,0-29.5C533,335.9,546.9,345.2,555.5,351z"/>
<path class="st6" d="M596.6,277.5c0-2.1,0-4.4,0-6c-23-0.1-48.5-0.1-75.5-0.2c0,8,0,40.9,0,51c17.1,11.2,38.6,25.3,45.2,29.6
	c10.5-9.8,18.8-21.9,24-35.5c4.1-10.6,6.3-22,6.3-34C596.6,282.4,596.6,280.1,596.6,277.5z"/>
<path class="st6" d="M583.7,204c-4.5-7.5-10.2-14.7-17-21.2c-0.7-0.7-1.4-1.4-2.1-2c-7.4,5.3-27.2,19.5-43.5,31.2c0,9.4,0,45,0,54
	c27,0,52.5,0.1,75.5,0.1c0-4,0-17.1,0-17.1C596.6,233.4,592.1,218,583.7,204z"/>
<path class="st6" d="M195.4,179.8c19.4-16.2,44.3-25.9,71.5-25.9c0,0,0.4,0,1,0c0,4.8,0,14.6,0,23.7c-8.6,0-44.6,0-44.6,0
	s0,16.9,0,22.5c-10.6-7.5-21.6-15.3-28.3-20C195.2,179.9,195.3,179.8,195.4,179.8z"/>
<text transform="matrix(1 0 0 1 358.2848 196.3897)" class="st7 st8 st9">VIP</text>
<path class="st2" d="M152,209.9c-5.9-2-28.7-9.5-40-13.2c8-17.7,19-33.8,32.3-47.7c11.9,9.3,33.5,26.2,33.5,26.2
	c0.2,0.2,5.3,3.9,5.3,3.9c-9.7,9.7-17.6,21.1-23.2,33.4c-3.7-1.2-6.4-2.1-6.4-2.1S152.9,210.1,152,209.9z"/>
<path class="st2" d="M152.9,140.5c-1.7,1.5-3.3,3-4.9,4.6c11.4,8.8,34.3,26.6,34.5,26.8c0,0,1.8,1.4,4.3,3.3
	c1.1-0.9,3.8-3.2,3.8-3.2c10-8.4,21.4-15.1,33.5-19.6c-1-1.7-1.8-3-1.8-3c-3.4-5.6-13-21.4-23.4-38.6
	C182,118.2,166.4,128.3,152.9,140.5z"/>
<path class="st2" d="M474.7,145.3c-5.9,0-36.9,0-46.6,0c0-0.2,0-0.4,0-0.4s-0.1-38.7-0.2-47.8c7.3,0,40.7,0,46.8,0
	C474.7,109.2,474.7,139.9,474.7,145.3"/>
<path class="st2" d="M482,133.1c0,5.7,0,10.4,0,12.2c5.6,0,18.3,0,18.3,0c2.7,0,5.4,0.1,8.1,0.4c4.4,0.4,8.8,1.3,13.1,2.4
	c2.7-4.4,13.8-22.9,25.7-42.5c-9.6-3.5-19.4-5.9-29.3-7.3c-5.9-0.8-11.8-1.2-17.7-1.2c0,0-12.7,0-18.3,0
	C482,104.1,482,121.1,482,133.1z"/>
<path class="st2" d="M613.8,151.3c-1.7-1.9-3.4-3.7-5.1-5.6c-9.9,7.7-37.6,29.4-37.6,29.4s-0.2,0.2-0.6,0.5c0.3,0.3,0.7,0.7,1,1
	c10.4,10.1,18.5,21.5,24,33.7c0,0,37.1-12.2,46-15.2C634.9,179.5,625.6,164.8,613.8,151.3z"/>
<path class="st2" d="M603.5,212.4c-3.9,1.2-6.4,2-6.4,2c4.4,11.1,6.8,22.7,6.8,34.5c0,0,0,12.5,0,17.2c17.8,0,34,0,48.2,0.1
	c0-3.8,0-17.2,0-17.2c0-16.8-3-33.3-8.9-49.1C636.2,202,614.5,208.9,603.5,212.4z"/>
<path class="st2" d="M97.2,262.2c0,1,0,2.1,0,3.1c15.8,0,33.3,0,52,0.1c-0.1-1.5-0.1-3-0.1-4.5c0-15.4,3.1-30.6,9-44.6
	c-3.7-1.2-6.4-2-6.4-2s-2.5-0.8-6.4-2c-9.2-2.9-26-8.2-35.2-11.1C102.2,220.1,97.7,240.8,97.2,262.2z"/>
<path class="st2" d="M559.2,110.5c-2.4-1.1-4.8-2.2-7.3-3.1c-11.2,18.5-21.9,36.1-25.5,42.1c14,4.4,27.8,12.1,39.8,22.5
	c0.2-0.2,30.3-23.5,38.6-30C591.2,128.8,575.8,118.1,559.2,110.5z"/>
<path class="st2" d="M475.5,386.1c-5.9,0-36.9,0.2-46.6,0.2c0,0.2,0,0.4,0,0.4s-0.1,38.7-0.2,47.8c7.3,0,40.7,0,46.8,0
	C475.5,422.2,475.5,391.1,475.5,386.1"/>
<path class="st2" d="M482.8,398.4c0-5.7,0-10.4,0-12.2c5.6,0,18.3,0,18.3,0c2.7,0,5.4-0.1,8.1-0.4c4.4-0.4,8.8-1.3,13.1-2.4
	c2.7,4.4,13.8,22.9,25.7,42.5c-9.6,3.5-19.4,5.9-29.3,7.3c-5.9,0.8-11.8,1.2-17.7,1.2c0,0-12.7,0-18.3,0
	C482.8,427.4,482.8,410.4,482.8,398.4z"/>
<path class="st2" d="M614.5,380.2c-1.7,1.9-3.4,3.7-5.1,5.6c-9.9-7.7-37.6-29.4-37.6-29.4s-0.2-0.2-0.6-0.5c0.3-0.3,0.7-0.7,1-1
	c10.4-10.1,18.5-21.5,24-33.7c0,0,37.1,12.2,46,15.2C635.6,352.1,626.4,366.9,614.5,380.2z"/>
<path class="st2" d="M645.2,325.1c-0.6,2-1.3,4-2.1,6c-7-2.2-28.7-9.1-39.6-12.5c-3.9-1.2-6.4-2-6.4-2c4.4-11.1,6.8-22.7,6.8-34.5
	c0,0,0-5.3,0-10.3c3.5,0,37,0,48.2,0c0,4.9,0,10.3,0,10.3C652.1,296.6,649.8,311.1,645.2,325.1z"/>
<path class="st2" d="M421.1,434.4c0.1,0,0.2,0,0.4,0c0-11.2,0-47.8,0-47.8s0-0.1,0-0.4c-8.2,0-36.7,0-44.5,0c0,23.7,0,41.3,0,48.2
	C384.6,434.4,412.5,434.4,421.1,434.4z"/>
<path class="st2" d="M560.1,421c-2.4,1.1-4.8,2.2-7.3,3.1c-11.2-18.5-21.9-36.1-25.5-42.1c14-4.4,27.8-12.1,39.8-22.5
	c0.2,0.2,30.3,23.5,38.6,30C592,402.9,576.5,413.4,560.1,421z"/>
<path class="st2" d="M107.3,322.4c0.9,2.5,1.8,4.9,2.8,7.3c9.3-2.9,26-8.2,35.1-11.1c3.9-1.2,6.4-2,6.4-2s3.2-1,6.4-2
	c-5.8-13.9-9-28.9-9.1-44.2c-18.4-0.1-35.6-0.1-51.2-0.1C98.2,288.4,101.5,305.9,107.3,322.4z"/>
<path class="st2" d="M274.1,145.2c0-5.5,0-36,0-48.2c9.6,0,39.4,0,46.8,0c0,9.2-0.2,47.8-0.2,47.8s0,0.1,0,0.4
	c-10.1,0-43.5,0-47.3,0"/>
<path class="st2" d="M420.7,97.5c0-0.1,0-0.3,0-0.4c-0.1,0-0.2,0-0.4,0c-8.8,0-36.6,0-45.6,0c0,6.9,0,24.5,0,48.2
	c23.1,0,45.9,0,45.9,0c0-0.2,0-0.4,0-0.4S420.7,109.1,420.7,97.5z"/>
<path class="st2" d="M364.3,145.2c-12.3,0-29.9,0-36.2,0c0-0.2,0-0.4,0-0.4s0-36.5,0-47.8c6.7,0,33,0,40.5,0
	c0,10.7-0.1,39.1-0.2,48.2C367.1,145.2,365.7,145.2,364.3,145.2z"/>
<path class="st2" d="M215.9,104.6c-4.2,1.3-8.3,2.7-12.3,4.3c11.1,18.3,21.1,34.9,23.6,39.1c0,0,0.7,1.1,1.6,2.7
	c11.6-3.8,23.9-5.9,36.3-5.9h1c0,0,0.2,0,0.6,0c0-2,0-6.4,0-11.8c0-0.4,0-0.8,0-1.3c0-11.9,0-27.9,0-34.7c-0.6,0-1,0-1,0
	C248.4,97.1,231.6,99.8,215.9,104.6z"/>
<path class="st2" d="M140,377.9c1.3,1.5,2.6,2.9,4,4.4c12-9.3,33-25.8,33-25.8s0.2-0.2,0.6-0.5c0,0,2.3-1.8,5.4-4.2
	c-9.6-9.6-17.4-20.8-23-32.9c-4.2,1.4-7.4,2.4-7.4,2.4s-28.2,9.3-41.3,13.6c0.3-0.1,0.6-0.2,0.9-0.3
	C119.3,350.4,128.7,365,140,377.9z"/>
<path class="st2" d="M346.7,386.2c-8.1,0-15.7,0-19.4,0c0,0.2,0,0.4,0,0.4s0,36.6,0,47.8c0.1,0,0.2,0,0.4,0c2,0,5,0,8.6,0
	c0,0,7.5,0,14.9,0c8.7,0,17.3,0,17.3,0c1.3,0,2.4,0,3.2,0c0-6.9,0-24.5,0-48.2C367.5,386.2,356.8,386.2,346.7,386.2z"/>
<path class="st2" d="M193.4,418.2c-17-8.2-32.4-19.1-45.6-32.3c11.5-8.9,33.8-26.3,34-26.4c0,0,2.2-1.7,5.2-4c1.2,1,3.6,3,3.6,3
	c10,8.4,21.3,15,33.3,19.6c-1.2,2-2.3,3.9-2.3,3.9c-3.4,5.6-12.9,21.3-23.3,38.4C196.6,419.8,195,419,193.4,418.2z"/>
<path class="st2" d="M266,398.1c0,0.1,0,0.2,0,0.3c0,12,0,29,0,36c0,0,0,0.1,0,0.4c-22.3,0-43.6-4.4-63.1-12.4
	c11-18.3,21-34.8,23.6-39c0,0,0.9-1.5,2.2-3.6c12,4,24.6,6,37.4,5.9C266,387,266,391.9,266,398.1z"/>
<path class="st2" d="M293.8,386.2c-8.5,0-16.6-0.4-20.4-0.4c0.1,0.7,0,0.1,0,0.1s0.2,37.3,0.2,48.6c0.1,0,0.2,0,0.4,0
	c2.1,0,5.3,0,9,0c0,0,7.8,0,15.6,0c9.1,0,18.2,0,18.2,0c1.4,0,2.5,0,3.4,0c0-6.9,0-24.5,0-48.2C315.6,386.2,304.3,386.2,293.8,386.2
	z"/>
<image style="overflow:visible;" width="1172" height="645" xlink:href="4029845068_05f6ac35f8_o.jpg"  transform="matrix(0.255 0 0 0.2793 223.3 177.2762)">
</image>
<path class="st4" d="M376.9,442.9h-1c0,0,0,45,0,52.2c4.5,0,40.4,0,46.7,0c0-7.2,0-52.2,0-52.2h-1.1"/>
</svg>
