<?xml version="1.0" encoding="utf-8"?>
<!-- Generator: Adobe Illustrator 26.3.1, SVG Export Plug-In . SVG Version: 6.00 Build 0)  -->
<svg version="1.1" id="圖層_1" xmlns="http://www.w3.org/2000/svg" xmlns:xlink="http://www.w3.org/1999/xlink" x="0px" y="0px"
	 viewBox="0 0 595.3 427.9" style="enable-background:new 0 0 595.3 427.9;" xml:space="preserve">
<style type="text/css">
	.st0{fill:#B1DAE0;}
	.st1{fill:#D5EDF9;stroke:#000000;stroke-miterlimit:10;}
	.st2{fill:#FFFFFF;stroke:#000000;stroke-width:1;stroke-miterlimit:9.9997;}
	.st3{fill:#FFFFFF;stroke:#000000;stroke-miterlimit:10;}
	.st4{fill:none;stroke:#000000;stroke-miterlimit:10;}
	.st5{fill:#6E79BA;}
	.st6{font-family:'ArialRoundedMTBold';}
	.st7{font-size:6.9281px;}
	.st8{fill:#FFFFFF;}
	.st9{font-size:14.1539px;}
</style>
<g>
	<path class="st0" d="M170.7,59.7c0,0-3.5,12.3-3.5,18.6c0,0-14,8.1-20.4,8.1c-7.9,21.2-18.2,55.8-18,99.2
		c0.2,28.2,4.7,42.4,7.9,76.9c2.3,24.6,4,60.7,0,105.7h303.5c-4-45-2.3-81.1,0-105.7c3.2-34.5,7.7-48.7,7.9-76.9
		c0.2-41.1-9-74.4-16.7-95.8"/>
	<path class="st0" d="M410.4,59.7c0,0,3.1,14.3,3.1,18.9l17.9,11.2"/>
</g>
<path class="st1" d="M444.3,228.5C444,235.4,373.5,241,288,241c-85.8,0-155.2-4.9-155.2-11.8"/>
<ellipse transform="matrix(0.1624 -0.9867 0.9867 0.1624 55.1566 255.1555)" class="st2" cx="177.9" cy="95.1" rx="3.5" ry="3.2"/>
<ellipse transform="matrix(0.1624 -0.9867 0.9867 0.1624 49.7821 247.1192)" class="st2" cx="170.4" cy="94.2" rx="3.5" ry="3.2"/>
<ellipse transform="matrix(0.1624 -0.9867 0.9867 0.1624 60.3931 263.3957)" class="st2" cx="185.3" cy="96.1" rx="3.5" ry="3.2"/>
<ellipse transform="matrix(0.1624 -0.9867 0.9867 0.1624 65.7813 271.701)" class="st2" cx="192.9" cy="97.1" rx="3.5" ry="3.2"/>
<ellipse transform="matrix(0.1624 -0.9867 0.9867 0.1624 71.0317 279.7953)" class="st2" cx="200.3" cy="98.1" rx="3.5" ry="3.2"/>
<ellipse transform="matrix(0.1624 -0.9867 0.9867 0.1624 76.4712 287.9113)" class="st2" cx="207.8" cy="98.9" rx="3.5" ry="3.2"/>
<ellipse transform="matrix(0.1624 -0.9867 0.9867 0.1624 81.8015 296.1254)" class="st2" cx="215.3" cy="99.9" rx="3.5" ry="3.2"/>
<ellipse transform="matrix(0.1624 -0.9867 0.9867 0.1624 42.4671 260.5923)" class="st2" cx="174.7" cy="105.3" rx="3.5" ry="3.2"/>
<ellipse transform="matrix(0.1624 -0.9867 0.9867 0.1624 37.1959 252.5017)" class="st2" cx="167.3" cy="104.3" rx="3.5" ry="3.2"/>
<ellipse transform="matrix(0.1624 -0.9867 0.9867 0.1624 47.6834 268.8353)" class="st2" cx="182.2" cy="106.3" rx="3.5" ry="3.2"/>
<ellipse transform="matrix(0.1624 -0.9867 0.9867 0.1624 52.9548 276.9259)" class="st2" cx="189.6" cy="107.3" rx="3.5" ry="3.2"/>
<ellipse transform="matrix(0.1624 -0.9867 0.9867 0.1624 58.4532 285.1655)" class="st2" cx="197.2" cy="108.2" rx="3.5" ry="3.2"/>
<ellipse transform="matrix(0.1624 -0.9867 0.9867 0.1624 63.717 293.2684)" class="st2" cx="204.6" cy="109.1" rx="3.5" ry="3.2"/>
<ellipse transform="matrix(0.1624 -0.9867 0.9867 0.1624 68.9408 301.499)" class="st2" cx="212.1" cy="110.1" rx="3.5" ry="3.2"/>
<ellipse transform="matrix(0.1624 -0.9867 0.9867 0.1624 30.5942 266.2331)" class="st2" cx="172.1" cy="115.1" rx="3.5" ry="3.2"/>
<ellipse transform="matrix(0.1624 -0.9867 0.9867 0.1624 25.2321 258.2063)" class="st2" cx="164.7" cy="114.2" rx="3.5" ry="3.2"/>
<ellipse transform="matrix(0.1624 -0.9867 0.9867 0.1624 35.9816 274.539)" class="st2" cx="179.7" cy="116.1" rx="3.5" ry="3.2"/>
<ellipse transform="matrix(0.1624 -0.9867 0.9867 0.1624 41.2529 282.6298)" class="st2" cx="187.1" cy="117" rx="3.5" ry="3.2"/>
<ellipse transform="matrix(0.1624 -0.9867 0.9867 0.1624 46.5739 290.825)" class="st2" cx="194.6" cy="118" rx="3.5" ry="3.2"/>
<ellipse transform="matrix(0.1624 -0.9867 0.9867 0.1624 51.8072 299.0744)" class="st2" cx="202.1" cy="119" rx="3.5" ry="3.2"/>
<ellipse transform="matrix(0.1624 -0.9867 0.9867 0.1624 57.2392 307.2029)" class="st2" cx="209.6" cy="119.9" rx="3.5" ry="3.2"/>
<ellipse transform="matrix(0.1624 -0.9867 0.9867 0.1624 18.5461 272.6964)" class="st2" cx="169.9" cy="125.4" rx="3.5" ry="3.2"/>
<ellipse transform="matrix(0.1624 -0.9867 0.9867 0.1624 13.3095 264.4563)" class="st2" cx="162.4" cy="124.4" rx="3.5" ry="3.2"/>
<ellipse transform="matrix(0.1624 -0.9867 0.9867 0.1624 23.797 280.7897)" class="st2" cx="177.3" cy="126.4" rx="3.5" ry="3.2"/>
<ellipse transform="matrix(0.1624 -0.9867 0.9867 0.1624 29.3033 289.0168)" class="st2" cx="184.9" cy="127.2" rx="3.5" ry="3.2"/>
<ellipse transform="matrix(0.1624 -0.9867 0.9867 0.1624 34.5676 297.1195)" class="st2" cx="192.3" cy="128.2" rx="3.5" ry="3.2"/>
<ellipse transform="matrix(0.1624 -0.9867 0.9867 0.1624 39.7958 305.3724)" class="st2" cx="199.8" cy="129.2" rx="3.5" ry="3.2"/>
<ellipse transform="matrix(0.1624 -0.9867 0.9867 0.1624 45.1337 313.574)" class="st2" cx="207.3" cy="130.2" rx="3.5" ry="3.2"/>
<ellipse transform="matrix(0.1624 -0.9867 0.9867 0.1624 7.0375 279.1338)" class="st2" cx="167.9" cy="135.4" rx="3.5" ry="3.2"/>
<ellipse transform="matrix(0.1624 -0.9867 0.9867 0.1624 1.866 270.9734)" class="st2" cx="160.5" cy="134.4" rx="3.5" ry="3.2"/>
<ellipse transform="matrix(0.1624 -0.9867 0.9867 0.1624 12.4328 287.4274)" class="st2" cx="175.5" cy="136.4" rx="3.5" ry="3.2"/>
<ellipse transform="matrix(0.1624 -0.9867 0.9867 0.1624 17.6963 295.5306)" class="st2" cx="182.9" cy="137.3" rx="3.5" ry="3.2"/>
<ellipse transform="matrix(0.1624 -0.9867 0.9867 0.1624 23.1832 303.7602)" class="st2" cx="190.5" cy="138.2" rx="3.5" ry="3.2"/>
<ellipse transform="matrix(0.1624 -0.9867 0.9867 0.1624 28.3615 311.9084)" class="st2" cx="197.9" cy="139.2" rx="3.5" ry="3.2"/>
<ellipse transform="matrix(0.1624 -0.9867 0.9867 0.1624 33.6825 320.1034)" class="st2" cx="205.4" cy="140.2" rx="3.5" ry="3.2"/>
<ellipse transform="matrix(0.1624 -0.9867 0.9867 0.1624 -4.2504 286.4644)" class="st2" cx="166.6" cy="145.7" rx="3.5" ry="3.2"/>
<ellipse transform="matrix(0.1624 -0.9867 0.9867 0.1624 -9.4792 278.2121)" class="st2" cx="159.1" cy="144.7" rx="3.5" ry="3.2"/>
<ellipse transform="matrix(0.1624 -0.9867 0.9867 0.1624 1.0083 294.5457)" class="st2" cx="174" cy="146.7" rx="3.5" ry="3.2"/>
<ellipse transform="matrix(0.1624 -0.9867 0.9867 0.1624 6.5058 302.7856)" class="st2" cx="181.6" cy="147.6" rx="3.5" ry="3.2"/>
<ellipse transform="matrix(0.1624 -0.9867 0.9867 0.1624 11.7694 310.8887)" class="st2" cx="189" cy="148.5" rx="3.5" ry="3.2"/>
<ellipse transform="matrix(0.1624 -0.9867 0.9867 0.1624 17.0058 319.1285)" class="st2" cx="196.5" cy="149.5" rx="3.5" ry="3.2"/>
<ellipse transform="matrix(0.1624 -0.9867 0.9867 0.1624 22.3234 327.3331)" class="st2" cx="204" cy="150.5" rx="3.5" ry="3.2"/>
<ellipse transform="matrix(0.1624 -0.9867 0.9867 0.1624 -15.6557 293.8769)" class="st2" cx="165.3" cy="156.2" rx="3.5" ry="3.2"/>
<ellipse transform="matrix(0.1624 -0.9867 0.9867 0.1624 -20.9193 285.7737)" class="st2" cx="157.9" cy="155.2" rx="3.5" ry="3.2"/>
<ellipse transform="matrix(0.1624 -0.9867 0.9867 0.1624 -10.1572 302.1164)" class="st2" cx="172.9" cy="157" rx="3.5" ry="3.2"/>
<ellipse transform="matrix(0.1624 -0.9867 0.9867 0.1624 -4.8987 310.1975)" class="st2" cx="180.3" cy="158" rx="3.5" ry="3.2"/>
<ellipse transform="matrix(0.1624 -0.9867 0.9867 0.1624 0.3302 318.4499)" class="st2" cx="187.7" cy="159" rx="3.5" ry="3.2"/>
<ellipse transform="matrix(0.1624 -0.9867 0.9867 0.1624 5.7254 326.7437)" class="st2" cx="195.3" cy="160" rx="3.5" ry="3.2"/>
<ellipse transform="matrix(0.1624 -0.9867 0.9867 0.1624 10.989 334.8471)" class="st2" cx="202.7" cy="161" rx="3.5" ry="3.2"/>
<ellipse transform="matrix(0.1624 -0.9867 0.9867 0.1624 -26.4221 301.3835)" class="st2" cx="164.3" cy="166.3" rx="3.5" ry="3.2"/>
<ellipse transform="matrix(0.1624 -0.9867 0.9867 0.1624 -31.8173 293.0897)" class="st2" cx="156.7" cy="165.3" rx="3.5" ry="3.2"/>
<ellipse transform="matrix(0.1624 -0.9867 0.9867 0.1624 -21.1712 309.477)" class="st2" cx="171.7" cy="167.2" rx="3.5" ry="3.2"/>
<ellipse transform="matrix(0.1624 -0.9867 0.9867 0.1624 -15.9347 317.7171)" class="st2" cx="179.2" cy="168.2" rx="3.5" ry="3.2"/>
<ellipse transform="matrix(0.1624 -0.9867 0.9867 0.1624 -10.6044 325.9313)" class="st2" cx="186.7" cy="169.2" rx="3.5" ry="3.2"/>
<ellipse transform="matrix(0.1624 -0.9867 0.9867 0.1624 -5.1649 334.0475)" class="st2" cx="194.2" cy="170.1" rx="3.5" ry="3.2"/>
<ellipse transform="matrix(0.1624 -0.9867 0.9867 0.1624 8.594306e-02 342.141)" class="st2" cx="201.6" cy="171" rx="3.5" ry="3.2"/>
<ellipse transform="matrix(0.1624 -0.9867 0.9867 0.1624 -37.0783 309.6018)" class="st2" cx="163.8" cy="176.6" rx="3.5" ry="3.2"/>
<ellipse transform="matrix(0.1624 -0.9867 0.9867 0.1624 -42.3687 301.2603)" class="st2" cx="156.3" cy="175.6" rx="3.5" ry="3.2"/>
<ellipse transform="matrix(0.1624 -0.9867 0.9867 0.1624 -31.7575 317.7971)" class="st2" cx="171.3" cy="177.6" rx="3.5" ry="3.2"/>
<ellipse transform="matrix(0.1624 -0.9867 0.9867 0.1624 -26.4862 325.8877)" class="st2" cx="178.7" cy="178.5" rx="3.5" ry="3.2"/>
<ellipse transform="matrix(0.1624 -0.9867 0.9867 0.1624 -21.0542 334.0163)" class="st2" cx="186.2" cy="179.4" rx="3.5" ry="3.2"/>
<ellipse transform="matrix(0.1624 -0.9867 0.9867 0.1624 -15.7366 342.221)" class="st2" cx="193.7" cy="180.4" rx="3.5" ry="3.2"/>
<ellipse transform="matrix(0.1624 -0.9867 0.9867 0.1624 -10.5002 350.461)" class="st2" cx="201.2" cy="181.4" rx="3.5" ry="3.2"/>
<ellipse transform="matrix(0.1624 -0.9867 0.9867 0.1624 -47.6661 317.6497)" class="st2" cx="163.3" cy="186.9" rx="3.5" ry="3.2"/>
<ellipse transform="matrix(0.1624 -0.9867 0.9867 0.1624 -53.0537 309.3436)" class="st2" cx="155.7" cy="185.9" rx="3.5" ry="3.2"/>
<ellipse transform="matrix(0.1624 -0.9867 0.9867 0.1624 -42.4869 325.7979)" class="st2" cx="170.7" cy="187.9" rx="3.5" ry="3.2"/>
<ellipse transform="matrix(0.1624 -0.9867 0.9867 0.1624 -37.055 333.9265)" class="st2" cx="178.2" cy="188.8" rx="3.5" ry="3.2"/>
<ellipse transform="matrix(0.1624 -0.9867 0.9867 0.1624 -31.7914 342.0297)" class="st2" cx="185.6" cy="189.7" rx="3.5" ry="3.2"/>
<ellipse transform="matrix(0.1624 -0.9867 0.9867 0.1624 -26.4076 350.3135)" class="st2" cx="193.1" cy="190.7" rx="3.5" ry="3.2"/>
<ellipse transform="matrix(0.1624 -0.9867 0.9867 0.1624 -21.1801 358.5662)" class="st2" cx="200.6" cy="191.8" rx="3.5" ry="3.2"/>
<ellipse transform="matrix(0.1624 -0.9867 0.9867 0.1624 -58.1766 325.9446)" class="st2" cx="162.9" cy="197.2" rx="3.5" ry="3.2"/>
<ellipse transform="matrix(0.1624 -0.9867 0.9867 0.1624 -63.4098 317.6956)" class="st2" cx="155.4" cy="196.2" rx="3.5" ry="3.2"/>
<ellipse transform="matrix(0.1624 -0.9867 0.9867 0.1624 -52.8559 334.1401)" class="st2" cx="170.4" cy="198.2" rx="3.5" ry="3.2"/>
<ellipse transform="matrix(0.1624 -0.9867 0.9867 0.1624 -47.5921 342.2434)" class="st2" cx="177.8" cy="199.2" rx="3.5" ry="3.2"/>
<ellipse transform="matrix(0.1624 -0.9867 0.9867 0.1624 -42.0861 350.4705)" class="st2" cx="185.4" cy="200" rx="3.5" ry="3.2"/>
<ellipse transform="matrix(0.1624 -0.9867 0.9867 0.1624 -36.835 358.5643)" class="st2" cx="192.8" cy="201" rx="3.5" ry="3.2"/>
<ellipse transform="matrix(0.1624 -0.9867 0.9867 0.1624 -31.5986 366.8044)" class="st2" cx="200.3" cy="202" rx="3.5" ry="3.2"/>
<ellipse transform="matrix(0.1624 -0.9867 0.9867 0.1624 -68.8643 334.1785)" class="st2" cx="162.4" cy="207.7" rx="3.5" ry="3.2"/>
<ellipse transform="matrix(0.1624 -0.9867 0.9867 0.1624 -74.1026 325.9076)" class="st2" cx="154.9" cy="206.6" rx="3.5" ry="3.2"/>
<ellipse transform="matrix(0.1624 -0.9867 0.9867 0.1624 -63.5434 342.3743)" class="st2" cx="169.9" cy="208.6" rx="3.5" ry="3.2"/>
<ellipse transform="matrix(0.1624 -0.9867 0.9867 0.1624 -58.2848 350.4554)" class="st2" cx="177.3" cy="209.6" rx="3.5" ry="3.2"/>
<ellipse transform="matrix(0.1624 -0.9867 0.9867 0.1624 -52.7864 358.6949)" class="st2" cx="184.9" cy="210.4" rx="3.5" ry="3.2"/>
<ellipse transform="matrix(0.1624 -0.9867 0.9867 0.1624 -47.5139 366.7854)" class="st2" cx="192.3" cy="211.4" rx="3.5" ry="3.2"/>
<ellipse transform="matrix(0.1624 -0.9867 0.9867 0.1624 -42.2862 375.0382)" class="st2" cx="199.8" cy="212.4" rx="3.5" ry="3.2"/>
<ellipse transform="matrix(0.1624 -0.9867 0.9867 0.1624 -79.39 342.6268)" class="st2" cx="162.1" cy="218.1" rx="3.5" ry="3.2"/>
<ellipse transform="matrix(0.1624 -0.9867 0.9867 0.1624 -74.1265 350.7301)" class="st2" cx="169.5" cy="219" rx="3.5" ry="3.2"/>
<ellipse transform="matrix(0.1624 -0.9867 0.9867 0.1624 -68.687 358.8463)" class="st2" cx="177" cy="219.9" rx="3.5" ry="3.2"/>
<ellipse transform="matrix(0.1624 -0.9867 0.9867 0.1624 -63.4489 367.1177)" class="st2" cx="184.5" cy="220.9" rx="3.5" ry="3.2"/>
<ellipse transform="matrix(0.1624 -0.9867 0.9867 0.1624 -58.1189 375.3001)" class="st2" cx="192" cy="221.9" rx="3.5" ry="3.2"/>
<ellipse transform="matrix(0.1624 -0.9867 0.9867 0.1624 -52.8693 383.394)" class="st2" cx="199.4" cy="222.8" rx="3.5" ry="3.2"/>
<path class="st3" d="M158.3,223.2"/>
<path class="st3" d="M141.7,223.2"/>
<path class="st3" d="M135.9,223.2"/>
<path class="st3" d="M133.3,223.2"/>
<path class="st3" d="M132.8,223.2"/>
<path class="st3" d="M132.6,223.2"/>
<path class="st3" d="M170.5,104.6"/>
<ellipse transform="matrix(0.1624 -0.9867 0.9867 0.1624 31.5498 244.2176)" class="st2" cx="159.6" cy="103.5" rx="3.5" ry="3.2"/>
<ellipse transform="matrix(0.1624 -0.9867 0.9867 0.1624 19.991 249.878)" class="st2" cx="157.2" cy="113.2" rx="3.5" ry="3.2"/>
<ellipse transform="matrix(0.1624 -0.9867 0.9867 0.1624 14.7196 241.7873)" class="st2" cx="149.8" cy="112.2" rx="3.5" ry="3.2"/>
<ellipse transform="matrix(0.1624 -0.9867 0.9867 0.1624 2.3689 247.8712)" class="st2" cx="147.2" cy="122.5" rx="3.5" ry="3.2"/>
<ellipse transform="matrix(0.1624 -0.9867 0.9867 0.1624 7.6321 255.9744)" class="st2" cx="154.6" cy="123.5" rx="3.5" ry="3.2"/>
<ellipse transform="matrix(0.1624 -0.9867 0.9867 0.1624 -3.9825 262.5259)" class="st2" cx="152.6" cy="133.6" rx="3.5" ry="3.2"/>
<ellipse transform="matrix(0.1624 -0.9867 0.9867 0.1624 -9.2456 254.4227)" class="st2" cx="145.2" cy="132.7" rx="3.5" ry="3.2"/>
<ellipse transform="matrix(0.1624 -0.9867 0.9867 0.1624 -14.9036 269.823)" class="st2" cx="151.5" cy="143.7" rx="3.5" ry="3.2"/>
<ellipse transform="matrix(0.1624 -0.9867 0.9867 0.1624 -20.2321 261.6404)" class="st2" cx="144" cy="142.7" rx="3.5" ry="3.2"/>
<ellipse transform="matrix(0.1624 -0.9867 0.9867 0.1624 -26.0512 277.3888)" class="st2" cx="150.4" cy="154" rx="3.5" ry="3.2"/>
<ellipse transform="matrix(0.1624 -0.9867 0.9867 0.1624 -31.2796 269.1362)" class="st2" cx="142.9" cy="153" rx="3.5" ry="3.2"/>
<ellipse transform="matrix(0.1624 -0.9867 0.9867 0.1624 -37.308 284.5367)" class="st2" cx="148.9" cy="164.2" rx="3.5" ry="3.2"/>
<ellipse transform="matrix(0.1624 -0.9867 0.9867 0.1624 -42.6288 276.3416)" class="st2" cx="141.5" cy="163.3" rx="3.5" ry="3.2"/>
<ellipse transform="matrix(0.1624 -0.9867 0.9867 0.1624 -47.7087 292.9917)" class="st2" cx="148.7" cy="174.6" rx="3.5" ry="3.2"/>
<ellipse transform="matrix(0.1624 -0.9867 0.9867 0.1624 -53.0844 284.6951)" class="st2" cx="141.1" cy="173.6" rx="3.5" ry="3.2"/>
<ellipse transform="matrix(0.1624 -0.9867 0.9867 0.1624 -58.3914 301.1404)" class="st2" cx="148.2" cy="185" rx="3.5" ry="3.2"/>
<ellipse transform="matrix(0.1624 -0.9867 0.9867 0.1624 -63.6626 293.0496)" class="st2" cx="140.8" cy="184" rx="3.5" ry="3.2"/>
<ellipse transform="matrix(0.1624 -0.9867 0.9867 0.1624 -68.8176 309.7734)" class="st2" cx="148.1" cy="195.4" rx="3.5" ry="3.2"/>
<ellipse transform="matrix(0.1624 -0.9867 0.9867 0.1624 -99.8372 368.1838)" class="st2" cx="166.9" cy="242.9" rx="3.5" ry="3.2"/>
<ellipse transform="matrix(0.1624 -0.9867 0.9867 0.1624 -105.2692 360.0551)" class="st2" cx="159.4" cy="242" rx="3.5" ry="3.2"/>
<ellipse transform="matrix(0.1624 -0.9867 0.9867 0.1624 -94.5661 376.2744)" class="st2" cx="174.4" cy="243.8" rx="3.5" ry="3.2"/>
<ellipse transform="matrix(0.1624 -0.9867 0.9867 0.1624 -89.1784 384.5804)" class="st2" cx="181.9" cy="244.8" rx="3.5" ry="3.2"/>
<ellipse transform="matrix(0.1624 -0.9867 0.9867 0.1624 -83.8038 392.6167)" class="st2" cx="189.4" cy="245.7" rx="3.5" ry="3.2"/>
<ellipse transform="matrix(0.1624 -0.9867 0.9867 0.1624 -78.5798 400.8471)" class="st2" cx="196.8" cy="246.7" rx="3.5" ry="3.2"/>
<ellipse transform="matrix(0.1624 -0.9867 0.9867 0.1624 -73.1923 409.1533)" class="st2" cx="204.4" cy="247.7" rx="3.5" ry="3.2"/>
<ellipse transform="matrix(0.1624 -0.9867 0.9867 0.1624 -110.4151 351.7404)" class="st2" cx="152" cy="240.9" rx="3.5" ry="3.2"/>
<ellipse transform="matrix(0.1624 -0.9867 0.9867 0.1624 -115.6777 343.6374)" class="st2" cx="144.6" cy="240" rx="3.5" ry="3.2"/>
<ellipse transform="matrix(0.1624 -0.9867 0.9867 0.1624 -110.083 376.9142)" class="st2" cx="167" cy="253.3" rx="3.5" ry="3.2"/>
<ellipse transform="matrix(0.1624 -0.9867 0.9867 0.1624 -115.4039 368.7189)" class="st2" cx="159.5" cy="252.3" rx="3.5" ry="3.2"/>
<ellipse transform="matrix(0.1624 -0.9867 0.9867 0.1624 -104.8242 384.9952)" class="st2" cx="174.4" cy="254.2" rx="3.5" ry="3.2"/>
<ellipse transform="matrix(0.1624 -0.9867 0.9867 0.1624 -99.4367 393.3009)" class="st2" cx="181.9" cy="255.2" rx="3.5" ry="3.2"/>
<ellipse transform="matrix(0.1624 -0.9867 0.9867 0.1624 -94.0618 401.3374)" class="st2" cx="189.4" cy="256.1" rx="3.5" ry="3.2"/>
<ellipse transform="matrix(0.1624 -0.9867 0.9867 0.1624 -88.8254 409.5773)" class="st2" cx="196.8" cy="257.1" rx="3.5" ry="3.2"/>
<ellipse transform="matrix(0.1624 -0.9867 0.9867 0.1624 -83.495 417.7913)" class="st2" cx="204.3" cy="258.1" rx="3.5" ry="3.2"/>
<ellipse transform="matrix(0.1624 -0.9867 0.9867 0.1624 -120.6571 360.4711)" class="st2" cx="152" cy="251.3" rx="3.5" ry="3.2"/>
<ellipse transform="matrix(0.1624 -0.9867 0.9867 0.1624 -125.9197 352.3682)" class="st2" cx="144.6" cy="250.4" rx="3.5" ry="3.2"/>
<ellipse transform="matrix(0.1624 -0.9867 0.9867 0.1624 -120.3424 385.6348)" class="st2" cx="167" cy="263.7" rx="3.5" ry="3.2"/>
<ellipse transform="matrix(0.1624 -0.9867 0.9867 0.1624 -125.6634 377.4398)" class="st2" cx="159.5" cy="262.7" rx="3.5" ry="3.2"/>
<ellipse transform="matrix(0.1624 -0.9867 0.9867 0.1624 -115.0711 393.7253)" class="st2" cx="174.4" cy="264.6" rx="3.5" ry="3.2"/>
<ellipse transform="matrix(0.1624 -0.9867 0.9867 0.1624 -109.6835 402.0313)" class="st2" cx="182" cy="265.6" rx="3.5" ry="3.2"/>
<ellipse transform="matrix(0.1624 -0.9867 0.9867 0.1624 -104.3214 410.0581)" class="st2" cx="189.4" cy="266.5" rx="3.5" ry="3.2"/>
<ellipse transform="matrix(0.1624 -0.9867 0.9867 0.1624 -99.085 418.2981)" class="st2" cx="196.8" cy="267.5" rx="3.5" ry="3.2"/>
<ellipse transform="matrix(0.1624 -0.9867 0.9867 0.1624 -93.7545 426.5121)" class="st2" cx="204.3" cy="268.5" rx="3.5" ry="3.2"/>
<ellipse transform="matrix(0.1624 -0.9867 0.9867 0.1624 -130.9168 369.1917)" class="st2" cx="152" cy="261.7" rx="3.5" ry="3.2"/>
<ellipse transform="matrix(0.1624 -0.9867 0.9867 0.1624 -136.1792 361.0891)" class="st2" cx="144.6" cy="260.8" rx="3.5" ry="3.2"/>
<ellipse class="st3" cx="180.3" cy="318.2" rx="3.2" ry="3.5"/>
<ellipse class="st3" cx="188" cy="318.2" rx="3.2" ry="3.5"/>
<ellipse class="st3" cx="195.6" cy="318.2" rx="3.2" ry="3.5"/>
<ellipse class="st3" cx="203.3" cy="318.2" rx="3.2" ry="3.5"/>
<ellipse class="st3" cx="210.9" cy="318.2" rx="3.2" ry="3.5"/>
<ellipse class="st3" cx="165" cy="318.2" rx="3.2" ry="3.5"/>
<ellipse class="st3" cx="172.7" cy="318.2" rx="3.2" ry="3.5"/>
<ellipse class="st3" cx="180.3" cy="328.6" rx="3.2" ry="3.5"/>
<ellipse class="st3" cx="188" cy="328.6" rx="3.2" ry="3.5"/>
<ellipse class="st3" cx="195.6" cy="328.6" rx="3.2" ry="3.5"/>
<ellipse class="st3" cx="203.3" cy="328.6" rx="3.2" ry="3.5"/>
<ellipse class="st3" cx="210.9" cy="328.6" rx="3.2" ry="3.5"/>
<ellipse class="st3" cx="165" cy="328.6" rx="3.2" ry="3.5"/>
<ellipse class="st3" cx="172.7" cy="328.6" rx="3.2" ry="3.5"/>
<ellipse class="st3" cx="180.3" cy="339" rx="3.2" ry="3.5"/>
<ellipse class="st3" cx="188" cy="339" rx="3.2" ry="3.5"/>
<ellipse class="st3" cx="195.6" cy="339" rx="3.2" ry="3.5"/>
<ellipse class="st3" cx="203.3" cy="339" rx="3.2" ry="3.5"/>
<ellipse class="st3" cx="210.9" cy="339" rx="3.2" ry="3.5"/>
<ellipse class="st3" cx="165" cy="339" rx="3.2" ry="3.5"/>
<ellipse class="st3" cx="172.7" cy="339" rx="3.2" ry="3.5"/>
<ellipse class="st3" cx="180.3" cy="349.4" rx="3.2" ry="3.5"/>
<ellipse class="st3" cx="188" cy="349.4" rx="3.2" ry="3.5"/>
<ellipse class="st3" cx="195.6" cy="349.4" rx="3.2" ry="3.5"/>
<ellipse class="st3" cx="203.3" cy="349.4" rx="3.2" ry="3.5"/>
<ellipse class="st3" cx="210.9" cy="349.4" rx="3.2" ry="3.5"/>
<ellipse class="st3" cx="165" cy="349.4" rx="3.2" ry="3.5"/>
<ellipse class="st3" cx="172.7" cy="349.4" rx="3.2" ry="3.5"/>
<g>
	<line class="st4" x1="144.6" y1="319.7" x2="157.3" y2="319.7"/>
	<line class="st4" x1="144.6" y1="323.7" x2="157.3" y2="323.7"/>
	<line class="st4" x1="144.6" y1="327.8" x2="157.3" y2="327.8"/>
	<line class="st4" x1="144.6" y1="331.8" x2="157.3" y2="331.8"/>
	<line class="st4" x1="144.6" y1="335.8" x2="157.3" y2="335.8"/>
	<line class="st4" x1="144.6" y1="339.9" x2="157.3" y2="339.9"/>
	<line class="st4" x1="144.6" y1="343.9" x2="157.3" y2="343.9"/>
	<polyline class="st4" points="155.7,348 157.3,348 157.3,316.9 	"/>
	<line class="st4" x1="146.2" y1="348" x2="155.7" y2="348"/>
	<line class="st4" x1="145.6" y1="348" x2="146.2" y2="348"/>
	<path class="st4" d="M144.6,316.9c0,0,0,28.9,0,31h1"/>
	<path class="st4" d="M157.3,316.9"/>
	<path class="st4" d="M144.6,316.9"/>
</g>
<ellipse transform="matrix(0.9867 -0.1624 0.1624 0.9867 -10.6845 66.7089)" class="st2" cx="402.7" cy="98.7" rx="3.2" ry="3.5"/>
<ellipse transform="matrix(0.9867 -0.1624 0.1624 0.9867 -10.4223 67.9137)" class="st2" cx="410.2" cy="97.7" rx="3.2" ry="3.5"/>
<ellipse transform="matrix(0.9867 -0.1624 0.1624 0.9867 -10.93 65.5028)" class="st2" cx="395.2" cy="99.6" rx="3.2" ry="3.5"/>
<ellipse transform="matrix(0.9867 -0.1624 0.1624 0.9867 -11.1922 64.298)" class="st2" cx="387.7" cy="100.6" rx="3.2" ry="3.5"/>
<ellipse transform="matrix(0.9867 -0.1624 0.1624 0.9867 -11.4363 63.1084)" class="st2" cx="380.3" cy="101.5" rx="3.2" ry="3.5"/>
<ellipse transform="matrix(0.9867 -0.1624 0.1624 0.9867 -11.6984 61.9037)" class="st2" cx="372.8" cy="102.5" rx="3.2" ry="3.5"/>
<ellipse transform="matrix(0.9867 -0.1624 0.1624 0.9867 -11.9567 60.7147)" class="st2" cx="365.4" cy="103.5" rx="3.2" ry="3.5"/>
<ellipse transform="matrix(0.9867 -0.1624 0.1624 0.9867 -12.2819 67.3626)" class="st2" cx="405.9" cy="108.8" rx="3.2" ry="3.5"/>
<ellipse transform="matrix(0.9867 -0.1624 0.1624 0.9867 -12.0364 68.5688)" class="st2" cx="413.4" cy="107.9" rx="3.2" ry="3.5"/>
<ellipse transform="matrix(0.9867 -0.1624 0.1624 0.9867 -12.5441 66.1579)" class="st2" cx="398.4" cy="109.8" rx="3.2" ry="3.5"/>
<ellipse transform="matrix(0.9867 -0.1624 0.1624 0.9867 -12.8024 64.9689)" class="st2" cx="391" cy="110.8" rx="3.2" ry="3.5"/>
<ellipse transform="matrix(0.9867 -0.1624 0.1624 0.9867 -13.0504 63.7635)" class="st2" cx="383.5" cy="111.7" rx="3.2" ry="3.5"/>
<ellipse transform="matrix(0.9867 -0.1624 0.1624 0.9867 -13.3087 62.5746)" class="st2" cx="376.1" cy="112.7" rx="3.2" ry="3.5"/>
<ellipse transform="matrix(0.9867 -0.1624 0.1624 0.9867 -13.5581 61.3526)" class="st2" cx="368.5" cy="113.6" rx="3.2" ry="3.5"/>
<ellipse transform="matrix(0.9867 -0.1624 0.1624 0.9867 -13.853 67.9158)" class="st2" cx="408.5" cy="118.7" rx="3.2" ry="3.5"/>
<ellipse transform="matrix(0.9867 -0.1624 0.1624 0.9867 -13.5948 69.1048)" class="st2" cx="415.9" cy="117.7" rx="3.2" ry="3.5"/>
<ellipse transform="matrix(0.9867 -0.1624 0.1624 0.9867 -14.1025 66.6938)" class="st2" cx="400.9" cy="119.6" rx="3.2" ry="3.5"/>
<ellipse transform="matrix(0.9867 -0.1624 0.1624 0.9867 -14.3593 65.5215)" class="st2" cx="393.6" cy="120.6" rx="3.2" ry="3.5"/>
<ellipse transform="matrix(0.9867 -0.1624 0.1624 0.9867 -14.6087 64.2995)" class="st2" cx="386" cy="121.5" rx="3.2" ry="3.5"/>
<ellipse transform="matrix(0.9867 -0.1624 0.1624 0.9867 -14.867 63.1105)" class="st2" cx="378.6" cy="122.5" rx="3.2" ry="3.5"/>
<ellipse transform="matrix(0.9867 -0.1624 0.1624 0.9867 -15.1164 61.8885)" class="st2" cx="371" cy="123.4" rx="3.2" ry="3.5"/>
<ellipse transform="matrix(0.9867 -0.1624 0.1624 0.9867 -15.4827 68.4089)" class="st2" cx="410.7" cy="128.9" rx="3.2" ry="3.5"/>
<ellipse transform="matrix(0.9867 -0.1624 0.1624 0.9867 -15.2332 69.6309)" class="st2" cx="418.3" cy="128" rx="3.2" ry="3.5"/>
<ellipse transform="matrix(0.9867 -0.1624 0.1624 0.9867 -15.7409 67.22)" class="st2" cx="403.3" cy="129.9" rx="3.2" ry="3.5"/>
<ellipse transform="matrix(0.9867 -0.1624 0.1624 0.9867 -15.989 66.0146)" class="st2" cx="395.8" cy="130.8" rx="3.2" ry="3.5"/>
<ellipse transform="matrix(0.9867 -0.1624 0.1624 0.9867 -16.2472 64.8257)" class="st2" cx="388.4" cy="131.8" rx="3.2" ry="3.5"/>
<ellipse transform="matrix(0.9867 -0.1624 0.1624 0.9867 -16.4967 63.6036)" class="st2" cx="380.8" cy="132.7" rx="3.2" ry="3.5"/>
<ellipse transform="matrix(0.9867 -0.1624 0.1624 0.9867 -16.7549 62.4147)" class="st2" cx="373.4" cy="133.7" rx="3.2" ry="3.5"/>
<ellipse transform="matrix(0.9867 -0.1624 0.1624 0.9867 -17.0813 68.8502)" class="st2" cx="412.6" cy="138.9" rx="3.2" ry="3.5"/>
<ellipse transform="matrix(0.9867 -0.1624 0.1624 0.9867 -16.8358 70.0564)" class="st2" cx="420.1" cy="138" rx="3.2" ry="3.5"/>
<ellipse transform="matrix(0.9867 -0.1624 0.1624 0.9867 -17.3435 67.6454)" class="st2" cx="405.1" cy="139.9" rx="3.2" ry="3.5"/>
<ellipse transform="matrix(0.9867 -0.1624 0.1624 0.9867 -17.5876 66.4559)" class="st2" cx="397.7" cy="140.8" rx="3.2" ry="3.5"/>
<ellipse transform="matrix(0.9867 -0.1624 0.1624 0.9867 -17.8498 65.2511)" class="st2" cx="390.2" cy="141.8" rx="3.2" ry="3.5"/>
<ellipse transform="matrix(0.9867 -0.1624 0.1624 0.9867 -18.108 64.0622)" class="st2" cx="382.8" cy="142.8" rx="3.2" ry="3.5"/>
<ellipse transform="matrix(0.9867 -0.1624 0.1624 0.9867 -18.3575 62.8402)" class="st2" cx="375.2" cy="143.7" rx="3.2" ry="3.5"/>
<ellipse transform="matrix(0.9867 -0.1624 0.1624 0.9867 -18.7356 69.2143)" class="st2" cx="414" cy="149.2" rx="3.2" ry="3.5"/>
<ellipse transform="matrix(0.9867 -0.1624 0.1624 0.9867 -18.4734 70.4191)" class="st2" cx="421.5" cy="148.2" rx="3.2" ry="3.5"/>
<ellipse transform="matrix(0.9867 -0.1624 0.1624 0.9867 -18.9939 68.0254)" class="st2" cx="406.6" cy="150.2" rx="3.2" ry="3.5"/>
<ellipse transform="matrix(0.9867 -0.1624 0.1624 0.9867 -19.2419 66.8201)" class="st2" cx="399.1" cy="151.1" rx="3.2" ry="3.5"/>
<ellipse transform="matrix(0.9867 -0.1624 0.1624 0.9867 -19.5001 65.6311)" class="st2" cx="391.7" cy="152.1" rx="3.2" ry="3.5"/>
<ellipse transform="matrix(0.9867 -0.1624 0.1624 0.9867 -19.7496 64.4091)" class="st2" cx="384.1" cy="153" rx="3.2" ry="3.5"/>
<ellipse transform="matrix(0.9867 -0.1624 0.1624 0.9867 -20.0078 63.2201)" class="st2" cx="376.7" cy="154" rx="3.2" ry="3.5"/>
<ellipse transform="matrix(0.9867 -0.1624 0.1624 0.9867 -20.4211 69.5643)" class="st2" cx="415.3" cy="159.7" rx="3.2" ry="3.5"/>
<ellipse transform="matrix(0.9867 -0.1624 0.1624 0.9867 -20.1629 70.7533)" class="st2" cx="422.7" cy="158.7" rx="3.2" ry="3.5"/>
<ellipse transform="matrix(0.9867 -0.1624 0.1624 0.9867 -20.6691 68.359)" class="st2" cx="407.8" cy="160.6" rx="3.2" ry="3.5"/>
<ellipse transform="matrix(0.9867 -0.1624 0.1624 0.9867 -20.9313 67.1542)" class="st2" cx="400.3" cy="161.6" rx="3.2" ry="3.5"/>
<ellipse transform="matrix(0.9867 -0.1624 0.1624 0.9867 -21.1768 65.948)" class="st2" cx="392.8" cy="162.5" rx="3.2" ry="3.5"/>
<ellipse transform="matrix(0.9867 -0.1624 0.1624 0.9867 -21.439 64.7432)" class="st2" cx="385.3" cy="163.5" rx="3.2" ry="3.5"/>
<ellipse transform="matrix(0.9867 -0.1624 0.1624 0.9867 -21.6831 63.5537)" class="st2" cx="377.9" cy="164.4" rx="3.2" ry="3.5"/>
<ellipse transform="matrix(0.9867 -0.1624 0.1624 0.9867 -22.0491 69.8778)" class="st2" cx="416.4" cy="169.8" rx="3.2" ry="3.5"/>
<ellipse transform="matrix(0.9867 -0.1624 0.1624 0.9867 -21.7884 71.0659)" class="st2" cx="423.8" cy="168.8" rx="3.2" ry="3.5"/>
<ellipse transform="matrix(0.9867 -0.1624 0.1624 0.9867 -22.3073 68.6888)" class="st2" cx="409" cy="170.8" rx="3.2" ry="3.5"/>
<ellipse transform="matrix(0.9867 -0.1624 0.1624 0.9867 -22.5568 67.4668)" class="st2" cx="401.4" cy="171.7" rx="3.2" ry="3.5"/>
<ellipse transform="matrix(0.9867 -0.1624 0.1624 0.9867 -22.8151 66.2779)" class="st2" cx="394" cy="172.7" rx="3.2" ry="3.5"/>
<ellipse transform="matrix(0.9867 -0.1624 0.1624 0.9867 -23.0645 65.0559)" class="st2" cx="386.4" cy="173.6" rx="3.2" ry="3.5"/>
<ellipse transform="matrix(0.9867 -0.1624 0.1624 0.9867 -23.3213 63.8835)" class="st2" cx="379.1" cy="174.6" rx="3.2" ry="3.5"/>
<ellipse transform="matrix(0.9867 -0.1624 0.1624 0.9867 -23.7164 70.0792)" class="st2" cx="416.8" cy="180.1" rx="3.2" ry="3.5"/>
<ellipse transform="matrix(0.9867 -0.1624 0.1624 0.9867 -23.4709 71.2854)" class="st2" cx="424.3" cy="179.2" rx="3.2" ry="3.5"/>
<ellipse transform="matrix(0.9867 -0.1624 0.1624 0.9867 -23.9786 68.8745)" class="st2" cx="409.3" cy="181.1" rx="3.2" ry="3.5"/>
<ellipse transform="matrix(0.9867 -0.1624 0.1624 0.9867 -24.2227 67.6849)" class="st2" cx="401.9" cy="182" rx="3.2" ry="3.5"/>
<ellipse transform="matrix(0.9867 -0.1624 0.1624 0.9867 -24.4849 66.4802)" class="st2" cx="394.4" cy="183" rx="3.2" ry="3.5"/>
<ellipse transform="matrix(0.9867 -0.1624 0.1624 0.9867 -24.7431 65.2912)" class="st2" cx="387" cy="184" rx="3.2" ry="3.5"/>
<ellipse transform="matrix(0.9867 -0.1624 0.1624 0.9867 -24.9926 64.0692)" class="st2" cx="379.4" cy="184.9" rx="3.2" ry="3.5"/>
<ellipse transform="matrix(0.9867 -0.1624 0.1624 0.9867 -25.3813 70.3135)" class="st2" cx="417.4" cy="190.4" rx="3.2" ry="3.5"/>
<ellipse transform="matrix(0.9867 -0.1624 0.1624 0.9867 -25.1318 71.5355)" class="st2" cx="425" cy="189.5" rx="3.2" ry="3.5"/>
<ellipse transform="matrix(0.9867 -0.1624 0.1624 0.9867 -25.6395 69.1246)" class="st2" cx="410" cy="191.4" rx="3.2" ry="3.5"/>
<ellipse transform="matrix(0.9867 -0.1624 0.1624 0.9867 -25.889 67.9026)" class="st2" cx="402.4" cy="192.3" rx="3.2" ry="3.5"/>
<ellipse transform="matrix(0.9867 -0.1624 0.1624 0.9867 -26.1497 66.7144)" class="st2" cx="395" cy="193.3" rx="3.2" ry="3.5"/>
<ellipse transform="matrix(0.9867 -0.1624 0.1624 0.9867 -26.3952 65.5082)" class="st2" cx="387.5" cy="194.2" rx="3.2" ry="3.5"/>
<ellipse transform="matrix(0.9867 -0.1624 0.1624 0.9867 -26.6574 64.3035)" class="st2" cx="380" cy="195.2" rx="3.2" ry="3.5"/>
<ellipse transform="matrix(0.9867 -0.1624 0.1624 0.9867 -27.0626 70.5161)" class="st2" cx="417.8" cy="200.8" rx="3.2" ry="3.5"/>
<ellipse transform="matrix(0.9867 -0.1624 0.1624 0.9867 -26.8043 71.7051)" class="st2" cx="425.2" cy="199.8" rx="3.2" ry="3.5"/>
<ellipse transform="matrix(0.9867 -0.1624 0.1624 0.9867 -27.312 69.2941)" class="st2" cx="410.2" cy="201.7" rx="3.2" ry="3.5"/>
<ellipse transform="matrix(0.9867 -0.1624 0.1624 0.9867 -27.5689 68.1218)" class="st2" cx="402.9" cy="202.7" rx="3.2" ry="3.5"/>
<ellipse transform="matrix(0.9867 -0.1624 0.1624 0.9867 -27.8183 66.8998)" class="st2" cx="395.3" cy="203.6" rx="3.2" ry="3.5"/>
<ellipse transform="matrix(0.9867 -0.1624 0.1624 0.9867 -28.0765 65.7108)" class="st2" cx="387.9" cy="204.6" rx="3.2" ry="3.5"/>
<ellipse transform="matrix(0.9867 -0.1624 0.1624 0.9867 -28.326 64.4888)" class="st2" cx="380.3" cy="205.5" rx="3.2" ry="3.5"/>
<ellipse transform="matrix(0.9867 -0.1624 0.1624 0.9867 -28.7449 70.7354)" class="st2" cx="418.3" cy="211.2" rx="3.2" ry="3.5"/>
<ellipse transform="matrix(0.9867 -0.1624 0.1624 0.9867 -28.4867 71.9244)" class="st2" cx="425.7" cy="210.2" rx="3.2" ry="3.5"/>
<ellipse transform="matrix(0.9867 -0.1624 0.1624 0.9867 -28.9944 69.5134)" class="st2" cx="410.7" cy="212.1" rx="3.2" ry="3.5"/>
<ellipse transform="matrix(0.9867 -0.1624 0.1624 0.9867 -29.2526 68.3244)" class="st2" cx="403.3" cy="213.1" rx="3.2" ry="3.5"/>
<ellipse transform="matrix(0.9867 -0.1624 0.1624 0.9867 -29.5006 67.1191)" class="st2" cx="395.8" cy="214" rx="3.2" ry="3.5"/>
<ellipse transform="matrix(0.9867 -0.1624 0.1624 0.9867 -29.7589 65.9301)" class="st2" cx="388.4" cy="215" rx="3.2" ry="3.5"/>
<ellipse transform="matrix(0.9867 -0.1624 0.1624 0.9867 -30.0083 64.7081)" class="st2" cx="380.8" cy="215.9" rx="3.2" ry="3.5"/>
<ellipse transform="matrix(0.9867 -0.1624 0.1624 0.9867 -30.4323 70.9228)" class="st2" cx="418.6" cy="221.6" rx="3.2" ry="3.5"/>
<ellipse transform="matrix(0.9867 -0.1624 0.1624 0.9867 -30.6778 69.7166)" class="st2" cx="411.1" cy="222.5" rx="3.2" ry="3.5"/>
<ellipse transform="matrix(0.9867 -0.1624 0.1624 0.9867 -30.94 68.5118)" class="st2" cx="403.6" cy="223.5" rx="3.2" ry="3.5"/>
<ellipse transform="matrix(0.9867 -0.1624 0.1624 0.9867 -31.1982 67.3229)" class="st2" cx="396.2" cy="224.5" rx="3.2" ry="3.5"/>
<ellipse transform="matrix(0.9867 -0.1624 0.1624 0.9867 -31.4477 66.1009)" class="st2" cx="388.6" cy="225.4" rx="3.2" ry="3.5"/>
<ellipse transform="matrix(0.9867 -0.1624 0.1624 0.9867 -31.7045 64.9285)" class="st2" cx="381.3" cy="226.4" rx="3.2" ry="3.5"/>
<path class="st3" d="M422.4,226.7"/>
<path class="st3" d="M439,226.7"/>
<path class="st3" d="M444.9,226.7"/>
<path class="st3" d="M447.5,226.7"/>
<path class="st3" d="M448,226.7"/>
<path class="st3" d="M448.1,226.7"/>
<path class="st3" d="M410.3,108.1"/>
<ellipse transform="matrix(0.9867 -0.1624 0.1624 0.9867 -11.7895 69.7909)" class="st2" cx="421" cy="107" rx="3.2" ry="3.5"/>
<ellipse transform="matrix(0.9867 -0.1624 0.1624 0.9867 -13.3304 70.309)" class="st2" cx="423.4" cy="116.7" rx="3.2" ry="3.5"/>
<ellipse transform="matrix(0.9867 -0.1624 0.1624 0.9867 -13.0721 71.4979)" class="st2" cx="430.8" cy="115.7" rx="3.2" ry="3.5"/>
<ellipse transform="matrix(0.9867 -0.1624 0.1624 0.9867 -14.7104 72.057)" class="st2" cx="433.4" cy="126" rx="3.2" ry="3.5"/>
<ellipse transform="matrix(0.9867 -0.1624 0.1624 0.9867 -14.9686 70.868)" class="st2" cx="426" cy="127" rx="3.2" ry="3.5"/>
<ellipse transform="matrix(0.9867 -0.1624 0.1624 0.9867 -16.5861 71.3111)" class="st2" cx="427.9" cy="137.1" rx="3.2" ry="3.5"/>
<ellipse transform="matrix(0.9867 -0.1624 0.1624 0.9867 -16.3239 72.5158)" class="st2" cx="435.4" cy="136.1" rx="3.2" ry="3.5"/>
<ellipse transform="matrix(0.9867 -0.1624 0.1624 0.9867 -18.2103 71.6399)" class="st2" cx="429.1" cy="147.2" rx="3.2" ry="3.5"/>
<ellipse transform="matrix(0.9867 -0.1624 0.1624 0.9867 -17.9609 72.862)" class="st2" cx="436.7" cy="146.3" rx="3.2" ry="3.5"/>
<ellipse transform="matrix(0.9867 -0.1624 0.1624 0.9867 -19.8684 71.9554)" class="st2" cx="430.2" cy="157.5" rx="3.2" ry="3.5"/>
<ellipse transform="matrix(0.9867 -0.1624 0.1624 0.9867 -19.6189 73.1774)" class="st2" cx="437.8" cy="156.6" rx="3.2" ry="3.5"/>
<ellipse transform="matrix(0.9867 -0.1624 0.1624 0.9867 -21.5048 72.3346)" class="st2" cx="431.7" cy="167.7" rx="3.2" ry="3.5"/>
<ellipse transform="matrix(0.9867 -0.1624 0.1624 0.9867 -21.2568 73.54)" class="st2" cx="439.2" cy="166.8" rx="3.2" ry="3.5"/>
<ellipse transform="matrix(0.9867 -0.1624 0.1624 0.9867 -23.1914 72.5049)" class="st2" cx="431.9" cy="178.1" rx="3.2" ry="3.5"/>
<ellipse transform="matrix(0.9867 -0.1624 0.1624 0.9867 -22.9292 73.7097)" class="st2" cx="439.4" cy="177.1" rx="3.2" ry="3.5"/>
<ellipse transform="matrix(0.9867 -0.1624 0.1624 0.9867 -24.8712 72.7237)" class="st2" cx="432.4" cy="188.5" rx="3.2" ry="3.5"/>
<ellipse transform="matrix(0.9867 -0.1624 0.1624 0.9867 -24.613 73.9127)" class="st2" cx="439.8" cy="187.5" rx="3.2" ry="3.5"/>
<ellipse transform="matrix(0.9867 -0.1624 0.1624 0.9867 -26.5612 72.8785)" class="st2" cx="432.5" cy="198.9" rx="3.2" ry="3.5"/>
<ellipse transform="matrix(0.9867 -0.1624 0.1624 0.9867 -34.002 70.0534)" class="st2" cx="411.5" cy="243" rx="3.2" ry="3.5"/>
<ellipse transform="matrix(0.9867 -0.1624 0.1624 0.9867 -33.7398 71.2582)" class="st2" cx="419" cy="242" rx="3.2" ry="3.5"/>
<ellipse transform="matrix(0.9867 -0.1624 0.1624 0.9867 -34.2461 68.864)" class="st2" cx="404.1" cy="243.9" rx="3.2" ry="3.5"/>
<ellipse transform="matrix(0.9867 -0.1624 0.1624 0.9867 -34.5083 67.6592)" class="st2" cx="396.6" cy="244.9" rx="3.2" ry="3.5"/>
<ellipse transform="matrix(0.9867 -0.1624 0.1624 0.9867 -34.7665 66.4702)" class="st2" cx="389.2" cy="245.9" rx="3.2" ry="3.5"/>
<ellipse transform="matrix(0.9867 -0.1624 0.1624 0.9867 -35.0159 65.2481)" class="st2" cx="381.6" cy="246.8" rx="3.2" ry="3.5"/>
<ellipse transform="matrix(0.9867 -0.1624 0.1624 0.9867 -35.2742 64.0592)" class="st2" cx="374.2" cy="247.8" rx="3.2" ry="3.5"/>
<ellipse transform="matrix(0.9867 -0.1624 0.1624 0.9867 -33.4778 72.4631)" class="st2" cx="426.5" cy="241" rx="3.2" ry="3.5"/>
<ellipse transform="matrix(0.9867 -0.1624 0.1624 0.9867 -33.2323 73.6694)" class="st2" cx="434" cy="240.1" rx="3.2" ry="3.5"/>
<ellipse transform="matrix(0.9867 -0.1624 0.1624 0.9867 -35.6909 70.1915)" class="st2" cx="411.5" cy="253.4" rx="3.2" ry="3.5"/>
<ellipse transform="matrix(0.9867 -0.1624 0.1624 0.9867 -35.4288 71.3962)" class="st2" cx="419" cy="252.4" rx="3.2" ry="3.5"/>
<ellipse transform="matrix(0.9867 -0.1624 0.1624 0.9867 -35.9365 68.9853)" class="st2" cx="404" cy="254.3" rx="3.2" ry="3.5"/>
<ellipse transform="matrix(0.9867 -0.1624 0.1624 0.9867 -36.1972 67.7972)" class="st2" cx="396.6" cy="255.3" rx="3.2" ry="3.5"/>
<ellipse transform="matrix(0.9867 -0.1624 0.1624 0.9867 -36.4427 66.591)" class="st2" cx="389.1" cy="256.2" rx="3.2" ry="3.5"/>
<ellipse transform="matrix(0.9867 -0.1624 0.1624 0.9867 -36.7049 65.3862)" class="st2" cx="381.6" cy="257.2" rx="3.2" ry="3.5"/>
<ellipse transform="matrix(0.9867 -0.1624 0.1624 0.9867 -36.9631 64.1972)" class="st2" cx="374.2" cy="258.2" rx="3.2" ry="3.5"/>
<ellipse transform="matrix(0.9867 -0.1624 0.1624 0.9867 -35.1668 72.6011)" class="st2" cx="426.5" cy="251.4" rx="3.2" ry="3.5"/>
<ellipse transform="matrix(0.9867 -0.1624 0.1624 0.9867 -34.9213 73.8073)" class="st2" cx="434" cy="250.5" rx="3.2" ry="3.5"/>
<ellipse transform="matrix(0.9867 -0.1624 0.1624 0.9867 -37.3799 70.3295)" class="st2" cx="411.5" cy="263.8" rx="3.2" ry="3.5"/>
<ellipse transform="matrix(0.9867 -0.1624 0.1624 0.9867 -37.1178 71.5343)" class="st2" cx="419" cy="262.8" rx="3.2" ry="3.5"/>
<ellipse transform="matrix(0.9867 -0.1624 0.1624 0.9867 -37.624 69.14)" class="st2" cx="404.1" cy="264.7" rx="3.2" ry="3.5"/>
<ellipse transform="matrix(0.9867 -0.1624 0.1624 0.9867 -37.8862 67.9352)" class="st2" cx="396.6" cy="265.7" rx="3.2" ry="3.5"/>
<ellipse transform="matrix(0.9867 -0.1624 0.1624 0.9867 -38.1317 66.729)" class="st2" cx="389.1" cy="266.6" rx="3.2" ry="3.5"/>
<ellipse transform="matrix(0.9867 -0.1624 0.1624 0.9867 -38.3939 65.5243)" class="st2" cx="381.6" cy="267.6" rx="3.2" ry="3.5"/>
<ellipse transform="matrix(0.9867 -0.1624 0.1624 0.9867 -38.6394 64.318)" class="st2" cx="374.1" cy="268.5" rx="3.2" ry="3.5"/>
<ellipse transform="matrix(0.9867 -0.1624 0.1624 0.9867 -36.8558 72.7391)" class="st2" cx="426.5" cy="261.8" rx="3.2" ry="3.5"/>
<ellipse transform="matrix(0.9867 -0.1624 0.1624 0.9867 -36.6103 73.9454)" class="st2" cx="434" cy="260.9" rx="3.2" ry="3.5"/>
<ellipse class="st3" cx="400.4" cy="321.7" rx="3.2" ry="3.5"/>
<ellipse class="st3" cx="392.7" cy="321.7" rx="3.2" ry="3.5"/>
<ellipse class="st3" cx="385.1" cy="321.7" rx="3.2" ry="3.5"/>
<ellipse class="st3" cx="377.4" cy="321.7" rx="3.2" ry="3.5"/>
<ellipse class="st3" cx="369.8" cy="321.7" rx="3.2" ry="3.5"/>
<ellipse class="st3" cx="415.7" cy="321.7" rx="3.2" ry="3.5"/>
<ellipse class="st3" cx="408.1" cy="321.7" rx="3.2" ry="3.5"/>
<ellipse class="st3" cx="400.4" cy="332.1" rx="3.2" ry="3.5"/>
<ellipse class="st3" cx="392.7" cy="332.1" rx="3.2" ry="3.5"/>
<ellipse class="st3" cx="385.1" cy="332.1" rx="3.2" ry="3.5"/>
<ellipse class="st3" cx="377.4" cy="332.1" rx="3.2" ry="3.5"/>
<ellipse class="st3" cx="369.8" cy="332.1" rx="3.2" ry="3.5"/>
<ellipse class="st3" cx="415.7" cy="332.1" rx="3.2" ry="3.5"/>
<ellipse class="st3" cx="408.1" cy="332.1" rx="3.2" ry="3.5"/>
<ellipse class="st3" cx="400.4" cy="342.5" rx="3.2" ry="3.5"/>
<ellipse class="st3" cx="392.7" cy="342.5" rx="3.2" ry="3.5"/>
<ellipse class="st3" cx="385.1" cy="342.5" rx="3.2" ry="3.5"/>
<ellipse class="st3" cx="377.4" cy="342.5" rx="3.2" ry="3.5"/>
<ellipse class="st3" cx="369.8" cy="342.5" rx="3.2" ry="3.5"/>
<ellipse class="st3" cx="415.7" cy="342.5" rx="3.2" ry="3.5"/>
<ellipse class="st3" cx="408.1" cy="342.5" rx="3.2" ry="3.5"/>
<ellipse class="st3" cx="400.4" cy="352.9" rx="3.2" ry="3.5"/>
<ellipse class="st3" cx="392.7" cy="352.9" rx="3.2" ry="3.5"/>
<ellipse class="st3" cx="385.1" cy="352.9" rx="3.2" ry="3.5"/>
<ellipse class="st3" cx="377.4" cy="352.9" rx="3.2" ry="3.5"/>
<ellipse class="st3" cx="369.8" cy="352.9" rx="3.2" ry="3.5"/>
<ellipse class="st3" cx="415.7" cy="352.9" rx="3.2" ry="3.5"/>
<ellipse class="st3" cx="408.1" cy="352.9" rx="3.2" ry="3.5"/>
<g>
	<line class="st4" x1="436.1" y1="323.2" x2="423.5" y2="323.2"/>
	<line class="st4" x1="436.1" y1="327.2" x2="423.5" y2="327.2"/>
	<line class="st4" x1="436.1" y1="331.3" x2="423.5" y2="331.3"/>
	<line class="st4" x1="436.1" y1="335.3" x2="423.5" y2="335.3"/>
	<line class="st4" x1="436.1" y1="339.4" x2="423.5" y2="339.4"/>
	<line class="st4" x1="436.1" y1="343.4" x2="423.5" y2="343.4"/>
	<line class="st4" x1="436.1" y1="347.5" x2="423.5" y2="347.5"/>
	<polyline class="st4" points="425,351.5 423.5,351.5 423.5,320.4 	"/>
	<line class="st4" x1="434.5" y1="351.5" x2="425" y2="351.5"/>
	<line class="st4" x1="435.1" y1="351.5" x2="434.5" y2="351.5"/>
	<path class="st4" d="M436.1,320.4c0,0,0,28.9,0,31h-1"/>
	<path class="st4" d="M423.5,320.4"/>
	<path class="st4" d="M436.1,320.4"/>
</g>
<ellipse transform="matrix(0.1624 -0.9867 0.9867 0.1624 103.82 331.7874)" class="st2" cx="247.3" cy="104.7" rx="3.5" ry="3.2"/>
<ellipse transform="matrix(0.1624 -0.9867 0.9867 0.1624 115.6136 347.5173)" class="st2" cx="262.5" cy="105.7" rx="3.5" ry="3.2"/>
<ellipse transform="matrix(0.1624 -0.9867 0.9867 0.1624 121.7247 355.2468)" class="st2" cx="270.1" cy="105.9" rx="3.5" ry="3.2"/>
<ellipse transform="matrix(0.1624 -0.9867 0.9867 0.1624 133.9292 370.704)" class="st2" cx="285.3" cy="106.5" rx="3.5" ry="3.2"/>
<ellipse transform="matrix(0.1624 -0.9867 0.9867 0.1624 159.2669 400.6261)" class="st2" cx="315.6" cy="106.5" rx="3.5" ry="3.2"/>
<ellipse transform="matrix(0.1624 -0.9867 0.9867 0.1624 172.6627 415.0613)" class="st2" cx="330.8" cy="105.8" rx="3.5" ry="3.2"/>
<ellipse transform="matrix(0.1624 -0.9867 0.9867 0.1624 109.8252 339.5951)" class="st2" cx="254.9" cy="105.1" rx="3.5" ry="3.2"/>
<ellipse transform="matrix(0.1624 -0.9867 0.9867 0.1624 127.7764 362.8794)" class="st2" cx="277.6" cy="106.2" rx="3.5" ry="3.2"/>
<ellipse transform="matrix(0.1624 -0.9867 0.9867 0.1624 140.2663 378.0672)" class="st2" cx="292.8" cy="106.4" rx="3.5" ry="3.2"/>
<ellipse transform="matrix(0.1624 -0.9867 0.9867 0.1624 146.467 385.6651)" class="st2" cx="300.4" cy="106.6" rx="3.5" ry="3.2"/>
<ellipse transform="matrix(0.1624 -0.9867 0.9867 0.1624 152.8707 393.1394)" class="st2" cx="308" cy="106.5" rx="3.5" ry="3.2"/>
<ellipse transform="matrix(0.1624 -0.9867 0.9867 0.1624 166.0697 407.7662)" class="st2" cx="323.2" cy="106.1" rx="3.5" ry="3.2"/>
<ellipse transform="matrix(0.1624 -0.9867 0.9867 0.1624 93.5602 340.508)" class="st2" cx="247.3" cy="115.1" rx="3.5" ry="3.2"/>
<ellipse transform="matrix(0.1624 -0.9867 0.9867 0.1624 105.3542 356.2379)" class="st2" cx="262.5" cy="116.1" rx="3.5" ry="3.2"/>
<ellipse transform="matrix(0.1624 -0.9867 0.9867 0.1624 111.3986 363.8567)" class="st2" cx="270" cy="116.3" rx="3.5" ry="3.2"/>
<ellipse transform="matrix(0.1624 -0.9867 0.9867 0.1624 123.5585 379.2312)" class="st2" cx="285.2" cy="116.8" rx="3.5" ry="3.2"/>
<ellipse transform="matrix(0.1624 -0.9867 0.9867 0.1624 148.9627 409.2642)" class="st2" cx="315.5" cy="116.9" rx="3.5" ry="3.2"/>
<ellipse transform="matrix(0.1624 -0.9867 0.9867 0.1624 162.3368 423.6713)" class="st2" cx="330.7" cy="116.2" rx="3.5" ry="3.2"/>
<ellipse transform="matrix(0.1624 -0.9867 0.9867 0.1624 99.5781 348.3253)" class="st2" cx="255" cy="115.5" rx="3.5" ry="3.2"/>
<ellipse transform="matrix(0.1624 -0.9867 0.9867 0.1624 117.5295 371.6097)" class="st2" cx="277.7" cy="116.6" rx="3.5" ry="3.2"/>
<ellipse transform="matrix(0.1624 -0.9867 0.9867 0.1624 129.9623 386.7055)" class="st2" cx="292.8" cy="116.8" rx="3.5" ry="3.2"/>
<ellipse transform="matrix(0.1624 -0.9867 0.9867 0.1624 136.1629 394.3035)" class="st2" cx="300.3" cy="116.9" rx="3.5" ry="3.2"/>
<ellipse transform="matrix(0.1624 -0.9867 0.9867 0.1624 142.5666 401.7777)" class="st2" cx="307.9" cy="116.9" rx="3.5" ry="3.2"/>
<ellipse transform="matrix(0.1624 -0.9867 0.9867 0.1624 155.8103 416.4872)" class="st2" cx="323.2" cy="116.5" rx="3.5" ry="3.2"/>
<ellipse transform="matrix(0.1624 -0.9867 0.9867 0.1624 77.4959 341.2484)" class="st2" cx="239.8" cy="125" rx="3.5" ry="3.2"/>
<ellipse transform="matrix(0.1624 -0.9867 0.9867 0.1624 83.4243 349.1718)" class="st2" cx="247.4" cy="125.4" rx="3.5" ry="3.2"/>
<ellipse transform="matrix(0.1624 -0.9867 0.9867 0.1624 95.1607 364.8097)" class="st2" cx="262.5" cy="126.4" rx="3.5" ry="3.2"/>
<ellipse transform="matrix(0.1624 -0.9867 0.9867 0.1624 101.1514 372.587)" class="st2" cx="270" cy="126.7" rx="3.5" ry="3.2"/>
<ellipse transform="matrix(0.1624 -0.9867 0.9867 0.1624 113.2991 387.9521)" class="st2" cx="285.2" cy="127.2" rx="3.5" ry="3.2"/>
<ellipse transform="matrix(0.1624 -0.9867 0.9867 0.1624 138.7034 417.9852)" class="st2" cx="315.6" cy="127.3" rx="3.5" ry="3.2"/>
<ellipse transform="matrix(0.1624 -0.9867 0.9867 0.1624 152.0327 432.3096)" class="st2" cx="330.7" cy="126.6" rx="3.5" ry="3.2"/>
<ellipse transform="matrix(0.1624 -0.9867 0.9867 0.1624 158.937 439.4026)" class="st2" cx="338.3" cy="126.1" rx="3.5" ry="3.2"/>
<ellipse transform="matrix(0.1624 -0.9867 0.9867 0.1624 89.3184 357.0462)" class="st2" cx="255" cy="125.9" rx="3.5" ry="3.2"/>
<ellipse transform="matrix(0.1624 -0.9867 0.9867 0.1624 107.2699 380.3307)" class="st2" cx="277.7" cy="127" rx="3.5" ry="3.2"/>
<ellipse transform="matrix(0.1624 -0.9867 0.9867 0.1624 119.7028 395.4263)" class="st2" cx="292.8" cy="127.2" rx="3.5" ry="3.2"/>
<ellipse transform="matrix(0.1624 -0.9867 0.9867 0.1624 125.9036 403.0246)" class="st2" cx="300.3" cy="127.4" rx="3.5" ry="3.2"/>
<ellipse transform="matrix(0.1624 -0.9867 0.9867 0.1624 132.3074 410.4986)" class="st2" cx="307.9" cy="127.3" rx="3.5" ry="3.2"/>
<ellipse transform="matrix(0.1624 -0.9867 0.9867 0.1624 145.4397 425.0145)" class="st2" cx="323.1" cy="126.8" rx="3.5" ry="3.2"/>
<ellipse transform="matrix(0.1624 -0.9867 0.9867 0.1624 67.2362 349.9691)" class="st2" cx="239.8" cy="135.4" rx="3.5" ry="3.2"/>
<ellipse transform="matrix(0.1624 -0.9867 0.9867 0.1624 73.1646 357.8926)" class="st2" cx="247.4" cy="135.9" rx="3.5" ry="3.2"/>
<ellipse transform="matrix(0.1624 -0.9867 0.9867 0.1624 84.9011 373.5305)" class="st2" cx="262.5" cy="136.8" rx="3.5" ry="3.2"/>
<ellipse transform="matrix(0.1624 -0.9867 0.9867 0.1624 90.892 381.3078)" class="st2" cx="270" cy="137.1" rx="3.5" ry="3.2"/>
<ellipse transform="matrix(0.1624 -0.9867 0.9867 0.1624 103.0525 396.6825)" class="st2" cx="285.2" cy="137.6" rx="3.5" ry="3.2"/>
<ellipse transform="matrix(0.1624 -0.9867 0.9867 0.1624 128.39 426.6046)" class="st2" cx="315.5" cy="137.7" rx="3.5" ry="3.2"/>
<ellipse transform="matrix(0.1624 -0.9867 0.9867 0.1624 141.7733 441.0303)" class="st2" cx="330.7" cy="137" rx="3.5" ry="3.2"/>
<ellipse transform="matrix(0.1624 -0.9867 0.9867 0.1624 148.6777 448.1234)" class="st2" cx="338.3" cy="136.5" rx="3.5" ry="3.2"/>
<ellipse transform="matrix(0.1624 -0.9867 0.9867 0.1624 79.0716 365.7765)" class="st2" cx="255" cy="136.3" rx="3.5" ry="3.2"/>
<ellipse transform="matrix(0.1624 -0.9867 0.9867 0.1624 97.0232 389.061)" class="st2" cx="277.7" cy="137.4" rx="3.5" ry="3.2"/>
<ellipse transform="matrix(0.1624 -0.9867 0.9867 0.1624 109.4561 404.1566)" class="st2" cx="292.8" cy="137.6" rx="3.5" ry="3.2"/>
<ellipse transform="matrix(0.1624 -0.9867 0.9867 0.1624 115.7677 411.6881)" class="st2" cx="300.4" cy="137.7" rx="3.5" ry="3.2"/>
<ellipse transform="matrix(0.1624 -0.9867 0.9867 0.1624 122.0605 419.2289)" class="st2" cx="308" cy="137.7" rx="3.5" ry="3.2"/>
<ellipse transform="matrix(0.1624 -0.9867 0.9867 0.1624 135.1802 433.7353)" class="st2" cx="323.1" cy="137.2" rx="3.5" ry="3.2"/>
<ellipse transform="matrix(0.1624 -0.9867 0.9867 0.1624 56.9892 358.6995)" class="st2" cx="239.8" cy="145.8" rx="3.5" ry="3.2"/>
<ellipse transform="matrix(0.1624 -0.9867 0.9867 0.1624 62.9176 366.623)" class="st2" cx="247.4" cy="146.3" rx="3.5" ry="3.2"/>
<ellipse transform="matrix(0.1624 -0.9867 0.9867 0.1624 74.6528 382.2619)" class="st2" cx="262.5" cy="147.2" rx="3.5" ry="3.2"/>
<ellipse transform="matrix(0.1624 -0.9867 0.9867 0.1624 80.6436 390.0393)" class="st2" cx="270.1" cy="147.5" rx="3.5" ry="3.2"/>
<ellipse transform="matrix(0.1624 -0.9867 0.9867 0.1624 92.793 405.4033)" class="st2" cx="285.2" cy="148" rx="3.5" ry="3.2"/>
<ellipse transform="matrix(0.1624 -0.9867 0.9867 0.1624 118.1306 435.3255)" class="st2" cx="315.5" cy="148.1" rx="3.5" ry="3.2"/>
<ellipse transform="matrix(0.1624 -0.9867 0.9867 0.1624 131.5268 449.7608)" class="st2" cx="330.7" cy="147.4" rx="3.5" ry="3.2"/>
<ellipse transform="matrix(0.1624 -0.9867 0.9867 0.1624 138.4309 456.854)" class="st2" cx="338.3" cy="146.9" rx="3.5" ry="3.2"/>
<ellipse transform="matrix(0.1624 -0.9867 0.9867 0.1624 68.8563 374.3195)" class="st2" cx="254.9" cy="146.6" rx="3.5" ry="3.2"/>
<ellipse transform="matrix(0.1624 -0.9867 0.9867 0.1624 86.7623 397.7832)" class="st2" cx="277.7" cy="147.8" rx="3.5" ry="3.2"/>
<ellipse transform="matrix(0.1624 -0.9867 0.9867 0.1624 99.1967 412.8776)" class="st2" cx="292.8" cy="148" rx="3.5" ry="3.2"/>
<ellipse transform="matrix(0.1624 -0.9867 0.9867 0.1624 105.5084 420.4091)" class="st2" cx="300.4" cy="148.1" rx="3.5" ry="3.2"/>
<ellipse transform="matrix(0.1624 -0.9867 0.9867 0.1624 111.801 427.9499)" class="st2" cx="308" cy="148.1" rx="3.5" ry="3.2"/>
<ellipse transform="matrix(0.1624 -0.9867 0.9867 0.1624 124.932 442.4674)" class="st2" cx="323.1" cy="147.6" rx="3.5" ry="3.2"/>
<ellipse transform="matrix(0.1624 -0.9867 0.9867 0.1624 46.7279 367.4215)" class="st2" cx="239.8" cy="156.2" rx="3.5" ry="3.2"/>
<ellipse transform="matrix(0.1624 -0.9867 0.9867 0.1624 52.6563 375.345)" class="st2" cx="247.4" cy="156.7" rx="3.5" ry="3.2"/>
<ellipse transform="matrix(0.1624 -0.9867 0.9867 0.1624 64.3927 390.9829)" class="st2" cx="262.5" cy="157.6" rx="3.5" ry="3.2"/>
<ellipse transform="matrix(0.1624 -0.9867 0.9867 0.1624 70.3834 398.7603)" class="st2" cx="270.1" cy="157.9" rx="3.5" ry="3.2"/>
<ellipse transform="matrix(0.1624 -0.9867 0.9867 0.1624 82.5442 414.1353)" class="st2" cx="285.2" cy="158.4" rx="3.5" ry="3.2"/>
<ellipse transform="matrix(0.1624 -0.9867 0.9867 0.1624 107.8819 444.058)" class="st2" cx="315.5" cy="158.5" rx="3.5" ry="3.2"/>
<ellipse transform="matrix(0.1624 -0.9867 0.9867 0.1624 121.2652 458.4839)" class="st2" cx="330.7" cy="157.8" rx="3.5" ry="3.2"/>
<ellipse transform="matrix(0.1624 -0.9867 0.9867 0.1624 128.1694 465.577)" class="st2" cx="338.3" cy="157.3" rx="3.5" ry="3.2"/>
<ellipse transform="matrix(0.1624 -0.9867 0.9867 0.1624 58.5949 383.0419)" class="st2" cx="254.9" cy="157" rx="3.5" ry="3.2"/>
<ellipse transform="matrix(0.1624 -0.9867 0.9867 0.1624 76.5022 406.5043)" class="st2" cx="277.7" cy="158.2" rx="3.5" ry="3.2"/>
<ellipse transform="matrix(0.1624 -0.9867 0.9867 0.1624 88.948 421.6098)" class="st2" cx="292.8" cy="158.4" rx="3.5" ry="3.2"/>
<ellipse transform="matrix(0.1624 -0.9867 0.9867 0.1624 95.2595 429.1415)" class="st2" cx="300.4" cy="158.5" rx="3.5" ry="3.2"/>
<ellipse transform="matrix(0.1624 -0.9867 0.9867 0.1624 101.6632 436.6156)" class="st2" cx="308" cy="158.4" rx="3.5" ry="3.2"/>
<ellipse transform="matrix(0.1624 -0.9867 0.9867 0.1624 114.672 451.1889)" class="st2" cx="323.1" cy="158.1" rx="3.5" ry="3.2"/>
<ellipse transform="matrix(0.1624 -0.9867 0.9867 0.1624 31.0228 367.757)" class="st2" cx="232.1" cy="165.6" rx="3.5" ry="3.2"/>
<ellipse transform="matrix(0.1624 -0.9867 0.9867 0.1624 36.4807 376.1516)" class="st2" cx="239.8" cy="166.6" rx="3.5" ry="3.2"/>
<ellipse transform="matrix(0.1624 -0.9867 0.9867 0.1624 42.2852 383.8723)" class="st2" cx="247.3" cy="167" rx="3.5" ry="3.2"/>
<ellipse transform="matrix(0.1624 -0.9867 0.9867 0.1624 54.1455 399.7133)" class="st2" cx="262.5" cy="168" rx="3.5" ry="3.2"/>
<ellipse transform="matrix(0.1624 -0.9867 0.9867 0.1624 60.1237 407.4812)" class="st2" cx="270.1" cy="168.3" rx="3.5" ry="3.2"/>
<ellipse transform="matrix(0.1624 -0.9867 0.9867 0.1624 72.2848 422.8564)" class="st2" cx="285.2" cy="168.9" rx="3.5" ry="3.2"/>
<ellipse transform="matrix(0.1624 -0.9867 0.9867 0.1624 97.7333 452.712)" class="st2" cx="315.5" cy="168.8" rx="3.5" ry="3.2"/>
<ellipse transform="matrix(0.1624 -0.9867 0.9867 0.1624 111.0182 467.2142)" class="st2" cx="330.7" cy="168.2" rx="3.5" ry="3.2"/>
<ellipse transform="matrix(0.1624 -0.9867 0.9867 0.1624 117.9224 474.3075)" class="st2" cx="338.3" cy="167.7" rx="3.5" ry="3.2"/>
<ellipse transform="matrix(0.1624 -0.9867 0.9867 0.1624 124.8714 481.1768)" class="st2" cx="345.9" cy="167" rx="3.5" ry="3.2"/>
<ellipse transform="matrix(0.1624 -0.9867 0.9867 0.1624 48.3476 391.7721)" class="st2" cx="254.9" cy="167.4" rx="3.5" ry="3.2"/>
<ellipse transform="matrix(0.1624 -0.9867 0.9867 0.1624 66.2553 415.2347)" class="st2" cx="277.7" cy="168.6" rx="3.5" ry="3.2"/>
<ellipse transform="matrix(0.1624 -0.9867 0.9867 0.1624 78.6884 430.3305)" class="st2" cx="292.8" cy="168.8" rx="3.5" ry="3.2"/>
<ellipse transform="matrix(0.1624 -0.9867 0.9867 0.1624 85.092 437.8048)" class="st2" cx="300.4" cy="168.8" rx="3.5" ry="3.2"/>
<ellipse transform="matrix(0.1624 -0.9867 0.9867 0.1624 91.337 445.2255)" class="st2" cx="307.9" cy="168.8" rx="3.5" ry="3.2"/>
<ellipse transform="matrix(0.1624 -0.9867 0.9867 0.1624 104.4125 459.9094)" class="st2" cx="323.1" cy="168.5" rx="3.5" ry="3.2"/>
<ellipse transform="matrix(0.1624 -0.9867 0.9867 0.1624 20.7756 376.4873)" class="st2" cx="232.1" cy="176" rx="3.5" ry="3.2"/>
<ellipse transform="matrix(0.1624 -0.9867 0.9867 0.1624 26.221 384.8725)" class="st2" cx="239.8" cy="177" rx="3.5" ry="3.2"/>
<ellipse transform="matrix(0.1624 -0.9867 0.9867 0.1624 32.0255 392.593)" class="st2" cx="247.3" cy="177.4" rx="3.5" ry="3.2"/>
<ellipse transform="matrix(0.1624 -0.9867 0.9867 0.1624 43.9778 408.3767)" class="st2" cx="262.5" cy="178.3" rx="3.5" ry="3.2"/>
<ellipse transform="matrix(0.1624 -0.9867 0.9867 0.1624 49.8766 416.2114)" class="st2" cx="270.1" cy="178.7" rx="3.5" ry="3.2"/>
<ellipse transform="matrix(0.1624 -0.9867 0.9867 0.1624 62.0253 431.5771)" class="st2" cx="285.2" cy="179.3" rx="3.5" ry="3.2"/>
<ellipse transform="matrix(0.1624 -0.9867 0.9867 0.1624 87.4736 461.4329)" class="st2" cx="315.5" cy="179.2" rx="3.5" ry="3.2"/>
<ellipse transform="matrix(0.1624 -0.9867 0.9867 0.1624 100.7587 475.935)" class="st2" cx="330.7" cy="178.6" rx="3.5" ry="3.2"/>
<ellipse transform="matrix(0.1624 -0.9867 0.9867 0.1624 107.663 483.0282)" class="st2" cx="338.3" cy="178.1" rx="3.5" ry="3.2"/>
<ellipse transform="matrix(0.1624 -0.9867 0.9867 0.1624 114.7355 489.8407)" class="st2" cx="345.9" cy="177.3" rx="3.5" ry="3.2"/>
<ellipse transform="matrix(0.1624 -0.9867 0.9867 0.1624 38.0306 400.4006)" class="st2" cx="254.9" cy="177.8" rx="3.5" ry="3.2"/>
<ellipse transform="matrix(0.1624 -0.9867 0.9867 0.1624 55.9957 423.9554)" class="st2" cx="277.7" cy="179" rx="3.5" ry="3.2"/>
<ellipse transform="matrix(0.1624 -0.9867 0.9867 0.1624 68.4289 439.0515)" class="st2" cx="292.8" cy="179.2" rx="3.5" ry="3.2"/>
<ellipse transform="matrix(0.1624 -0.9867 0.9867 0.1624 74.8325 446.5256)" class="st2" cx="300.4" cy="179.2" rx="3.5" ry="3.2"/>
<ellipse transform="matrix(0.1624 -0.9867 0.9867 0.1624 81.0776 453.9462)" class="st2" cx="307.9" cy="179.2" rx="3.5" ry="3.2"/>
<ellipse transform="matrix(0.1624 -0.9867 0.9867 0.1624 94.1655 468.6399)" class="st2" cx="323.1" cy="178.9" rx="3.5" ry="3.2"/>
<ellipse transform="matrix(0.1624 -0.9867 0.9867 0.1624 10.5158 385.2079)" class="st2" cx="232.2" cy="186.4" rx="3.5" ry="3.2"/>
<ellipse transform="matrix(0.1624 -0.9867 0.9867 0.1624 15.9612 393.5932)" class="st2" cx="239.8" cy="187.4" rx="3.5" ry="3.2"/>
<ellipse transform="matrix(0.1624 -0.9867 0.9867 0.1624 21.7656 401.3137)" class="st2" cx="247.3" cy="187.8" rx="3.5" ry="3.2"/>
<ellipse transform="matrix(0.1624 -0.9867 0.9867 0.1624 33.7182 417.0974)" class="st2" cx="262.5" cy="188.7" rx="3.5" ry="3.2"/>
<ellipse transform="matrix(0.1624 -0.9867 0.9867 0.1624 39.6167 424.932)" class="st2" cx="270.1" cy="189.1" rx="3.5" ry="3.2"/>
<ellipse transform="matrix(0.1624 -0.9867 0.9867 0.1624 51.8894 440.2408)" class="st2" cx="285.3" cy="189.6" rx="3.5" ry="3.2"/>
<ellipse transform="matrix(0.1624 -0.9867 0.9867 0.1624 77.2269 470.1634)" class="st2" cx="315.5" cy="189.6" rx="3.5" ry="3.2"/>
<ellipse transform="matrix(0.1624 -0.9867 0.9867 0.1624 90.512 484.6654)" class="st2" cx="330.7" cy="189" rx="3.5" ry="3.2"/>
<ellipse transform="matrix(0.1624 -0.9867 0.9867 0.1624 97.4161 491.7585)" class="st2" cx="338.4" cy="188.5" rx="3.5" ry="3.2"/>
<ellipse transform="matrix(0.1624 -0.9867 0.9867 0.1624 104.476 498.5612)" class="st2" cx="345.9" cy="187.7" rx="3.5" ry="3.2"/>
<ellipse transform="matrix(0.1624 -0.9867 0.9867 0.1624 27.7837 409.1309)" class="st2" cx="254.9" cy="188.2" rx="3.5" ry="3.2"/>
<ellipse transform="matrix(0.1624 -0.9867 0.9867 0.1624 45.6915 432.5937)" class="st2" cx="277.7" cy="189.4" rx="3.5" ry="3.2"/>
<ellipse transform="matrix(0.1624 -0.9867 0.9867 0.1624 58.1822 447.7817)" class="st2" cx="292.8" cy="189.6" rx="3.5" ry="3.2"/>
<ellipse transform="matrix(0.1624 -0.9867 0.9867 0.1624 64.5858 455.256)" class="st2" cx="300.4" cy="189.6" rx="3.5" ry="3.2"/>
<ellipse transform="matrix(0.1624 -0.9867 0.9867 0.1624 70.8308 462.6766)" class="st2" cx="307.9" cy="189.6" rx="3.5" ry="3.2"/>
<ellipse transform="matrix(0.1624 -0.9867 0.9867 0.1624 83.906 477.3607)" class="st2" cx="323.1" cy="189.3" rx="3.5" ry="3.2"/>
<ellipse transform="matrix(0.1624 -0.9867 0.9867 0.1624 0.2686 393.9382)" class="st2" cx="232.2" cy="196.8" rx="3.5" ry="3.2"/>
<ellipse transform="matrix(0.1624 -0.9867 0.9867 0.1624 5.6568 402.2314)" class="st2" cx="239.8" cy="197.8" rx="3.5" ry="3.2"/>
<ellipse transform="matrix(0.1624 -0.9867 0.9867 0.1624 11.5187 410.044)" class="st2" cx="247.3" cy="198.2" rx="3.5" ry="3.2"/>
<ellipse transform="matrix(0.1624 -0.9867 0.9867 0.1624 23.4711 425.8277)" class="st2" cx="262.6" cy="199.1" rx="3.5" ry="3.2"/>
<ellipse transform="matrix(0.1624 -0.9867 0.9867 0.1624 29.3124 433.5704)" class="st2" cx="270" cy="199.5" rx="3.5" ry="3.2"/>
<ellipse transform="matrix(0.1624 -0.9867 0.9867 0.1624 41.6298 448.9616)" class="st2" cx="285.3" cy="200" rx="3.5" ry="3.2"/>
<ellipse transform="matrix(0.1624 -0.9867 0.9867 0.1624 66.9672 478.8842)" class="st2" cx="315.6" cy="200" rx="3.5" ry="3.2"/>
<ellipse transform="matrix(0.1624 -0.9867 0.9867 0.1624 80.2523 493.3861)" class="st2" cx="330.7" cy="199.4" rx="3.5" ry="3.2"/>
<ellipse transform="matrix(0.1624 -0.9867 0.9867 0.1624 87.1566 500.4793)" class="st2" cx="338.4" cy="198.9" rx="3.5" ry="3.2"/>
<ellipse transform="matrix(0.1624 -0.9867 0.9867 0.1624 94.2292 507.2917)" class="st2" cx="345.9" cy="198.1" rx="3.5" ry="3.2"/>
<ellipse transform="matrix(0.1624 -0.9867 0.9867 0.1624 17.5239 417.8518)" class="st2" cx="254.9" cy="198.6" rx="3.5" ry="3.2"/>
<ellipse transform="matrix(0.1624 -0.9867 0.9867 0.1624 35.4319 441.3145)" class="st2" cx="277.7" cy="199.8" rx="3.5" ry="3.2"/>
<ellipse transform="matrix(0.1624 -0.9867 0.9867 0.1624 47.9225 456.5025)" class="st2" cx="292.9" cy="200" rx="3.5" ry="3.2"/>
<ellipse transform="matrix(0.1624 -0.9867 0.9867 0.1624 54.3262 463.9766)" class="st2" cx="300.5" cy="200" rx="3.5" ry="3.2"/>
<ellipse transform="matrix(0.1624 -0.9867 0.9867 0.1624 60.5712 471.3973)" class="st2" cx="307.9" cy="200" rx="3.5" ry="3.2"/>
<ellipse transform="matrix(0.1624 -0.9867 0.9867 0.1624 73.7702 486.0244)" class="st2" cx="323.2" cy="199.6" rx="3.5" ry="3.2"/>
<ellipse transform="matrix(0.1624 -0.9867 0.9867 0.1624 -9.991 402.6589)" class="st2" cx="232.2" cy="207.2" rx="3.5" ry="3.2"/>
<ellipse transform="matrix(0.1624 -0.9867 0.9867 0.1624 -4.6029 410.952)" class="st2" cx="239.8" cy="208.2" rx="3.5" ry="3.2"/>
<ellipse transform="matrix(0.1624 -0.9867 0.9867 0.1624 1.2588 418.7646)" class="st2" cx="247.3" cy="208.6" rx="3.5" ry="3.2"/>
<ellipse transform="matrix(0.1624 -0.9867 0.9867 0.1624 13.2112 434.5483)" class="st2" cx="262.6" cy="209.5" rx="3.5" ry="3.2"/>
<ellipse transform="matrix(0.1624 -0.9867 0.9867 0.1624 19.0528 442.2911)" class="st2" cx="270" cy="209.9" rx="3.5" ry="3.2"/>
<ellipse transform="matrix(0.1624 -0.9867 0.9867 0.1624 31.3829 457.6919)" class="st2" cx="285.3" cy="210.4" rx="3.5" ry="3.2"/>
<ellipse transform="matrix(0.1624 -0.9867 0.9867 0.1624 56.7203 487.6143)" class="st2" cx="315.6" cy="210.4" rx="3.5" ry="3.2"/>
<ellipse transform="matrix(0.1624 -0.9867 0.9867 0.1624 69.9929 502.1069)" class="st2" cx="330.7" cy="209.8" rx="3.5" ry="3.2"/>
<ellipse transform="matrix(0.1624 -0.9867 0.9867 0.1624 76.8306 509.0892)" class="st2" cx="338.3" cy="209.3" rx="3.5" ry="3.2"/>
<ellipse transform="matrix(0.1624 -0.9867 0.9867 0.1624 83.9031 515.9016)" class="st2" cx="345.8" cy="208.5" rx="3.5" ry="3.2"/>
<ellipse transform="matrix(0.1624 -0.9867 0.9867 0.1624 7.2767 426.5818)" class="st2" cx="254.9" cy="209" rx="3.5" ry="3.2"/>
<ellipse transform="matrix(0.1624 -0.9867 0.9867 0.1624 25.1183 449.9339)" class="st2" cx="277.6" cy="210.2" rx="3.5" ry="3.2"/>
<ellipse transform="matrix(0.1624 -0.9867 0.9867 0.1624 37.6755 465.2328)" class="st2" cx="292.9" cy="210.4" rx="3.5" ry="3.2"/>
<ellipse transform="matrix(0.1624 -0.9867 0.9867 0.1624 44.0127 472.5962)" class="st2" cx="300.4" cy="210.4" rx="3.5" ry="3.2"/>
<ellipse transform="matrix(0.1624 -0.9867 0.9867 0.1624 50.3244 480.1277)" class="st2" cx="308" cy="210.4" rx="3.5" ry="3.2"/>
<ellipse transform="matrix(0.1624 -0.9867 0.9867 0.1624 63.5107 494.7452)" class="st2" cx="323.2" cy="210" rx="3.5" ry="3.2"/>
<ellipse transform="matrix(0.1624 -0.9867 0.9867 0.1624 -20.2383 411.3892)" class="st2" cx="232.2" cy="217.6" rx="3.5" ry="3.2"/>
<ellipse transform="matrix(0.1624 -0.9867 0.9867 0.1624 -14.9166 419.5714)" class="st2" cx="239.7" cy="218.6" rx="3.5" ry="3.2"/>
<ellipse transform="matrix(0.1624 -0.9867 0.9867 0.1624 -8.9883 427.4951)" class="st2" cx="247.3" cy="219" rx="3.5" ry="3.2"/>
<ellipse transform="matrix(0.1624 -0.9867 0.9867 0.1624 2.8976 443.1677)" class="st2" cx="262.5" cy="219.9" rx="3.5" ry="3.2"/>
<ellipse transform="matrix(0.1624 -0.9867 0.9867 0.1624 8.8055 451.0212)" class="st2" cx="270.1" cy="220.3" rx="3.5" ry="3.2"/>
<ellipse transform="matrix(0.1624 -0.9867 0.9867 0.1624 21.1235 466.4128)" class="st2" cx="285.3" cy="220.8" rx="3.5" ry="3.2"/>
<ellipse transform="matrix(0.1624 -0.9867 0.9867 0.1624 46.4609 496.3353)" class="st2" cx="315.6" cy="220.8" rx="3.5" ry="3.2"/>
<ellipse transform="matrix(0.1624 -0.9867 0.9867 0.1624 59.7461 510.8374)" class="st2" cx="330.8" cy="220.2" rx="3.5" ry="3.2"/>
<ellipse transform="matrix(0.1624 -0.9867 0.9867 0.1624 66.6946 517.7529)" class="st2" cx="338.3" cy="219.6" rx="3.5" ry="3.2"/>
<ellipse transform="matrix(0.1624 -0.9867 0.9867 0.1624 73.6561 524.6318)" class="st2" cx="345.8" cy="218.9" rx="3.5" ry="3.2"/>
<ellipse transform="matrix(0.1624 -0.9867 0.9867 0.1624 -2.983 435.3027)" class="st2" cx="254.9" cy="219.4" rx="3.5" ry="3.2"/>
<ellipse transform="matrix(0.1624 -0.9867 0.9867 0.1624 14.8589 458.6545)" class="st2" cx="277.6" cy="220.6" rx="3.5" ry="3.2"/>
<ellipse transform="matrix(0.1624 -0.9867 0.9867 0.1624 27.5272 473.887)" class="st2" cx="292.9" cy="220.7" rx="3.5" ry="3.2"/>
<ellipse transform="matrix(0.1624 -0.9867 0.9867 0.1624 33.7532 481.317)" class="st2" cx="300.4" cy="220.8" rx="3.5" ry="3.2"/>
<ellipse transform="matrix(0.1624 -0.9867 0.9867 0.1624 40.0649 488.8486)" class="st2" cx="308" cy="220.8" rx="3.5" ry="3.2"/>
<ellipse transform="matrix(0.1624 -0.9867 0.9867 0.1624 53.2639 503.4756)" class="st2" cx="323.2" cy="220.4" rx="3.5" ry="3.2"/>
<path class="st5" d="M358.3,239.7l-0.6-13.3c-51.3,4.4-95.7,5.1-138.3,0v13.5"/>
<ellipse transform="matrix(0.1624 -0.9867 0.9867 0.1624 -49.9385 436.5994)" class="st2" cx="232.2" cy="247.7" rx="3.5" ry="3.2"/>
<ellipse transform="matrix(0.1624 -0.9867 0.9867 0.1624 -43.5424 444.0859)" class="st2" cx="239.8" cy="247.7" rx="3.5" ry="3.2"/>
<ellipse transform="matrix(0.1624 -0.9867 0.9867 0.1624 -37.1628 451.5181)" class="st2" cx="247.4" cy="247.6" rx="3.5" ry="3.2"/>
<ellipse transform="matrix(0.1624 -0.9867 0.9867 0.1624 -30.8019 458.9237)" class="st2" cx="254.9" cy="247.6" rx="3.5" ry="3.2"/>
<ellipse transform="matrix(0.1624 -0.9867 0.9867 0.1624 -24.4922 466.5195)" class="st2" cx="262.5" cy="247.7" rx="3.5" ry="3.2"/>
<ellipse transform="matrix(0.1624 -0.9867 0.9867 0.1624 -18.2471 473.9401)" class="st2" cx="270" cy="247.7" rx="3.5" ry="3.2"/>
<ellipse transform="matrix(0.1624 -0.9867 0.9867 0.1624 -11.7977 481.4814)" class="st2" cx="277.7" cy="247.7" rx="3.5" ry="3.2"/>
<ellipse transform="matrix(0.1624 -0.9867 0.9867 0.1624 -5.5527 488.9649)" class="st2" cx="285.2" cy="247.8" rx="3.5" ry="3.2"/>
<ellipse transform="matrix(0.1624 -0.9867 0.9867 0.1624 0.8091 496.3705)" class="st2" cx="292.8" cy="247.7" rx="3.5" ry="3.2"/>
<ellipse transform="matrix(0.1624 -0.9867 0.9867 0.1624 7.2128 503.8446)" class="st2" cx="300.4" cy="247.7" rx="3.5" ry="3.2"/>
<ellipse transform="matrix(0.1624 -0.9867 0.9867 0.1624 13.4135 511.4426)" class="st2" cx="308" cy="247.8" rx="3.5" ry="3.2"/>
<ellipse transform="matrix(0.1624 -0.9867 0.9867 0.1624 19.9378 518.8891)" class="st2" cx="315.6" cy="247.7" rx="3.5" ry="3.2"/>
<ellipse transform="matrix(0.1624 -0.9867 0.9867 0.1624 26.2286 526.4268)" class="st2" cx="323.2" cy="247.8" rx="3.5" ry="3.2"/>
<ellipse transform="matrix(0.1624 -0.9867 0.9867 0.1624 32.6789 533.7264)" class="st2" cx="330.7" cy="247.6" rx="3.5" ry="3.2"/>
<ellipse transform="matrix(0.1624 -0.9867 0.9867 0.1624 39.075 541.2129)" class="st2" cx="338.3" cy="247.6" rx="3.5" ry="3.2"/>
<ellipse transform="matrix(0.1624 -0.9867 0.9867 0.1624 45.1626 548.8746)" class="st2" cx="345.9" cy="247.8" rx="3.5" ry="3.2"/>
<ellipse transform="matrix(0.1624 -0.9867 0.9867 0.1624 -60.1839 445.3293)" class="st2" cx="232.2" cy="258.1" rx="3.5" ry="3.2"/>
<ellipse transform="matrix(0.1624 -0.9867 0.9867 0.1624 -53.8451 452.724)" class="st2" cx="239.7" cy="258.1" rx="3.5" ry="3.2"/>
<ellipse transform="matrix(0.1624 -0.9867 0.9867 0.1624 -47.4209 460.2384)" class="st2" cx="247.4" cy="258.1" rx="3.5" ry="3.2"/>
<ellipse transform="matrix(0.1624 -0.9867 0.9867 0.1624 -41.1044 467.5616)" class="st2" cx="254.9" cy="258" rx="3.5" ry="3.2"/>
<ellipse transform="matrix(0.1624 -0.9867 0.9867 0.1624 -34.8042 475.1382)" class="st2" cx="262.5" cy="258.1" rx="3.5" ry="3.2"/>
<ellipse transform="matrix(0.1624 -0.9867 0.9867 0.1624 -28.4925 482.6698)" class="st2" cx="270.1" cy="258.1" rx="3.5" ry="3.2"/>
<ellipse transform="matrix(0.1624 -0.9867 0.9867 0.1624 -22.1003 490.1191)" class="st2" cx="277.6" cy="258.1" rx="3.5" ry="3.2"/>
<ellipse transform="matrix(0.1624 -0.9867 0.9867 0.1624 -15.6869 497.6281)" class="st2" cx="285.3" cy="258.1" rx="3.5" ry="3.2"/>
<ellipse transform="matrix(0.1624 -0.9867 0.9867 0.1624 -9.4359 505.1002)" class="st2" cx="292.8" cy="258.1" rx="3.5" ry="3.2"/>
<ellipse transform="matrix(0.1624 -0.9867 0.9867 0.1624 -3.0324 512.5745)" class="st2" cx="300.4" cy="258.1" rx="3.5" ry="3.2"/>
<ellipse transform="matrix(0.1624 -0.9867 0.9867 0.1624 3.2793 520.1057)" class="st2" cx="308" cy="258.1" rx="3.5" ry="3.2"/>
<ellipse transform="matrix(0.1624 -0.9867 0.9867 0.1624 9.6356 527.5267)" class="st2" cx="315.5" cy="258.1" rx="3.5" ry="3.2"/>
<ellipse transform="matrix(0.1624 -0.9867 0.9867 0.1624 15.9836 535.1562)" class="st2" cx="323.2" cy="258.2" rx="3.5" ry="3.2"/>
<ellipse transform="matrix(0.1624 -0.9867 0.9867 0.1624 22.3766 542.3638)" class="st2" cx="330.7" cy="258" rx="3.5" ry="3.2"/>
<ellipse transform="matrix(0.1624 -0.9867 0.9867 0.1624 28.7725 549.8503)" class="st2" cx="338.3" cy="258" rx="3.5" ry="3.2"/>
<ellipse transform="matrix(0.1624 -0.9867 0.9867 0.1624 34.9174 557.604)" class="st2" cx="345.9" cy="258.2" rx="3.5" ry="3.2"/>
<ellipse transform="matrix(0.1624 -0.9867 0.9867 0.1624 -70.5009 453.9581)" class="st2" cx="232.1" cy="268.5" rx="3.5" ry="3.2"/>
<ellipse transform="matrix(0.1624 -0.9867 0.9867 0.1624 -64.1047 461.4447)" class="st2" cx="239.7" cy="268.5" rx="3.5" ry="3.2"/>
<ellipse transform="matrix(0.1624 -0.9867 0.9867 0.1624 -57.6677 468.9688)" class="st2" cx="247.4" cy="268.5" rx="3.5" ry="3.2"/>
<ellipse transform="matrix(0.1624 -0.9867 0.9867 0.1624 -51.3641 476.2823)" class="st2" cx="254.9" cy="268.4" rx="3.5" ry="3.2"/>
<ellipse transform="matrix(0.1624 -0.9867 0.9867 0.1624 -45.0637 483.859)" class="st2" cx="262.5" cy="268.5" rx="3.5" ry="3.2"/>
<ellipse transform="matrix(0.1624 -0.9867 0.9867 0.1624 -38.7519 491.3907)" class="st2" cx="270.1" cy="268.5" rx="3.5" ry="3.2"/>
<ellipse transform="matrix(0.1624 -0.9867 0.9867 0.1624 -32.3596 498.8401)" class="st2" cx="277.6" cy="268.5" rx="3.5" ry="3.2"/>
<ellipse transform="matrix(0.1624 -0.9867 0.9867 0.1624 -25.946 506.3491)" class="st2" cx="285.3" cy="268.5" rx="3.5" ry="3.2"/>
<ellipse transform="matrix(0.1624 -0.9867 0.9867 0.1624 -19.6953 513.8212)" class="st2" cx="292.8" cy="268.5" rx="3.5" ry="3.2"/>
<ellipse transform="matrix(0.1624 -0.9867 0.9867 0.1624 -13.2916 521.2952)" class="st2" cx="300.4" cy="268.5" rx="3.5" ry="3.2"/>
<ellipse transform="matrix(0.1624 -0.9867 0.9867 0.1624 -6.98 528.8266)" class="st2" cx="308" cy="268.5" rx="3.5" ry="3.2"/>
<ellipse transform="matrix(0.1624 -0.9867 0.9867 0.1624 -0.6238 536.2474)" class="st2" cx="315.5" cy="268.5" rx="3.5" ry="3.2"/>
<ellipse transform="matrix(0.1624 -0.9867 0.9867 0.1624 5.7243 543.8773)" class="st2" cx="323.2" cy="268.6" rx="3.5" ry="3.2"/>
<ellipse transform="matrix(0.1624 -0.9867 0.9867 0.1624 12.1172 551.0846)" class="st2" cx="330.7" cy="268.4" rx="3.5" ry="3.2"/>
<ellipse transform="matrix(0.1624 -0.9867 0.9867 0.1624 18.5134 558.5714)" class="st2" cx="338.3" cy="268.4" rx="3.5" ry="3.2"/>
<ellipse transform="matrix(0.1624 -0.9867 0.9867 0.1624 24.6583 566.325)" class="st2" cx="345.9" cy="268.6" rx="3.5" ry="3.2"/>
<ellipse transform="matrix(0.1624 -0.9867 0.9867 0.1624 -80.7604 462.679)" class="st2" cx="232.1" cy="278.9" rx="3.5" ry="3.2"/>
<ellipse transform="matrix(0.1624 -0.9867 0.9867 0.1624 -74.3641 470.1655)" class="st2" cx="239.8" cy="278.9" rx="3.5" ry="3.2"/>
<ellipse transform="matrix(0.1624 -0.9867 0.9867 0.1624 -67.9274 477.6895)" class="st2" cx="247.4" cy="278.9" rx="3.5" ry="3.2"/>
<ellipse transform="matrix(0.1624 -0.9867 0.9867 0.1624 -61.6235 485.0032)" class="st2" cx="254.9" cy="278.8" rx="3.5" ry="3.2"/>
<ellipse transform="matrix(0.1624 -0.9867 0.9867 0.1624 -55.3106 492.5893)" class="st2" cx="262.5" cy="278.9" rx="3.5" ry="3.2"/>
<ellipse transform="matrix(0.1624 -0.9867 0.9867 0.1624 -48.999 500.121)" class="st2" cx="270.1" cy="278.9" rx="3.5" ry="3.2"/>
<ellipse transform="matrix(0.1624 -0.9867 0.9867 0.1624 -42.6191 507.5608)" class="st2" cx="277.7" cy="278.9" rx="3.5" ry="3.2"/>
<ellipse transform="matrix(0.1624 -0.9867 0.9867 0.1624 -36.1928 515.0794)" class="st2" cx="285.3" cy="278.9" rx="3.5" ry="3.2"/>
<ellipse transform="matrix(0.1624 -0.9867 0.9867 0.1624 -29.9419 522.5514)" class="st2" cx="292.8" cy="278.9" rx="3.5" ry="3.2"/>
<ellipse transform="matrix(0.1624 -0.9867 0.9867 0.1624 -23.5382 530.0255)" class="st2" cx="300.4" cy="278.9" rx="3.5" ry="3.2"/>
<ellipse transform="matrix(0.1624 -0.9867 0.9867 0.1624 -17.2933 537.4461)" class="st2" cx="307.9" cy="278.9" rx="3.5" ry="3.2"/>
<ellipse transform="matrix(0.1624 -0.9867 0.9867 0.1624 -10.883 544.9684)" class="st2" cx="315.6" cy="278.9" rx="3.5" ry="3.2"/>
<ellipse transform="matrix(0.1624 -0.9867 0.9867 0.1624 -4.6461 552.4047)" class="st2" cx="323.1" cy="278.9" rx="3.5" ry="3.2"/>
<ellipse transform="matrix(0.1624 -0.9867 0.9867 0.1624 1.8579 559.8055)" class="st2" cx="330.7" cy="278.8" rx="3.5" ry="3.2"/>
<ellipse transform="matrix(0.1624 -0.9867 0.9867 0.1624 8.2541 567.2921)" class="st2" cx="338.3" cy="278.8" rx="3.5" ry="3.2"/>
<ellipse transform="matrix(0.1624 -0.9867 0.9867 0.1624 14.3544 574.9631)" class="st2" cx="345.8" cy="279" rx="3.5" ry="3.2"/>
<ellipse transform="matrix(0.1624 -0.9867 0.9867 0.1624 -91.0071 471.4093)" class="st2" cx="232.2" cy="289.3" rx="3.5" ry="3.2"/>
<ellipse transform="matrix(0.1624 -0.9867 0.9867 0.1624 -84.6777 478.7849)" class="st2" cx="239.7" cy="289.3" rx="3.5" ry="3.2"/>
<ellipse transform="matrix(0.1624 -0.9867 0.9867 0.1624 -78.1743 486.42)" class="st2" cx="247.4" cy="289.3" rx="3.5" ry="3.2"/>
<ellipse transform="matrix(0.1624 -0.9867 0.9867 0.1624 -71.8703 493.7336)" class="st2" cx="254.9" cy="289.2" rx="3.5" ry="3.2"/>
<ellipse transform="matrix(0.1624 -0.9867 0.9867 0.1624 -65.5701 501.3103)" class="st2" cx="262.5" cy="289.3" rx="3.5" ry="3.2"/>
<ellipse transform="matrix(0.1624 -0.9867 0.9867 0.1624 -59.2585 508.8417)" class="st2" cx="270.1" cy="289.3" rx="3.5" ry="3.2"/>
<ellipse transform="matrix(0.1624 -0.9867 0.9867 0.1624 -52.9325 516.1802)" class="st2" cx="277.6" cy="289.3" rx="3.5" ry="3.2"/>
<ellipse transform="matrix(0.1624 -0.9867 0.9867 0.1624 -46.4519 523.8002)" class="st2" cx="285.3" cy="289.3" rx="3.5" ry="3.2"/>
<ellipse transform="matrix(0.1624 -0.9867 0.9867 0.1624 -40.2012 531.2724)" class="st2" cx="292.8" cy="289.3" rx="3.5" ry="3.2"/>
<ellipse transform="matrix(0.1624 -0.9867 0.9867 0.1624 -33.7976 538.7465)" class="st2" cx="300.4" cy="289.3" rx="3.5" ry="3.2"/>
<ellipse transform="matrix(0.1624 -0.9867 0.9867 0.1624 -27.5524 546.1669)" class="st2" cx="307.9" cy="289.3" rx="3.5" ry="3.2"/>
<ellipse transform="matrix(0.1624 -0.9867 0.9867 0.1624 -21.1962 553.5881)" class="st2" cx="315.5" cy="289.3" rx="3.5" ry="3.2"/>
<ellipse transform="matrix(0.1624 -0.9867 0.9867 0.1624 -14.9055 561.1254)" class="st2" cx="323.1" cy="289.3" rx="3.5" ry="3.2"/>
<ellipse transform="matrix(0.1624 -0.9867 0.9867 0.1624 -8.3887 568.5361)" class="st2" cx="330.7" cy="289.2" rx="3.5" ry="3.2"/>
<ellipse transform="matrix(0.1624 -0.9867 0.9867 0.1624 -1.9925 576.0225)" class="st2" cx="338.3" cy="289.2" rx="3.5" ry="3.2"/>
<ellipse transform="matrix(0.1624 -0.9867 0.9867 0.1624 4.095 583.6841)" class="st2" cx="345.9" cy="289.4" rx="3.5" ry="3.2"/>
<ellipse transform="matrix(0.1624 -0.9867 0.9867 0.1624 -101.2667 480.1301)" class="st2" cx="232.2" cy="299.7" rx="3.5" ry="3.2"/>
<ellipse transform="matrix(0.1624 -0.9867 0.9867 0.1624 -94.9373 487.5058)" class="st2" cx="239.7" cy="299.7" rx="3.5" ry="3.2"/>
<ellipse transform="matrix(0.1624 -0.9867 0.9867 0.1624 -88.5577 494.9378)" class="st2" cx="247.3" cy="299.6" rx="3.5" ry="3.2"/>
<ellipse transform="matrix(0.1624 -0.9867 0.9867 0.1624 -82.13 502.4543)" class="st2" cx="254.9" cy="299.6" rx="3.5" ry="3.2"/>
<ellipse transform="matrix(0.1624 -0.9867 0.9867 0.1624 -75.7187 509.9643)" class="st2" cx="262.5" cy="299.6" rx="3.5" ry="3.2"/>
<ellipse transform="matrix(0.1624 -0.9867 0.9867 0.1624 -69.518 517.5627)" class="st2" cx="270.1" cy="299.7" rx="3.5" ry="3.2"/>
<ellipse transform="matrix(0.1624 -0.9867 0.9867 0.1624 -63.1917 524.9013)" class="st2" cx="277.6" cy="299.7" rx="3.5" ry="3.2"/>
<ellipse transform="matrix(0.1624 -0.9867 0.9867 0.1624 -56.7113 532.5213)" class="st2" cx="285.3" cy="299.7" rx="3.5" ry="3.2"/>
<ellipse transform="matrix(0.1624 -0.9867 0.9867 0.1624 -50.4478 540.0029)" class="st2" cx="292.8" cy="299.7" rx="3.5" ry="3.2"/>
<ellipse transform="matrix(0.1624 -0.9867 0.9867 0.1624 -44.0442 547.4769)" class="st2" cx="300.5" cy="299.7" rx="3.5" ry="3.2"/>
<ellipse transform="matrix(0.1624 -0.9867 0.9867 0.1624 -37.799 554.8975)" class="st2" cx="307.9" cy="299.7" rx="3.5" ry="3.2"/>
<ellipse transform="matrix(0.1624 -0.9867 0.9867 0.1624 -31.4555 562.3087)" class="st2" cx="315.5" cy="299.7" rx="3.5" ry="3.2"/>
<ellipse transform="matrix(0.1624 -0.9867 0.9867 0.1624 -25.1522 569.8558)" class="st2" cx="323.1" cy="299.7" rx="3.5" ry="3.2"/>
<ellipse transform="matrix(0.1624 -0.9867 0.9867 0.1624 -18.648 577.2569)" class="st2" cx="330.7" cy="299.6" rx="3.5" ry="3.2"/>
<ellipse transform="matrix(0.1624 -0.9867 0.9867 0.1624 -12.2518 584.7435)" class="st2" cx="338.3" cy="299.6" rx="3.5" ry="3.2"/>
<ellipse transform="matrix(0.1624 -0.9867 0.9867 0.1624 -6.0405 592.3478)" class="st2" cx="345.9" cy="299.7" rx="3.5" ry="3.2"/>
<ellipse transform="matrix(0.1624 -0.9867 0.9867 0.1624 -111.4693 488.6828)" class="st2" cx="232.1" cy="310" rx="3.5" ry="3.2"/>
<ellipse transform="matrix(0.1624 -0.9867 0.9867 0.1624 -105.1841 496.2361)" class="st2" cx="239.7" cy="310.1" rx="3.5" ry="3.2"/>
<ellipse transform="matrix(0.1624 -0.9867 0.9867 0.1624 -98.8046 503.6681)" class="st2" cx="247.3" cy="310" rx="3.5" ry="3.2"/>
<ellipse transform="matrix(0.1624 -0.9867 0.9867 0.1624 -92.3767 511.1846)" class="st2" cx="254.9" cy="310" rx="3.5" ry="3.2"/>
<ellipse transform="matrix(0.1624 -0.9867 0.9867 0.1624 -86.0227 518.6028)" class="st2" cx="262.5" cy="310" rx="3.5" ry="3.2"/>
<ellipse transform="matrix(0.1624 -0.9867 0.9867 0.1624 -79.8221 526.2007)" class="st2" cx="270" cy="310.1" rx="3.5" ry="3.2"/>
<ellipse transform="matrix(0.1624 -0.9867 0.9867 0.1624 -73.4385 533.6317)" class="st2" cx="277.6" cy="310.1" rx="3.5" ry="3.2"/>
<ellipse transform="matrix(0.1624 -0.9867 0.9867 0.1624 -67.082 541.0486)" class="st2" cx="285.1" cy="310" rx="3.5" ry="3.2"/>
<ellipse transform="matrix(0.1624 -0.9867 0.9867 0.1624 -60.7071 548.7236)" class="st2" cx="292.9" cy="310.1" rx="3.5" ry="3.2"/>
<ellipse transform="matrix(0.1624 -0.9867 0.9867 0.1624 -54.3701 556.0867)" class="st2" cx="300.4" cy="310.1" rx="3.5" ry="3.2"/>
<ellipse transform="matrix(0.1624 -0.9867 0.9867 0.1624 -48.0584 563.6183)" class="st2" cx="308" cy="310.1" rx="3.5" ry="3.2"/>
<ellipse transform="matrix(0.1624 -0.9867 0.9867 0.1624 -41.591 570.9725)" class="st2" cx="315.5" cy="310" rx="3.5" ry="3.2"/>
<ellipse transform="matrix(0.1624 -0.9867 0.9867 0.1624 -35.4113 578.5768)" class="st2" cx="323.1" cy="310.1" rx="3.5" ry="3.2"/>
<ellipse transform="matrix(0.1624 -0.9867 0.9867 0.1624 -28.8945 585.9874)" class="st2" cx="330.7" cy="310" rx="3.5" ry="3.2"/>
<ellipse transform="matrix(0.1624 -0.9867 0.9867 0.1624 -22.4985 593.4739)" class="st2" cx="338.3" cy="310" rx="3.5" ry="3.2"/>
<ellipse transform="matrix(0.1624 -0.9867 0.9867 0.1624 -16.2999 601.0688)" class="st2" cx="345.9" cy="310.1" rx="3.5" ry="3.2"/>
<ellipse transform="matrix(0.1624 -0.9867 0.9867 0.1624 -121.7288 497.4037)" class="st2" cx="232.1" cy="320.4" rx="3.5" ry="3.2"/>
<ellipse transform="matrix(0.1624 -0.9867 0.9867 0.1624 -115.3326 504.8904)" class="st2" cx="239.7" cy="320.4" rx="3.5" ry="3.2"/>
<ellipse transform="matrix(0.1624 -0.9867 0.9867 0.1624 -109.0641 512.3889)" class="st2" cx="247.3" cy="320.4" rx="3.5" ry="3.2"/>
<ellipse transform="matrix(0.1624 -0.9867 0.9867 0.1624 -102.6362 519.9056)" class="st2" cx="254.9" cy="320.4" rx="3.5" ry="3.2"/>
<ellipse transform="matrix(0.1624 -0.9867 0.9867 0.1624 -96.2823 527.3235)" class="st2" cx="262.5" cy="320.4" rx="3.5" ry="3.2"/>
<ellipse transform="matrix(0.1624 -0.9867 0.9867 0.1624 -90.0816 534.9216)" class="st2" cx="270" cy="320.5" rx="3.5" ry="3.2"/>
<ellipse transform="matrix(0.1624 -0.9867 0.9867 0.1624 -83.5869 542.2858)" class="st2" cx="277.6" cy="320.4" rx="3.5" ry="3.2"/>
<ellipse transform="matrix(0.1624 -0.9867 0.9867 0.1624 -77.3409 549.7695)" class="st2" cx="285.2" cy="320.4" rx="3.5" ry="3.2"/>
<ellipse transform="matrix(0.1624 -0.9867 0.9867 0.1624 -70.8428 557.3875)" class="st2" cx="292.9" cy="320.4" rx="3.5" ry="3.2"/>
<ellipse transform="matrix(0.1624 -0.9867 0.9867 0.1624 -64.6167 564.8173)" class="st2" cx="300.4" cy="320.5" rx="3.5" ry="3.2"/>
<ellipse transform="matrix(0.1624 -0.9867 0.9867 0.1624 -58.305 572.3486)" class="st2" cx="308" cy="320.5" rx="3.5" ry="3.2"/>
<ellipse transform="matrix(0.1624 -0.9867 0.9867 0.1624 -51.8504 579.6935)" class="st2" cx="315.5" cy="320.4" rx="3.5" ry="3.2"/>
<ellipse transform="matrix(0.1624 -0.9867 0.9867 0.1624 -45.658 587.3073)" class="st2" cx="323.1" cy="320.5" rx="3.5" ry="3.2"/>
<ellipse transform="matrix(0.1624 -0.9867 0.9867 0.1624 -39.1539 594.7084)" class="st2" cx="330.7" cy="320.4" rx="3.5" ry="3.2"/>
<ellipse transform="matrix(0.1624 -0.9867 0.9867 0.1624 -32.758 602.1948)" class="st2" cx="338.3" cy="320.4" rx="3.5" ry="3.2"/>
<ellipse transform="matrix(0.1624 -0.9867 0.9867 0.1624 -26.5468 609.7993)" class="st2" cx="345.9" cy="320.5" rx="3.5" ry="3.2"/>
<ellipse transform="matrix(0.1624 -0.9867 0.9867 0.1624 -131.9756 506.1339)" class="st2" cx="232.1" cy="330.8" rx="3.5" ry="3.2"/>
<ellipse transform="matrix(0.1624 -0.9867 0.9867 0.1624 -125.5797 513.6205)" class="st2" cx="239.7" cy="330.8" rx="3.5" ry="3.2"/>
<ellipse transform="matrix(0.1624 -0.9867 0.9867 0.1624 -119.3108 521.1191)" class="st2" cx="247.3" cy="330.8" rx="3.5" ry="3.2"/>
<ellipse transform="matrix(0.1624 -0.9867 0.9867 0.1624 -112.8831 528.6358)" class="st2" cx="254.9" cy="330.8" rx="3.5" ry="3.2"/>
<ellipse transform="matrix(0.1624 -0.9867 0.9867 0.1624 -106.5289 536.0538)" class="st2" cx="262.5" cy="330.8" rx="3.5" ry="3.2"/>
<ellipse transform="matrix(0.1624 -0.9867 0.9867 0.1624 -100.3285 543.6521)" class="st2" cx="270.1" cy="330.9" rx="3.5" ry="3.2"/>
<ellipse transform="matrix(0.1624 -0.9867 0.9867 0.1624 -93.8335 551.0161)" class="st2" cx="277.6" cy="330.8" rx="3.5" ry="3.2"/>
<ellipse transform="matrix(0.1624 -0.9867 0.9867 0.1624 -87.5876 558.4999)" class="st2" cx="285.2" cy="330.8" rx="3.5" ry="3.2"/>
<ellipse transform="matrix(0.1624 -0.9867 0.9867 0.1624 -81.1021 566.1085)" class="st2" cx="292.9" cy="330.8" rx="3.5" ry="3.2"/>
<ellipse transform="matrix(0.1624 -0.9867 0.9867 0.1624 -74.8759 573.5383)" class="st2" cx="300.4" cy="330.9" rx="3.5" ry="3.2"/>
<ellipse transform="matrix(0.1624 -0.9867 0.9867 0.1624 -68.5643 581.0696)" class="st2" cx="308" cy="330.9" rx="3.5" ry="3.2"/>
<ellipse transform="matrix(0.1624 -0.9867 0.9867 0.1624 -62.0972 588.4236)" class="st2" cx="315.5" cy="330.8" rx="3.5" ry="3.2"/>
<ellipse transform="matrix(0.1624 -0.9867 0.9867 0.1624 -55.9172 596.028)" class="st2" cx="323.1" cy="331" rx="3.5" ry="3.2"/>
<ellipse transform="matrix(0.1624 -0.9867 0.9867 0.1624 -49.4007 603.4387)" class="st2" cx="330.7" cy="330.8" rx="3.5" ry="3.2"/>
<ellipse transform="matrix(0.1624 -0.9867 0.9867 0.1624 -43.0046 610.9252)" class="st2" cx="338.3" cy="330.8" rx="3.5" ry="3.2"/>
<ellipse transform="matrix(0.1624 -0.9867 0.9867 0.1624 -36.8725 618.4091)" class="st2" cx="345.8" cy="330.9" rx="3.5" ry="3.2"/>
<text transform="matrix(1.0331 0 0 1 262.4985 238.0176)" class="st6 st7">SOUND BOOTH</text>
<g>
	<path d="M402.2,72.3c-17.5,12.8-60.9,21.9-111.6,21.9c-66.2,0-119.8-15.5-119.8-34.5h239.7C410.4,64.1,407.5,68.4,402.2,72.3z"/>
</g>
<text transform="matrix(1.1817 0 0 1 263.7734 80.4771)" class="st8 st6 st9">STAGE</text>
</svg>
