<?xml version="1.0" encoding="utf-8"?>
<!-- Generator: Adobe Illustrator 26.3.1, SVG Export Plug-In . SVG Version: 6.00 Build 0)  -->
<svg version="1.1" id="圖層_1" xmlns="http://www.w3.org/2000/svg" xmlns:xlink="http://www.w3.org/1999/xlink" x="0px" y="0px"
	 viewBox="0 0 536 406.2" style="enable-background:new 0 0 536 406.2;" xml:space="preserve">
<style type="text/css">
	.st0{fill:#D9E6FF;stroke:#C1C1C1;stroke-miterlimit:10;}
	.st1{fill:#D9E6FF;stroke:#C1C1C1;stroke-miterlimit:9.9999;}
	.st2{fill:#1654D3;}
	.st3{fill:#050505;}
	.st4{fill:#FFFFFF;}
	.st5{font-family:'ArialMT';}
	.st6{font-size:15.0519px;}
	.st7{fill:none;stroke:#050505;stroke-miterlimit:10;}
</style>
<g>
	<path class="st0" d="M378.9,51.6c-1.6-3.6-2.6-5.8-2.6-5.8s0,0,0-0.1h-0.1l-52.4-22.8c0,0-111.7,0-123.9,0l-52.4,22.8
		c0,0-0.1,0-0.2,0.1c-2.6,5.7-30.9,69.2-30.9,69.2s25.8,31.7,26.6,32.3c-0.2,14.1-2.7,224.7-2.7,224.7c0,0.4,121.5,59.2,243.1,0.7
		l-2.7-225.4l26.5-32.4C404.7,109.4,385.9,67.3,378.9,51.6z"/>
	<path class="st0" d="M152.5,367.3c0,0.4,109.2,53.2,218.5,0.8c-0.1-6.8-2.6-183.7-3-215.8c-106.1,37.4-212.2,0-212.2,0s0,0-0.1,0
		c-0.3,17-3.3,215.2-3.3,215.2"/>
	<path class="st1" d="M174.1,106.3c-8.6,19.2-18.3,40.9-18.3,40.9s106,37.3,212.1,0l-31-69.6c-74.3,28.4-150,0-150,0
		S180.9,91.2,174.1,106.3z"/>
</g>
<g>
	<path class="st2" d="M431.4,104.8"/>
	<path class="st2" d="M433,107.2"/>
</g>
<g>
	<path class="st3" d="M200,57.5c-0.8-0.3-1.2-0.4-1.2-0.4V41.3h125v15.8C266.3,79.2,208.8,60.6,200,57.5z"/>
</g>
<text transform="matrix(1.0044 0 0 1 242.4083 58.3503)" class="st4 st5 st6">STAGE</text>
<path class="st2" d="M198.9,23.4"/>
<g>
	<path class="st7" d="M90.8,106.5"/>
</g>
<path class="st2" d="M205.4,22.9"/>
<ellipse transform="matrix(0.1624 -0.9867 0.9867 0.1624 69.223 276.2834)" class="st2" cx="197.3" cy="97.4" rx="3.5" ry="3.2"/>
<ellipse transform="matrix(0.1624 -0.9867 0.9867 0.1624 74.6525 287.2702)" class="st2" cx="206.5" cy="99.7" rx="3.5" ry="3.2"/>
<ellipse transform="matrix(0.1624 -0.9867 0.9867 0.1624 80.3441 297.8003)" class="st2" cx="215.6" cy="101.6" rx="3.5" ry="3.2"/>
<ellipse transform="matrix(0.1624 -0.9867 0.9867 0.1624 86.0503 308.648)" class="st2" cx="224.8" cy="103.6" rx="3.5" ry="3.2"/>
<ellipse transform="matrix(0.1624 -0.9867 0.9867 0.1624 92.2352 318.7592)" class="st2" cx="233.9" cy="105.1" rx="3.5" ry="3.2"/>
<ellipse transform="matrix(0.1624 -0.9867 0.9867 0.1624 98.9893 328.6794)" class="st2" cx="243.1" cy="106" rx="3.5" ry="3.2"/>
<ellipse transform="matrix(0.1624 -0.9867 0.9867 0.1624 105.4856 338.542)" class="st2" cx="252.2" cy="107.1" rx="3.5" ry="3.2"/>
<ellipse transform="matrix(0.1624 -0.9867 0.9867 0.1624 112.8682 347.8653)" class="st2" cx="261.3" cy="107.5" rx="3.5" ry="3.2"/>
<ellipse transform="matrix(0.1624 -0.9867 0.9867 0.1624 120.4791 356.9115)" class="st2" cx="270.5" cy="107.5" rx="3.5" ry="3.2"/>
<ellipse transform="matrix(0.1624 -0.9867 0.9867 0.1624 128.3878 365.8065)" class="st2" cx="279.7" cy="107.3" rx="3.5" ry="3.2"/>
<ellipse transform="matrix(0.1624 -0.9867 0.9867 0.1624 137.2659 373.7762)" class="st2" cx="288.8" cy="106" rx="3.5" ry="3.2"/>
<ellipse transform="matrix(0.1624 -0.9867 0.9867 0.1624 145.8444 381.8815)" class="st2" cx="297.9" cy="105" rx="3.5" ry="3.2"/>
<ellipse transform="matrix(0.1624 -0.9867 0.9867 0.1624 154.9923 389.7957)" class="st2" cx="307.1" cy="103.6" rx="3.5" ry="3.2"/>
<ellipse transform="matrix(0.1624 -0.9867 0.9867 0.1624 164.2572 397.4139)" class="st2" cx="316.2" cy="102" rx="3.5" ry="3.2"/>
<ellipse transform="matrix(0.1624 -0.9867 0.9867 0.1624 174.7038 404.0268)" class="st2" cx="325.3" cy="99.1" rx="3.5" ry="3.2"/>
<ellipse transform="matrix(0.1624 -0.9867 0.9867 0.1624 54.4219 288.847)" class="st2" cx="197.3" cy="112.4" rx="3.5" ry="3.2"/>
<ellipse transform="matrix(0.1624 -0.9867 0.9867 0.1624 59.8513 299.8339)" class="st2" cx="206.5" cy="114.7" rx="3.5" ry="3.2"/>
<ellipse transform="matrix(0.1624 -0.9867 0.9867 0.1624 65.5431 310.3639)" class="st2" cx="215.6" cy="116.6" rx="3.5" ry="3.2"/>
<ellipse transform="matrix(0.1624 -0.9867 0.9867 0.1624 71.2492 321.2115)" class="st2" cx="224.8" cy="118.6" rx="3.5" ry="3.2"/>
<ellipse transform="matrix(0.1624 -0.9867 0.9867 0.1624 77.4341 331.3228)" class="st2" cx="233.9" cy="120.1" rx="3.5" ry="3.2"/>
<ellipse transform="matrix(0.1624 -0.9867 0.9867 0.1624 84.1883 341.2429)" class="st2" cx="243.1" cy="121" rx="3.5" ry="3.2"/>
<ellipse transform="matrix(0.1624 -0.9867 0.9867 0.1624 90.6845 351.1054)" class="st2" cx="252.2" cy="122.1" rx="3.5" ry="3.2"/>
<ellipse transform="matrix(0.1624 -0.9867 0.9867 0.1624 98.0672 360.4289)" class="st2" cx="261.3" cy="122.5" rx="3.5" ry="3.2"/>
<ellipse transform="matrix(0.1624 -0.9867 0.9867 0.1624 105.678 369.4749)" class="st2" cx="270.5" cy="122.5" rx="3.5" ry="3.2"/>
<ellipse transform="matrix(0.1624 -0.9867 0.9867 0.1624 113.5867 378.37)" class="st2" cx="279.7" cy="122.3" rx="3.5" ry="3.2"/>
<ellipse transform="matrix(0.1624 -0.9867 0.9867 0.1624 122.4648 386.3396)" class="st2" cx="288.8" cy="121" rx="3.5" ry="3.2"/>
<ellipse transform="matrix(0.1624 -0.9867 0.9867 0.1624 131.0432 394.445)" class="st2" cx="297.9" cy="120" rx="3.5" ry="3.2"/>
<ellipse transform="matrix(0.1624 -0.9867 0.9867 0.1624 140.1912 402.3592)" class="st2" cx="307.1" cy="118.6" rx="3.5" ry="3.2"/>
<ellipse transform="matrix(0.1624 -0.9867 0.9867 0.1624 149.4559 409.9775)" class="st2" cx="316.2" cy="117" rx="3.5" ry="3.2"/>
<ellipse transform="matrix(0.1624 -0.9867 0.9867 0.1624 159.9027 416.5902)" class="st2" cx="325.3" cy="114.1" rx="3.5" ry="3.2"/>
<ellipse transform="matrix(0.1624 -0.9867 0.9867 0.1624 34.7483 290.1001)" class="st2" cx="188.2" cy="124.6" rx="3.5" ry="3.2"/>
<ellipse transform="matrix(0.1624 -0.9867 0.9867 0.1624 39.6208 301.4105)" class="st2" cx="197.3" cy="127.4" rx="3.5" ry="3.2"/>
<ellipse transform="matrix(0.1624 -0.9867 0.9867 0.1624 45.0502 312.3973)" class="st2" cx="206.5" cy="129.7" rx="3.5" ry="3.2"/>
<ellipse transform="matrix(0.1624 -0.9867 0.9867 0.1624 50.7419 322.9274)" class="st2" cx="215.6" cy="131.6" rx="3.5" ry="3.2"/>
<ellipse transform="matrix(0.1624 -0.9867 0.9867 0.1624 56.4481 333.775)" class="st2" cx="224.8" cy="133.6" rx="3.5" ry="3.2"/>
<ellipse transform="matrix(0.1624 -0.9867 0.9867 0.1624 62.6329 343.8864)" class="st2" cx="233.9" cy="135.1" rx="3.5" ry="3.2"/>
<ellipse transform="matrix(0.1624 -0.9867 0.9867 0.1624 69.3872 353.8064)" class="st2" cx="243.1" cy="136" rx="3.5" ry="3.2"/>
<ellipse transform="matrix(0.1624 -0.9867 0.9867 0.1624 75.8834 363.6689)" class="st2" cx="252.2" cy="137.1" rx="3.5" ry="3.2"/>
<ellipse transform="matrix(0.1624 -0.9867 0.9867 0.1624 83.266 372.9925)" class="st2" cx="261.3" cy="137.5" rx="3.5" ry="3.2"/>
<ellipse transform="matrix(0.1624 -0.9867 0.9867 0.1624 90.8768 382.0385)" class="st2" cx="270.5" cy="137.5" rx="3.5" ry="3.2"/>
<ellipse transform="matrix(0.1624 -0.9867 0.9867 0.1624 98.7855 390.9335)" class="st2" cx="279.7" cy="137.3" rx="3.5" ry="3.2"/>
<ellipse transform="matrix(0.1624 -0.9867 0.9867 0.1624 107.6636 398.9032)" class="st2" cx="288.8" cy="136" rx="3.5" ry="3.2"/>
<ellipse transform="matrix(0.1624 -0.9867 0.9867 0.1624 116.2422 407.0086)" class="st2" cx="297.9" cy="135" rx="3.5" ry="3.2"/>
<ellipse transform="matrix(0.1624 -0.9867 0.9867 0.1624 125.3901 414.9226)" class="st2" cx="307.1" cy="133.6" rx="3.5" ry="3.2"/>
<ellipse transform="matrix(0.1624 -0.9867 0.9867 0.1624 134.655 422.541)" class="st2" cx="316.2" cy="132" rx="3.5" ry="3.2"/>
<ellipse transform="matrix(0.1624 -0.9867 0.9867 0.1624 145.1015 429.1539)" class="st2" cx="325.3" cy="129.1" rx="3.5" ry="3.2"/>
<ellipse transform="matrix(0.1624 -0.9867 0.9867 0.1624 155.2171 436.1272)" class="st2" cx="334.5" cy="126.6" rx="3.5" ry="3.2"/>
<ellipse transform="matrix(0.1624 -0.9867 0.9867 0.1624 19.9472 302.6636)" class="st2" cx="188.2" cy="139.6" rx="3.5" ry="3.2"/>
<ellipse transform="matrix(0.1624 -0.9867 0.9867 0.1624 24.8195 313.974)" class="st2" cx="197.3" cy="142.4" rx="3.5" ry="3.2"/>
<ellipse transform="matrix(0.1624 -0.9867 0.9867 0.1624 30.2491 324.9608)" class="st2" cx="206.5" cy="144.7" rx="3.5" ry="3.2"/>
<ellipse transform="matrix(0.1624 -0.9867 0.9867 0.1624 35.9407 335.491)" class="st2" cx="215.6" cy="146.6" rx="3.5" ry="3.2"/>
<ellipse transform="matrix(0.1624 -0.9867 0.9867 0.1624 41.647 346.3385)" class="st2" cx="224.8" cy="148.6" rx="3.5" ry="3.2"/>
<ellipse transform="matrix(0.1624 -0.9867 0.9867 0.1624 47.8318 356.4498)" class="st2" cx="233.9" cy="150.1" rx="3.5" ry="3.2"/>
<ellipse transform="matrix(0.1624 -0.9867 0.9867 0.1624 54.5861 366.3698)" class="st2" cx="243.1" cy="151" rx="3.5" ry="3.2"/>
<ellipse transform="matrix(0.1624 -0.9867 0.9867 0.1624 61.0823 376.2325)" class="st2" cx="252.2" cy="152.1" rx="3.5" ry="3.2"/>
<ellipse transform="matrix(0.1624 -0.9867 0.9867 0.1624 68.4649 385.556)" class="st2" cx="261.3" cy="152.5" rx="3.5" ry="3.2"/>
<ellipse transform="matrix(0.1624 -0.9867 0.9867 0.1624 76.0758 394.602)" class="st2" cx="270.5" cy="152.5" rx="3.5" ry="3.2"/>
<ellipse transform="matrix(0.1624 -0.9867 0.9867 0.1624 83.9845 403.4971)" class="st2" cx="279.7" cy="152.3" rx="3.5" ry="3.2"/>
<ellipse transform="matrix(0.1624 -0.9867 0.9867 0.1624 92.8625 411.4668)" class="st2" cx="288.8" cy="151" rx="3.5" ry="3.2"/>
<ellipse transform="matrix(0.1624 -0.9867 0.9867 0.1624 101.441 419.5721)" class="st2" cx="297.9" cy="150" rx="3.5" ry="3.2"/>
<ellipse transform="matrix(0.1624 -0.9867 0.9867 0.1624 110.589 427.4862)" class="st2" cx="307.1" cy="148.6" rx="3.5" ry="3.2"/>
<ellipse transform="matrix(0.1624 -0.9867 0.9867 0.1624 119.8539 435.1044)" class="st2" cx="316.2" cy="147" rx="3.5" ry="3.2"/>
<ellipse transform="matrix(0.1624 -0.9867 0.9867 0.1624 130.3004 441.7173)" class="st2" cx="325.3" cy="144.1" rx="3.5" ry="3.2"/>
<ellipse transform="matrix(0.1624 -0.9867 0.9867 0.1624 140.416 448.6908)" class="st2" cx="334.5" cy="141.6" rx="3.5" ry="3.2"/>
<ellipse transform="matrix(0.1624 -0.9867 0.9867 0.1624 -9.2249 328.2154)" class="st2" cx="188.7" cy="169.5" rx="3.5" ry="3.2"/>
<ellipse transform="matrix(0.1624 -0.9867 0.9867 0.1624 -4.4596 339.5694)" class="st2" cx="197.8" cy="172.4" rx="3.5" ry="3.2"/>
<ellipse transform="matrix(0.1624 -0.9867 0.9867 0.1624 0.9736 350.5332)" class="st2" cx="207" cy="174.7" rx="3.5" ry="3.2"/>
<ellipse transform="matrix(0.1624 -0.9867 0.9867 0.1624 18.5678 381.9529)" class="st2" cx="234.3" cy="180" rx="3.5" ry="3.2"/>
<ellipse transform="matrix(0.1624 -0.9867 0.9867 0.1624 25.2148 391.9166)" class="st2" cx="243.5" cy="181.1" rx="3.5" ry="3.2"/>
<ellipse transform="matrix(0.1624 -0.9867 0.9867 0.1624 31.8257 401.6894)" class="st2" cx="252.5" cy="182.1" rx="3.5" ry="3.2"/>
<ellipse transform="matrix(0.1624 -0.9867 0.9867 0.1624 39.1011 411.0565)" class="st2" cx="261.7" cy="182.5" rx="3.5" ry="3.2"/>
<ellipse transform="matrix(0.1624 -0.9867 0.9867 0.1624 46.7159 420.0795)" class="st2" cx="270.8" cy="182.5" rx="3.5" ry="3.2"/>
<ellipse transform="matrix(0.1624 -0.9867 0.9867 0.1624 54.6284 428.9515)" class="st2" cx="280" cy="182.3" rx="3.5" ry="3.2"/>
<ellipse transform="matrix(0.1624 -0.9867 0.9867 0.1624 63.5102 436.898)" class="st2" cx="289.1" cy="181" rx="3.5" ry="3.2"/>
<ellipse transform="matrix(0.1624 -0.9867 0.9867 0.1624 90.5129 460.4665)" class="st2" cx="316.5" cy="176.9" rx="3.5" ry="3.2"/>
<ellipse transform="matrix(0.1624 -0.9867 0.9867 0.1624 100.9633 467.0563)" class="st2" cx="325.6" cy="174.1" rx="3.5" ry="3.2"/>
<ellipse transform="matrix(0.1624 -0.9867 0.9867 0.1624 110.9718 474.0732)" class="st2" cx="334.7" cy="171.7" rx="3.5" ry="3.2"/>
<ellipse transform="matrix(0.1624 -0.9867 0.9867 0.1624 121.8656 480.336)" class="st2" cx="343.9" cy="168.4" rx="3.5" ry="3.2"/>
<ellipse transform="matrix(0.1624 -0.9867 0.9867 0.1624 132.905 486.3379)" class="st2" cx="352.9" cy="164.9" rx="3.5" ry="3.2"/>
<ellipse transform="matrix(0.1624 -0.9867 0.9867 0.1624 -18.63 305.1133)" class="st2" cx="170.4" cy="163.5" rx="3.5" ry="3.2"/>
<ellipse transform="matrix(0.1624 -0.9867 0.9867 0.1624 -14.6738 317.349)" class="st2" cx="179.6" cy="167.3" rx="3.5" ry="3.2"/>
<ellipse transform="matrix(0.1624 -0.9867 0.9867 0.1624 -24.026 340.779)" class="st2" cx="188.7" cy="184.5" rx="3.5" ry="3.2"/>
<ellipse transform="matrix(0.1624 -0.9867 0.9867 0.1624 -19.2608 352.1329)" class="st2" cx="197.8" cy="187.4" rx="3.5" ry="3.2"/>
<ellipse transform="matrix(0.1624 -0.9867 0.9867 0.1624 -13.8275 363.0967)" class="st2" cx="207" cy="189.7" rx="3.5" ry="3.2"/>
<ellipse transform="matrix(0.1624 -0.9867 0.9867 0.1624 3.7667 394.5164)" class="st2" cx="234.3" cy="195" rx="3.5" ry="3.2"/>
<ellipse transform="matrix(0.1624 -0.9867 0.9867 0.1624 10.4136 404.4801)" class="st2" cx="243.5" cy="196.1" rx="3.5" ry="3.2"/>
<ellipse transform="matrix(0.1624 -0.9867 0.9867 0.1624 17.0247 414.253)" class="st2" cx="252.5" cy="197.1" rx="3.5" ry="3.2"/>
<ellipse transform="matrix(0.1624 -0.9867 0.9867 0.1624 24.3001 423.6201)" class="st2" cx="261.7" cy="197.5" rx="3.5" ry="3.2"/>
<ellipse transform="matrix(0.1624 -0.9867 0.9867 0.1624 31.9148 432.643)" class="st2" cx="270.8" cy="197.5" rx="3.5" ry="3.2"/>
<ellipse transform="matrix(0.1624 -0.9867 0.9867 0.1624 39.8273 441.515)" class="st2" cx="280" cy="197.3" rx="3.5" ry="3.2"/>
<ellipse transform="matrix(0.1624 -0.9867 0.9867 0.1624 48.7091 449.4615)" class="st2" cx="289.1" cy="196" rx="3.5" ry="3.2"/>
<ellipse transform="matrix(0.1624 -0.9867 0.9867 0.1624 75.7118 473.0302)" class="st2" cx="316.5" cy="191.9" rx="3.5" ry="3.2"/>
<ellipse transform="matrix(0.1624 -0.9867 0.9867 0.1624 86.1623 479.6198)" class="st2" cx="325.6" cy="189.1" rx="3.5" ry="3.2"/>
<ellipse transform="matrix(0.1624 -0.9867 0.9867 0.1624 96.1706 486.6369)" class="st2" cx="334.7" cy="186.7" rx="3.5" ry="3.2"/>
<ellipse transform="matrix(0.1624 -0.9867 0.9867 0.1624 107.0644 492.8996)" class="st2" cx="343.9" cy="183.4" rx="3.5" ry="3.2"/>
<ellipse transform="matrix(0.1624 -0.9867 0.9867 0.1624 118.1039 498.9014)" class="st2" cx="352.9" cy="179.9" rx="3.5" ry="3.2"/>
<ellipse transform="matrix(0.1624 -0.9867 0.9867 0.1624 -33.4312 317.6768)" class="st2" cx="170.4" cy="178.5" rx="3.5" ry="3.2"/>
<ellipse transform="matrix(0.1624 -0.9867 0.9867 0.1624 -29.475 329.9126)" class="st2" cx="179.6" cy="182.3" rx="3.5" ry="3.2"/>
<ellipse transform="matrix(0.1624 -0.9867 0.9867 0.1624 -38.8272 353.3425)" class="st2" cx="188.7" cy="199.5" rx="3.5" ry="3.2"/>
<ellipse transform="matrix(0.1624 -0.9867 0.9867 0.1624 -34.062 364.6965)" class="st2" cx="197.8" cy="202.4" rx="3.5" ry="3.2"/>
<ellipse transform="matrix(0.1624 -0.9867 0.9867 0.1624 -28.6287 375.6602)" class="st2" cx="207" cy="204.7" rx="3.5" ry="3.2"/>
<ellipse transform="matrix(0.1624 -0.9867 0.9867 0.1624 -11.0345 407.08)" class="st2" cx="234.3" cy="210" rx="3.5" ry="3.2"/>
<ellipse transform="matrix(0.1624 -0.9867 0.9867 0.1624 -4.3874 417.0436)" class="st2" cx="243.5" cy="211.1" rx="3.5" ry="3.2"/>
<ellipse transform="matrix(0.1624 -0.9867 0.9867 0.1624 2.2236 426.8164)" class="st2" cx="252.5" cy="212.1" rx="3.5" ry="3.2"/>
<ellipse transform="matrix(0.1624 -0.9867 0.9867 0.1624 9.499 436.1835)" class="st2" cx="261.7" cy="212.5" rx="3.5" ry="3.2"/>
<ellipse transform="matrix(0.1624 -0.9867 0.9867 0.1624 17.1137 445.2065)" class="st2" cx="270.8" cy="212.5" rx="3.5" ry="3.2"/>
<ellipse transform="matrix(0.1624 -0.9867 0.9867 0.1624 25.0261 454.0785)" class="st2" cx="280" cy="212.3" rx="3.5" ry="3.2"/>
<ellipse transform="matrix(0.1624 -0.9867 0.9867 0.1624 33.908 462.0252)" class="st2" cx="289.1" cy="211" rx="3.5" ry="3.2"/>
<ellipse transform="matrix(0.1624 -0.9867 0.9867 0.1624 60.9106 485.5937)" class="st2" cx="316.5" cy="206.9" rx="3.5" ry="3.2"/>
<ellipse transform="matrix(0.1624 -0.9867 0.9867 0.1624 71.3611 492.1834)" class="st2" cx="325.6" cy="204.1" rx="3.5" ry="3.2"/>
<ellipse transform="matrix(0.1624 -0.9867 0.9867 0.1624 81.3695 499.2003)" class="st2" cx="334.7" cy="201.7" rx="3.5" ry="3.2"/>
<ellipse transform="matrix(0.1624 -0.9867 0.9867 0.1624 92.2634 505.4632)" class="st2" cx="343.9" cy="198.4" rx="3.5" ry="3.2"/>
<ellipse transform="matrix(0.1624 -0.9867 0.9867 0.1624 103.3029 511.4649)" class="st2" cx="352.9" cy="194.9" rx="3.5" ry="3.2"/>
<ellipse transform="matrix(0.1624 -0.9867 0.9867 0.1624 -48.2322 330.2403)" class="st2" cx="170.4" cy="193.5" rx="3.5" ry="3.2"/>
<ellipse transform="matrix(0.1624 -0.9867 0.9867 0.1624 -44.276 342.4761)" class="st2" cx="179.6" cy="197.3" rx="3.5" ry="3.2"/>
<ellipse transform="matrix(0.1624 -0.9867 0.9867 0.1624 -53.6283 365.906)" class="st2" cx="188.7" cy="214.5" rx="3.5" ry="3.2"/>
<ellipse transform="matrix(0.1624 -0.9867 0.9867 0.1624 -48.863 377.26)" class="st2" cx="197.8" cy="217.4" rx="3.5" ry="3.2"/>
<ellipse transform="matrix(0.1624 -0.9867 0.9867 0.1624 -43.4297 388.2238)" class="st2" cx="207" cy="219.7" rx="3.5" ry="3.2"/>
<ellipse transform="matrix(0.1624 -0.9867 0.9867 0.1624 -25.8356 419.6435)" class="st2" cx="234.3" cy="225" rx="3.5" ry="3.2"/>
<ellipse transform="matrix(0.1624 -0.9867 0.9867 0.1624 -19.1886 429.6072)" class="st2" cx="243.5" cy="226.1" rx="3.5" ry="3.2"/>
<ellipse transform="matrix(0.1624 -0.9867 0.9867 0.1624 -12.5776 439.38)" class="st2" cx="252.5" cy="227.1" rx="3.5" ry="3.2"/>
<ellipse transform="matrix(0.1624 -0.9867 0.9867 0.1624 -5.3021 448.747)" class="st2" cx="261.7" cy="227.5" rx="3.5" ry="3.2"/>
<ellipse transform="matrix(0.1624 -0.9867 0.9867 0.1624 2.3126 457.7701)" class="st2" cx="270.8" cy="227.5" rx="3.5" ry="3.2"/>
<ellipse transform="matrix(0.1624 -0.9867 0.9867 0.1624 10.2251 466.642)" class="st2" cx="280" cy="227.3" rx="3.5" ry="3.2"/>
<ellipse transform="matrix(0.1624 -0.9867 0.9867 0.1624 19.1068 474.5887)" class="st2" cx="289.1" cy="226" rx="3.5" ry="3.2"/>
<ellipse transform="matrix(0.1624 -0.9867 0.9867 0.1624 46.1095 498.1571)" class="st2" cx="316.5" cy="221.9" rx="3.5" ry="3.2"/>
<ellipse transform="matrix(0.1624 -0.9867 0.9867 0.1624 56.56 504.7469)" class="st2" cx="325.6" cy="219.1" rx="3.5" ry="3.2"/>
<ellipse transform="matrix(0.1624 -0.9867 0.9867 0.1624 66.5684 511.7639)" class="st2" cx="334.7" cy="216.7" rx="3.5" ry="3.2"/>
<ellipse transform="matrix(0.1624 -0.9867 0.9867 0.1624 77.4622 518.0266)" class="st2" cx="343.9" cy="213.4" rx="3.5" ry="3.2"/>
<ellipse transform="matrix(0.1624 -0.9867 0.9867 0.1624 88.5017 524.0284)" class="st2" cx="352.9" cy="209.9" rx="3.5" ry="3.2"/>
<ellipse transform="matrix(0.1624 -0.9867 0.9867 0.1624 -63.0333 342.8038)" class="st2" cx="170.4" cy="208.5" rx="3.5" ry="3.2"/>
<ellipse transform="matrix(0.1624 -0.9867 0.9867 0.1624 -59.0772 355.0396)" class="st2" cx="179.6" cy="212.3" rx="3.5" ry="3.2"/>
<ellipse transform="matrix(0.1624 -0.9867 0.9867 0.1624 -68.4295 378.4695)" class="st2" cx="188.7" cy="229.5" rx="3.5" ry="3.2"/>
<ellipse transform="matrix(0.1624 -0.9867 0.9867 0.1624 -63.6641 389.8235)" class="st2" cx="197.8" cy="232.4" rx="3.5" ry="3.2"/>
<ellipse transform="matrix(0.1624 -0.9867 0.9867 0.1624 -58.2309 400.7873)" class="st2" cx="207" cy="234.7" rx="3.5" ry="3.2"/>
<ellipse transform="matrix(0.1624 -0.9867 0.9867 0.1624 -40.6367 432.207)" class="st2" cx="234.3" cy="240" rx="3.5" ry="3.2"/>
<ellipse transform="matrix(0.1624 -0.9867 0.9867 0.1624 -33.9897 442.1707)" class="st2" cx="243.5" cy="241.1" rx="3.5" ry="3.2"/>
<ellipse transform="matrix(0.1624 -0.9867 0.9867 0.1624 -27.3786 451.9436)" class="st2" cx="252.5" cy="242.1" rx="3.5" ry="3.2"/>
<ellipse transform="matrix(0.1624 -0.9867 0.9867 0.1624 -20.1033 461.3106)" class="st2" cx="261.7" cy="242.5" rx="3.5" ry="3.2"/>
<ellipse transform="matrix(0.1624 -0.9867 0.9867 0.1624 -12.4887 470.3336)" class="st2" cx="270.8" cy="242.5" rx="3.5" ry="3.2"/>
<ellipse transform="matrix(0.1624 -0.9867 0.9867 0.1624 -4.5762 479.2056)" class="st2" cx="280" cy="242.3" rx="3.5" ry="3.2"/>
<ellipse transform="matrix(0.1624 -0.9867 0.9867 0.1624 4.3057 487.1521)" class="st2" cx="289.1" cy="241" rx="3.5" ry="3.2"/>
<ellipse transform="matrix(0.1624 -0.9867 0.9867 0.1624 31.3085 510.7207)" class="st2" cx="316.5" cy="236.9" rx="3.5" ry="3.2"/>
<ellipse transform="matrix(0.1624 -0.9867 0.9867 0.1624 41.7589 517.3104)" class="st2" cx="325.6" cy="234.1" rx="3.5" ry="3.2"/>
<ellipse transform="matrix(0.1624 -0.9867 0.9867 0.1624 51.7673 524.3274)" class="st2" cx="334.7" cy="231.7" rx="3.5" ry="3.2"/>
<ellipse transform="matrix(0.1624 -0.9867 0.9867 0.1624 62.6611 530.5901)" class="st2" cx="343.9" cy="228.4" rx="3.5" ry="3.2"/>
<ellipse transform="matrix(0.1624 -0.9867 0.9867 0.1624 73.7005 536.592)" class="st2" cx="352.9" cy="224.9" rx="3.5" ry="3.2"/>
<ellipse transform="matrix(0.1624 -0.9867 0.9867 0.1624 -77.8344 355.3672)" class="st2" cx="170.4" cy="223.5" rx="3.5" ry="3.2"/>
<ellipse transform="matrix(0.1624 -0.9867 0.9867 0.1624 -73.8783 367.6031)" class="st2" cx="179.6" cy="227.3" rx="3.5" ry="3.2"/>
<ellipse transform="matrix(0.1624 -0.9867 0.9867 0.1624 -83.2305 391.0331)" class="st2" cx="188.7" cy="244.5" rx="3.5" ry="3.2"/>
<ellipse transform="matrix(0.1624 -0.9867 0.9867 0.1624 -78.4653 402.387)" class="st2" cx="197.8" cy="247.4" rx="3.5" ry="3.2"/>
<ellipse transform="matrix(0.1624 -0.9867 0.9867 0.1624 -73.0319 413.3509)" class="st2" cx="207" cy="249.7" rx="3.5" ry="3.2"/>
<ellipse transform="matrix(0.1624 -0.9867 0.9867 0.1624 -55.4377 444.7706)" class="st2" cx="234.3" cy="255" rx="3.5" ry="3.2"/>
<ellipse transform="matrix(0.1624 -0.9867 0.9867 0.1624 -48.7907 454.7343)" class="st2" cx="243.5" cy="256.1" rx="3.5" ry="3.2"/>
<ellipse transform="matrix(0.1624 -0.9867 0.9867 0.1624 -42.1798 464.5071)" class="st2" cx="252.5" cy="257.1" rx="3.5" ry="3.2"/>
<ellipse transform="matrix(0.1624 -0.9867 0.9867 0.1624 -34.9044 473.8741)" class="st2" cx="261.7" cy="257.5" rx="3.5" ry="3.2"/>
<ellipse transform="matrix(0.1624 -0.9867 0.9867 0.1624 -27.2898 482.8971)" class="st2" cx="270.8" cy="257.5" rx="3.5" ry="3.2"/>
<ellipse transform="matrix(0.1624 -0.9867 0.9867 0.1624 -19.3773 491.769)" class="st2" cx="280" cy="257.3" rx="3.5" ry="3.2"/>
<ellipse transform="matrix(0.1624 -0.9867 0.9867 0.1624 -10.4953 499.7157)" class="st2" cx="289.1" cy="256" rx="3.5" ry="3.2"/>
<ellipse transform="matrix(0.1624 -0.9867 0.9867 0.1624 16.5074 523.2842)" class="st2" cx="316.5" cy="251.9" rx="3.5" ry="3.2"/>
<ellipse transform="matrix(0.1624 -0.9867 0.9867 0.1624 26.9578 529.874)" class="st2" cx="325.6" cy="249.1" rx="3.5" ry="3.2"/>
<ellipse transform="matrix(0.1624 -0.9867 0.9867 0.1624 36.9662 536.8909)" class="st2" cx="334.7" cy="246.7" rx="3.5" ry="3.2"/>
<ellipse transform="matrix(0.1624 -0.9867 0.9867 0.1624 47.8601 543.1537)" class="st2" cx="343.9" cy="243.4" rx="3.5" ry="3.2"/>
<ellipse transform="matrix(0.1624 -0.9867 0.9867 0.1624 58.8994 549.1556)" class="st2" cx="352.9" cy="239.9" rx="3.5" ry="3.2"/>
<ellipse transform="matrix(0.1624 -0.9867 0.9867 0.1624 -92.6356 367.9308)" class="st2" cx="170.4" cy="238.5" rx="3.5" ry="3.2"/>
<ellipse transform="matrix(0.1624 -0.9867 0.9867 0.1624 -88.6793 380.1667)" class="st2" cx="179.6" cy="242.3" rx="3.5" ry="3.2"/>
<ellipse transform="matrix(0.1624 -0.9867 0.9867 0.1624 -98.0316 403.5965)" class="st2" cx="188.7" cy="259.5" rx="3.5" ry="3.2"/>
<ellipse transform="matrix(0.1624 -0.9867 0.9867 0.1624 -93.2663 414.9506)" class="st2" cx="197.8" cy="262.4" rx="3.5" ry="3.2"/>
<ellipse transform="matrix(0.1624 -0.9867 0.9867 0.1624 -87.8331 425.9144)" class="st2" cx="207" cy="264.7" rx="3.5" ry="3.2"/>
<ellipse transform="matrix(0.1624 -0.9867 0.9867 0.1624 -70.2389 457.334)" class="st2" cx="234.3" cy="270" rx="3.5" ry="3.2"/>
<ellipse transform="matrix(0.1624 -0.9867 0.9867 0.1624 -63.5919 467.2978)" class="st2" cx="243.5" cy="271.1" rx="3.5" ry="3.2"/>
<ellipse transform="matrix(0.1624 -0.9867 0.9867 0.1624 -56.9809 477.0705)" class="st2" cx="252.5" cy="272.1" rx="3.5" ry="3.2"/>
<ellipse transform="matrix(0.1624 -0.9867 0.9867 0.1624 -49.7054 486.4377)" class="st2" cx="261.7" cy="272.5" rx="3.5" ry="3.2"/>
<ellipse transform="matrix(0.1624 -0.9867 0.9867 0.1624 -42.0908 495.4607)" class="st2" cx="270.8" cy="272.5" rx="3.5" ry="3.2"/>
<ellipse transform="matrix(0.1624 -0.9867 0.9867 0.1624 -34.1783 504.3326)" class="st2" cx="280" cy="272.3" rx="3.5" ry="3.2"/>
<ellipse transform="matrix(0.1624 -0.9867 0.9867 0.1624 -25.2965 512.2793)" class="st2" cx="289.1" cy="271" rx="3.5" ry="3.2"/>
<ellipse transform="matrix(0.1624 -0.9867 0.9867 0.1624 1.7061 535.8478)" class="st2" cx="316.5" cy="266.9" rx="3.5" ry="3.2"/>
<ellipse transform="matrix(0.1624 -0.9867 0.9867 0.1624 12.1566 542.4376)" class="st2" cx="325.6" cy="264.1" rx="3.5" ry="3.2"/>
<ellipse transform="matrix(0.1624 -0.9867 0.9867 0.1624 22.165 549.4545)" class="st2" cx="334.7" cy="261.7" rx="3.5" ry="3.2"/>
<ellipse transform="matrix(0.1624 -0.9867 0.9867 0.1624 33.0588 555.7173)" class="st2" cx="343.9" cy="258.4" rx="3.5" ry="3.2"/>
<ellipse transform="matrix(0.1624 -0.9867 0.9867 0.1624 44.0983 561.7191)" class="st2" cx="352.9" cy="254.9" rx="3.5" ry="3.2"/>
<ellipse transform="matrix(0.1624 -0.9867 0.9867 0.1624 -107.4367 380.4944)" class="st2" cx="170.4" cy="253.5" rx="3.5" ry="3.2"/>
<ellipse transform="matrix(0.1624 -0.9867 0.9867 0.1624 -103.4806 392.7303)" class="st2" cx="179.6" cy="257.3" rx="3.5" ry="3.2"/>
<ellipse transform="matrix(0.1624 -0.9867 0.9867 0.1624 -112.8327 416.1602)" class="st2" cx="188.7" cy="274.5" rx="3.5" ry="3.2"/>
<ellipse transform="matrix(0.1624 -0.9867 0.9867 0.1624 -108.0675 427.5141)" class="st2" cx="197.8" cy="277.4" rx="3.5" ry="3.2"/>
<ellipse transform="matrix(0.1624 -0.9867 0.9867 0.1624 -102.6342 438.4779)" class="st2" cx="207" cy="279.7" rx="3.5" ry="3.2"/>
<ellipse transform="matrix(0.1624 -0.9867 0.9867 0.1624 -85.0401 469.8976)" class="st2" cx="234.3" cy="285" rx="3.5" ry="3.2"/>
<ellipse transform="matrix(0.1624 -0.9867 0.9867 0.1624 -78.393 479.8612)" class="st2" cx="243.5" cy="286.1" rx="3.5" ry="3.2"/>
<ellipse transform="matrix(0.1624 -0.9867 0.9867 0.1624 -71.7819 489.6341)" class="st2" cx="252.5" cy="287.1" rx="3.5" ry="3.2"/>
<ellipse transform="matrix(0.1624 -0.9867 0.9867 0.1624 -64.5065 499.0012)" class="st2" cx="261.7" cy="287.5" rx="3.5" ry="3.2"/>
<ellipse transform="matrix(0.1624 -0.9867 0.9867 0.1624 -56.8919 508.0241)" class="st2" cx="270.8" cy="287.5" rx="3.5" ry="3.2"/>
<ellipse transform="matrix(0.1624 -0.9867 0.9867 0.1624 -48.9795 516.8961)" class="st2" cx="280" cy="287.3" rx="3.5" ry="3.2"/>
<ellipse transform="matrix(0.1624 -0.9867 0.9867 0.1624 -40.0976 524.8427)" class="st2" cx="289.1" cy="286" rx="3.5" ry="3.2"/>
<ellipse transform="matrix(0.1624 -0.9867 0.9867 0.1624 -13.0949 548.4113)" class="st2" cx="316.5" cy="281.9" rx="3.5" ry="3.2"/>
<ellipse transform="matrix(0.1624 -0.9867 0.9867 0.1624 -2.6445 555.0011)" class="st2" cx="325.6" cy="279.1" rx="3.5" ry="3.2"/>
<ellipse transform="matrix(0.1624 -0.9867 0.9867 0.1624 7.364 562.018)" class="st2" cx="334.7" cy="276.7" rx="3.5" ry="3.2"/>
<ellipse transform="matrix(0.1624 -0.9867 0.9867 0.1624 18.2577 568.2808)" class="st2" cx="343.9" cy="273.4" rx="3.5" ry="3.2"/>
<ellipse transform="matrix(0.1624 -0.9867 0.9867 0.1624 29.2973 574.2825)" class="st2" cx="352.9" cy="269.9" rx="3.5" ry="3.2"/>
<ellipse transform="matrix(0.1624 -0.9867 0.9867 0.1624 -122.2378 393.0579)" class="st2" cx="170.4" cy="268.5" rx="3.5" ry="3.2"/>
<ellipse transform="matrix(0.1624 -0.9867 0.9867 0.1624 -118.2816 405.2938)" class="st2" cx="179.6" cy="272.3" rx="3.5" ry="3.2"/>
<ellipse transform="matrix(0.1624 -0.9867 0.9867 0.1624 -127.6339 428.7237)" class="st2" cx="188.7" cy="289.5" rx="3.5" ry="3.2"/>
<ellipse transform="matrix(0.1624 -0.9867 0.9867 0.1624 -122.8686 440.0776)" class="st2" cx="197.8" cy="292.4" rx="3.5" ry="3.2"/>
<ellipse transform="matrix(0.1624 -0.9867 0.9867 0.1624 -117.4353 451.0415)" class="st2" cx="207" cy="294.7" rx="3.5" ry="3.2"/>
<ellipse transform="matrix(0.1624 -0.9867 0.9867 0.1624 -99.8412 482.4612)" class="st2" cx="234.3" cy="300" rx="3.5" ry="3.2"/>
<ellipse transform="matrix(0.1624 -0.9867 0.9867 0.1624 -93.1942 492.4249)" class="st2" cx="243.5" cy="301.1" rx="3.5" ry="3.2"/>
<ellipse transform="matrix(0.1624 -0.9867 0.9867 0.1624 -86.5832 502.1977)" class="st2" cx="252.5" cy="302.1" rx="3.5" ry="3.2"/>
<ellipse transform="matrix(0.1624 -0.9867 0.9867 0.1624 -79.3076 511.5647)" class="st2" cx="261.7" cy="302.5" rx="3.5" ry="3.2"/>
<ellipse transform="matrix(0.1624 -0.9867 0.9867 0.1624 -71.693 520.5876)" class="st2" cx="270.8" cy="302.5" rx="3.5" ry="3.2"/>
<ellipse transform="matrix(0.1624 -0.9867 0.9867 0.1624 -63.7806 529.4596)" class="st2" cx="280" cy="302.3" rx="3.5" ry="3.2"/>
<ellipse transform="matrix(0.1624 -0.9867 0.9867 0.1624 -54.8987 537.4064)" class="st2" cx="289.1" cy="301" rx="3.5" ry="3.2"/>
<ellipse transform="matrix(0.1624 -0.9867 0.9867 0.1624 -27.896 560.9748)" class="st2" cx="316.5" cy="296.9" rx="3.5" ry="3.2"/>
<ellipse transform="matrix(0.1624 -0.9867 0.9867 0.1624 -17.4456 567.5645)" class="st2" cx="325.6" cy="294.1" rx="3.5" ry="3.2"/>
<ellipse transform="matrix(0.1624 -0.9867 0.9867 0.1624 -7.4372 574.5815)" class="st2" cx="334.7" cy="291.7" rx="3.5" ry="3.2"/>
<ellipse transform="matrix(0.1624 -0.9867 0.9867 0.1624 3.4567 580.8443)" class="st2" cx="343.9" cy="288.4" rx="3.5" ry="3.2"/>
<ellipse transform="matrix(0.1624 -0.9867 0.9867 0.1624 14.4961 586.8461)" class="st2" cx="352.9" cy="284.9" rx="3.5" ry="3.2"/>
<ellipse transform="matrix(0.1624 -0.9867 0.9867 0.1624 -137.0388 405.6215)" class="st2" cx="170.4" cy="283.5" rx="3.5" ry="3.2"/>
<ellipse transform="matrix(0.1624 -0.9867 0.9867 0.1624 -133.0827 417.8573)" class="st2" cx="179.6" cy="287.3" rx="3.5" ry="3.2"/>
<ellipse transform="matrix(0.1624 -0.9867 0.9867 0.1624 -142.435 441.2872)" class="st2" cx="188.7" cy="304.5" rx="3.5" ry="3.2"/>
<ellipse transform="matrix(0.1624 -0.9867 0.9867 0.1624 -137.6696 452.6411)" class="st2" cx="197.8" cy="307.4" rx="3.5" ry="3.2"/>
<ellipse transform="matrix(0.1624 -0.9867 0.9867 0.1624 -132.2365 463.605)" class="st2" cx="207" cy="309.7" rx="3.5" ry="3.2"/>
<ellipse transform="matrix(0.1624 -0.9867 0.9867 0.1624 -114.6423 495.0247)" class="st2" cx="234.3" cy="315" rx="3.5" ry="3.2"/>
<ellipse transform="matrix(0.1624 -0.9867 0.9867 0.1624 -107.9952 504.9884)" class="st2" cx="243.5" cy="316.1" rx="3.5" ry="3.2"/>
<ellipse transform="matrix(0.1624 -0.9867 0.9867 0.1624 -101.3842 514.7612)" class="st2" cx="252.5" cy="317.1" rx="3.5" ry="3.2"/>
<ellipse transform="matrix(0.1624 -0.9867 0.9867 0.1624 -94.1089 524.1282)" class="st2" cx="261.7" cy="317.5" rx="3.5" ry="3.2"/>
<ellipse transform="matrix(0.1624 -0.9867 0.9867 0.1624 -86.4941 533.1512)" class="st2" cx="270.8" cy="317.5" rx="3.5" ry="3.2"/>
<ellipse transform="matrix(0.1624 -0.9867 0.9867 0.1624 -78.5817 542.0233)" class="st2" cx="280" cy="317.3" rx="3.5" ry="3.2"/>
<ellipse transform="matrix(0.1624 -0.9867 0.9867 0.1624 -69.6998 549.9698)" class="st2" cx="289.1" cy="316" rx="3.5" ry="3.2"/>
<ellipse transform="matrix(0.1624 -0.9867 0.9867 0.1624 -42.6971 573.5384)" class="st2" cx="316.5" cy="311.9" rx="3.5" ry="3.2"/>
<ellipse transform="matrix(0.1624 -0.9867 0.9867 0.1624 -32.2466 580.1281)" class="st2" cx="325.6" cy="309.1" rx="3.5" ry="3.2"/>
<ellipse transform="matrix(0.1624 -0.9867 0.9867 0.1624 -22.2383 587.145)" class="st2" cx="334.7" cy="306.7" rx="3.5" ry="3.2"/>
<ellipse transform="matrix(0.1624 -0.9867 0.9867 0.1624 -11.3443 593.4077)" class="st2" cx="343.9" cy="303.4" rx="3.5" ry="3.2"/>
<ellipse transform="matrix(0.1624 -0.9867 0.9867 0.1624 -0.3051 599.4097)" class="st2" cx="352.9" cy="299.9" rx="3.5" ry="3.2"/>
<ellipse transform="matrix(0.1624 -0.9867 0.9867 0.1624 -151.8401 418.185)" class="st2" cx="170.4" cy="298.5" rx="3.5" ry="3.2"/>
<ellipse transform="matrix(0.1624 -0.9867 0.9867 0.1624 -147.8839 430.4208)" class="st2" cx="179.6" cy="302.3" rx="3.5" ry="3.2"/>
<ellipse transform="matrix(0.1624 -0.9867 0.9867 0.1624 -157.236 453.8508)" class="st2" cx="188.7" cy="319.5" rx="3.5" ry="3.2"/>
<ellipse transform="matrix(0.1624 -0.9867 0.9867 0.1624 -152.4708 465.2047)" class="st2" cx="197.8" cy="322.4" rx="3.5" ry="3.2"/>
<ellipse transform="matrix(0.1624 -0.9867 0.9867 0.1624 -147.0376 476.1685)" class="st2" cx="207" cy="324.7" rx="3.5" ry="3.2"/>
<ellipse transform="matrix(0.1624 -0.9867 0.9867 0.1624 -129.4434 507.5881)" class="st2" cx="234.3" cy="330" rx="3.5" ry="3.2"/>
<ellipse transform="matrix(0.1624 -0.9867 0.9867 0.1624 -122.7963 517.5519)" class="st2" cx="243.5" cy="331.1" rx="3.5" ry="3.2"/>
<ellipse transform="matrix(0.1624 -0.9867 0.9867 0.1624 -116.1853 527.3248)" class="st2" cx="252.5" cy="332.1" rx="3.5" ry="3.2"/>
<ellipse transform="matrix(0.1624 -0.9867 0.9867 0.1624 -108.91 536.6918)" class="st2" cx="261.7" cy="332.5" rx="3.5" ry="3.2"/>
<ellipse transform="matrix(0.1624 -0.9867 0.9867 0.1624 -101.2953 545.7148)" class="st2" cx="270.8" cy="332.5" rx="3.5" ry="3.2"/>
<ellipse transform="matrix(0.1624 -0.9867 0.9867 0.1624 -93.3828 554.5867)" class="st2" cx="280" cy="332.3" rx="3.5" ry="3.2"/>
<ellipse transform="matrix(0.1624 -0.9867 0.9867 0.1624 -84.5009 562.5333)" class="st2" cx="289.1" cy="331" rx="3.5" ry="3.2"/>
<ellipse transform="matrix(0.1624 -0.9867 0.9867 0.1624 -57.4982 586.1019)" class="st2" cx="316.5" cy="326.9" rx="3.5" ry="3.2"/>
<ellipse transform="matrix(0.1624 -0.9867 0.9867 0.1624 -47.0478 592.6917)" class="st2" cx="325.6" cy="324.1" rx="3.5" ry="3.2"/>
<ellipse transform="matrix(0.1624 -0.9867 0.9867 0.1624 -37.0393 599.7086)" class="st2" cx="334.7" cy="321.7" rx="3.5" ry="3.2"/>
<ellipse transform="matrix(0.1624 -0.9867 0.9867 0.1624 -26.1456 605.9713)" class="st2" cx="343.9" cy="318.4" rx="3.5" ry="3.2"/>
<ellipse transform="matrix(0.1624 -0.9867 0.9867 0.1624 -15.1061 611.9733)" class="st2" cx="352.9" cy="314.9" rx="3.5" ry="3.2"/>
<ellipse transform="matrix(0.1624 -0.9867 0.9867 0.1624 -166.6411 430.7485)" class="st2" cx="170.4" cy="313.5" rx="3.5" ry="3.2"/>
<ellipse transform="matrix(0.1624 -0.9867 0.9867 0.1624 -162.685 442.9843)" class="st2" cx="179.6" cy="317.3" rx="3.5" ry="3.2"/>
<ellipse transform="matrix(0.1624 -0.9867 0.9867 0.1624 -172.0372 466.4143)" class="st2" cx="188.7" cy="334.5" rx="3.5" ry="3.2"/>
<ellipse transform="matrix(0.1624 -0.9867 0.9867 0.1624 -167.2719 477.7682)" class="st2" cx="197.8" cy="337.4" rx="3.5" ry="3.2"/>
<ellipse transform="matrix(0.1624 -0.9867 0.9867 0.1624 -161.8387 488.732)" class="st2" cx="207" cy="339.7" rx="3.5" ry="3.2"/>
<ellipse transform="matrix(0.1624 -0.9867 0.9867 0.1624 -144.2444 520.1517)" class="st2" cx="234.3" cy="345" rx="3.5" ry="3.2"/>
<ellipse transform="matrix(0.1624 -0.9867 0.9867 0.1624 -137.5974 530.1155)" class="st2" cx="243.5" cy="346.1" rx="3.5" ry="3.2"/>
<ellipse transform="matrix(0.1624 -0.9867 0.9867 0.1624 -130.9864 539.8882)" class="st2" cx="252.5" cy="347.1" rx="3.5" ry="3.2"/>
<ellipse transform="matrix(0.1624 -0.9867 0.9867 0.1624 -123.7111 549.2553)" class="st2" cx="261.7" cy="347.5" rx="3.5" ry="3.2"/>
<ellipse transform="matrix(0.1624 -0.9867 0.9867 0.1624 -116.0964 558.2783)" class="st2" cx="270.8" cy="347.5" rx="3.5" ry="3.2"/>
<ellipse transform="matrix(0.1624 -0.9867 0.9867 0.1624 -108.1839 567.1501)" class="st2" cx="280" cy="347.3" rx="3.5" ry="3.2"/>
<ellipse transform="matrix(0.1624 -0.9867 0.9867 0.1624 -99.3021 575.097)" class="st2" cx="289.1" cy="346" rx="3.5" ry="3.2"/>
<ellipse transform="matrix(0.1624 -0.9867 0.9867 0.1624 -72.2994 598.6654)" class="st2" cx="316.5" cy="341.9" rx="3.5" ry="3.2"/>
<ellipse transform="matrix(0.1624 -0.9867 0.9867 0.1624 -61.849 605.2552)" class="st2" cx="325.6" cy="339.1" rx="3.5" ry="3.2"/>
<ellipse transform="matrix(0.1624 -0.9867 0.9867 0.1624 -51.8405 612.2721)" class="st2" cx="334.7" cy="336.7" rx="3.5" ry="3.2"/>
<ellipse transform="matrix(0.1624 -0.9867 0.9867 0.1624 -40.9467 618.535)" class="st2" cx="343.9" cy="333.4" rx="3.5" ry="3.2"/>
<ellipse transform="matrix(0.1624 -0.9867 0.9867 0.1624 -29.9072 624.5367)" class="st2" cx="352.9" cy="329.9" rx="3.5" ry="3.2"/>
<ellipse transform="matrix(0.1624 -0.9867 0.9867 0.1624 -181.4422 443.3121)" class="st2" cx="170.4" cy="328.5" rx="3.5" ry="3.2"/>
<ellipse transform="matrix(0.1624 -0.9867 0.9867 0.1624 -177.4861 455.5479)" class="st2" cx="179.6" cy="332.3" rx="3.5" ry="3.2"/>
<ellipse transform="matrix(0.1624 -0.9867 0.9867 0.1624 -186.8383 478.9778)" class="st2" cx="188.7" cy="349.5" rx="3.5" ry="3.2"/>
<ellipse transform="matrix(0.1624 -0.9867 0.9867 0.1624 -182.0731 490.3318)" class="st2" cx="197.8" cy="352.4" rx="3.5" ry="3.2"/>
<ellipse transform="matrix(0.1624 -0.9867 0.9867 0.1624 -176.6397 501.2955)" class="st2" cx="207" cy="354.7" rx="3.5" ry="3.2"/>
<ellipse transform="matrix(0.1624 -0.9867 0.9867 0.1624 -159.0456 532.7153)" class="st2" cx="234.3" cy="360" rx="3.5" ry="3.2"/>
<ellipse transform="matrix(0.1624 -0.9867 0.9867 0.1624 -152.3985 542.6789)" class="st2" cx="243.5" cy="361.1" rx="3.5" ry="3.2"/>
<ellipse transform="matrix(0.1624 -0.9867 0.9867 0.1624 -145.7875 552.4517)" class="st2" cx="252.5" cy="362.1" rx="3.5" ry="3.2"/>
<ellipse transform="matrix(0.1624 -0.9867 0.9867 0.1624 -138.5121 561.8188)" class="st2" cx="261.7" cy="362.5" rx="3.5" ry="3.2"/>
<ellipse transform="matrix(0.1624 -0.9867 0.9867 0.1624 -130.8974 570.8417)" class="st2" cx="270.8" cy="362.5" rx="3.5" ry="3.2"/>
<ellipse transform="matrix(0.1624 -0.9867 0.9867 0.1624 -122.9849 579.7137)" class="st2" cx="280" cy="362.3" rx="3.5" ry="3.2"/>
<ellipse transform="matrix(0.1624 -0.9867 0.9867 0.1624 -114.1032 587.6605)" class="st2" cx="289.1" cy="361" rx="3.5" ry="3.2"/>
<ellipse transform="matrix(0.1624 -0.9867 0.9867 0.1624 -87.1004 611.229)" class="st2" cx="316.5" cy="356.9" rx="3.5" ry="3.2"/>
<ellipse transform="matrix(0.1624 -0.9867 0.9867 0.1624 -76.65 617.8188)" class="st2" cx="325.6" cy="354.1" rx="3.5" ry="3.2"/>
<ellipse transform="matrix(0.1624 -0.9867 0.9867 0.1624 -66.6416 624.8356)" class="st2" cx="334.7" cy="351.7" rx="3.5" ry="3.2"/>
<ellipse transform="matrix(0.1624 -0.9867 0.9867 0.1624 -55.7478 631.0984)" class="st2" cx="343.9" cy="348.4" rx="3.5" ry="3.2"/>
<ellipse transform="matrix(0.1624 -0.9867 0.9867 0.1624 -44.7083 637.1002)" class="st2" cx="352.9" cy="344.9" rx="3.5" ry="3.2"/>
<ellipse transform="matrix(0.1624 -0.9867 0.9867 0.1624 -196.2433 455.8756)" class="st2" cx="170.4" cy="343.5" rx="3.5" ry="3.2"/>
<ellipse transform="matrix(0.1624 -0.9867 0.9867 0.1624 -192.2872 468.1114)" class="st2" cx="179.6" cy="347.3" rx="3.5" ry="3.2"/>
<ellipse transform="matrix(0.1624 -0.9867 0.9867 0.1624 -201.6394 491.5414)" class="st2" cx="188.7" cy="364.5" rx="3.5" ry="3.2"/>
<ellipse transform="matrix(0.1624 -0.9867 0.9867 0.1624 -196.8742 502.8953)" class="st2" cx="197.8" cy="367.4" rx="3.5" ry="3.2"/>
<ellipse transform="matrix(0.1624 -0.9867 0.9867 0.1624 -191.4409 513.8591)" class="st2" cx="207" cy="369.7" rx="3.5" ry="3.2"/>
<ellipse transform="matrix(0.1624 -0.9867 0.9867 0.1624 -173.8467 545.2787)" class="st2" cx="234.3" cy="375" rx="3.5" ry="3.2"/>
<ellipse transform="matrix(0.1624 -0.9867 0.9867 0.1624 -167.1998 555.2425)" class="st2" cx="243.4" cy="376.1" rx="3.5" ry="3.2"/>
<ellipse transform="matrix(0.1624 -0.9867 0.9867 0.1624 -160.5887 565.0154)" class="st2" cx="252.5" cy="377.1" rx="3.5" ry="3.2"/>
<ellipse transform="matrix(0.1624 -0.9867 0.9867 0.1624 -153.3132 574.3823)" class="st2" cx="261.7" cy="377.5" rx="3.5" ry="3.2"/>
<ellipse transform="matrix(0.1624 -0.9867 0.9867 0.1624 -145.6986 583.4053)" class="st2" cx="270.8" cy="377.5" rx="3.5" ry="3.2"/>
<ellipse transform="matrix(0.1624 -0.9867 0.9867 0.1624 -137.7861 592.2772)" class="st2" cx="280" cy="377.3" rx="3.5" ry="3.2"/>
<ellipse transform="matrix(0.1624 -0.9867 0.9867 0.1624 -128.9043 600.2239)" class="st2" cx="289.1" cy="376" rx="3.5" ry="3.2"/>
<ellipse transform="matrix(0.1624 -0.9867 0.9867 0.1624 -101.9015 623.7925)" class="st2" cx="316.5" cy="371.9" rx="3.5" ry="3.2"/>
<ellipse transform="matrix(0.1624 -0.9867 0.9867 0.1624 -91.4511 630.3823)" class="st2" cx="325.6" cy="369.1" rx="3.5" ry="3.2"/>
<ellipse transform="matrix(0.1624 -0.9867 0.9867 0.1624 -81.4427 637.3992)" class="st2" cx="334.7" cy="366.7" rx="3.5" ry="3.2"/>
<ellipse transform="matrix(0.1624 -0.9867 0.9867 0.1624 -70.5488 643.662)" class="st2" cx="343.9" cy="363.4" rx="3.5" ry="3.2"/>
<ellipse transform="matrix(0.1624 -0.9867 0.9867 0.1624 -59.5094 649.6638)" class="st2" cx="352.9" cy="359.9" rx="3.5" ry="3.2"/>
<ellipse transform="matrix(0.1624 -0.9867 0.9867 0.1624 -211.0444 468.439)" class="st2" cx="170.4" cy="358.5" rx="3.5" ry="3.2"/>
<ellipse transform="matrix(0.1624 -0.9867 0.9867 0.1624 -207.0884 480.6749)" class="st2" cx="179.6" cy="362.3" rx="3.5" ry="3.2"/>
</svg>
