<?xml version="1.0" encoding="utf-8"?>
<!-- Generator: Adobe Illustrator 26.3.1, SVG Export Plug-In . SVG Version: 6.00 Build 0)  -->
<svg version="1.1" id="圖層_1" xmlns="http://www.w3.org/2000/svg" xmlns:xlink="http://www.w3.org/1999/xlink" x="0px" y="0px"
	 viewBox="0 0 544.8 418.3" style="enable-background:new 0 0 544.8 418.3;" xml:space="preserve">
<style type="text/css">
	.st0{fill:#CACBCC;stroke:#232323;stroke-miterlimit:10;}
	.st1{fill:#1D1D1B;}
	.st2{font-family:'ArialMT';}
	.st3{font-size:37.2173px;}
	.st4{fill:#1654D3;}
	.st5{fill:none;stroke:#1D1D1B;stroke-miterlimit:10;}
	.st6{fill:none;stroke:#1654D3;stroke-miterlimit:10;}
</style>
<g>
	<path class="st0" d="M181.2,155.4L156.3,89c0,0-3-7.9-6-16c13.4-17.5,33.8-26.4,58.9-26.2L345,47.9c23.6,0.2,44.7,10.8,58.9,27.4
		c-2.7,7.2-5.1,13.7-5.1,13.7c-0.1,0.4-24.9,66.4-24.9,66.4"/>
</g>
<g>
	<path class="st0" d="M146.8,319.1c6.5,27.9,31.5,48.7,61.4,48.7h138.5c34.8,0,63.1-28.2,63.1-63.1c0,0,0-115.5,0-136.3
		c-107.6,27.1-210,11.7-264.7-1c0,22.1,0,137.4,0,137.4C145.1,309.6,145.7,314.5,146.8,319.1z"/>
</g>
<g>
	<path class="st0" d="M181.2,155.4c0,0,96.4,34.2,192.5,0"/>
	<path class="st0" d="M397.8,87.7"/>
</g>
<text transform="matrix(1.0134 0 0 1 213.5208 124.4872)" class="st1 st2 st3">STAGE</text>
<ellipse transform="matrix(0.1624 -0.9867 0.9867 0.1624 -9.8705 370.8794)" class="st4" cx="213.5" cy="191.3" rx="3.5" ry="3.2"/>
<ellipse transform="matrix(0.1624 -0.9867 0.9867 0.1624 -4.0012 381.4538)" class="st4" cx="222.7" cy="193.1" rx="3.5" ry="3.2"/>
<ellipse transform="matrix(0.1624 -0.9867 0.9867 0.1624 1.5274 392.257)" class="st4" cx="231.8" cy="195.2" rx="3.5" ry="3.2"/>
<ellipse transform="matrix(0.1624 -0.9867 0.9867 0.1624 7.8898 402.4126)" class="st4" cx="241" cy="196.6" rx="3.5" ry="3.2"/>
<ellipse transform="matrix(0.1624 -0.9867 0.9867 0.1624 14.5332 412.3994)" class="st4" cx="250.2" cy="197.6" rx="3.5" ry="3.2"/>
<ellipse transform="matrix(0.1624 -0.9867 0.9867 0.1624 21.0294 422.2619)" class="st4" cx="259.2" cy="198.7" rx="3.5" ry="3.2"/>
<ellipse transform="matrix(0.1624 -0.9867 0.9867 0.1624 28.4119 431.5855)" class="st4" cx="268.4" cy="199.1" rx="3.5" ry="3.2"/>
<ellipse transform="matrix(0.1624 -0.9867 0.9867 0.1624 36.0228 440.6315)" class="st4" cx="277.6" cy="199.1" rx="3.5" ry="3.2"/>
<ellipse transform="matrix(0.1624 -0.9867 0.9867 0.1624 68.4958 475.0798)" class="st4" cx="314.1" cy="197.2" rx="3.5" ry="3.2"/>
<ellipse transform="matrix(0.1624 -0.9867 0.9867 0.1624 77.8274 482.8091)" class="st4" cx="323.3" cy="195.6" rx="3.5" ry="3.2"/>
<ellipse transform="matrix(0.1624 -0.9867 0.9867 0.1624 43.5682 449.6429)" class="st4" cx="286.6" cy="199.2" rx="3.5" ry="3.2"/>
<ellipse transform="matrix(0.1624 -0.9867 0.9867 0.1624 51.5915 458.4484)" class="st4" cx="295.8" cy="198.8" rx="3.5" ry="3.2"/>
<ellipse transform="matrix(0.1624 -0.9867 0.9867 0.1624 59.3757 467.2992)" class="st4" cx="304.9" cy="198.7" rx="3.5" ry="3.2"/>
<ellipse transform="matrix(0.1624 -0.9867 0.9867 0.1624 87.3652 490.0301)" class="st4" cx="332.3" cy="193.6" rx="3.5" ry="3.2"/>
<ellipse transform="matrix(0.1624 -0.9867 0.9867 0.1624 97.8156 496.6199)" class="st4" cx="341.4" cy="190.7" rx="3.5" ry="3.2"/>
<ellipse transform="matrix(0.1624 -0.9867 0.9867 0.1624 -30.0345 372.567)" class="st4" cx="204.4" cy="204" rx="3.5" ry="3.2"/>
<ellipse transform="matrix(0.1624 -0.9867 0.9867 0.1624 -24.6716 383.4429)" class="st4" cx="213.5" cy="206.3" rx="3.5" ry="3.2"/>
<ellipse transform="matrix(0.1624 -0.9867 0.9867 0.1624 -18.8023 394.0173)" class="st4" cx="222.7" cy="208.1" rx="3.5" ry="3.2"/>
<ellipse transform="matrix(0.1624 -0.9867 0.9867 0.1624 -13.2738 404.8206)" class="st4" cx="231.8" cy="210.2" rx="3.5" ry="3.2"/>
<ellipse transform="matrix(0.1624 -0.9867 0.9867 0.1624 -6.9112 414.9762)" class="st4" cx="241" cy="211.6" rx="3.5" ry="3.2"/>
<ellipse transform="matrix(0.1624 -0.9867 0.9867 0.1624 -0.268 424.963)" class="st4" cx="250.2" cy="212.6" rx="3.5" ry="3.2"/>
<ellipse transform="matrix(0.1624 -0.9867 0.9867 0.1624 6.2282 434.8254)" class="st4" cx="259.2" cy="213.7" rx="3.5" ry="3.2"/>
<ellipse transform="matrix(0.1624 -0.9867 0.9867 0.1624 13.6108 444.149)" class="st4" cx="268.4" cy="214.1" rx="3.5" ry="3.2"/>
<ellipse transform="matrix(0.1624 -0.9867 0.9867 0.1624 21.2216 453.195)" class="st4" cx="277.6" cy="214.1" rx="3.5" ry="3.2"/>
<ellipse transform="matrix(0.1624 -0.9867 0.9867 0.1624 53.6948 487.6434)" class="st4" cx="314.1" cy="212.2" rx="3.5" ry="3.2"/>
<ellipse transform="matrix(0.1624 -0.9867 0.9867 0.1624 63.0263 495.3726)" class="st4" cx="323.3" cy="210.6" rx="3.5" ry="3.2"/>
<ellipse transform="matrix(0.1624 -0.9867 0.9867 0.1624 28.7671 462.2066)" class="st4" cx="286.6" cy="214.2" rx="3.5" ry="3.2"/>
<ellipse transform="matrix(0.1624 -0.9867 0.9867 0.1624 36.7905 471.0119)" class="st4" cx="295.8" cy="213.8" rx="3.5" ry="3.2"/>
<ellipse transform="matrix(0.1624 -0.9867 0.9867 0.1624 44.5746 479.8628)" class="st4" cx="304.9" cy="213.7" rx="3.5" ry="3.2"/>
<ellipse transform="matrix(0.1624 -0.9867 0.9867 0.1624 72.5641 502.5936)" class="st4" cx="332.3" cy="208.6" rx="3.5" ry="3.2"/>
<ellipse transform="matrix(0.1624 -0.9867 0.9867 0.1624 83.0145 509.1833)" class="st4" cx="341.4" cy="205.7" rx="3.5" ry="3.2"/>
<ellipse transform="matrix(0.1624 -0.9867 0.9867 0.1624 93.0229 516.2004)" class="st4" cx="350.6" cy="203.3" rx="3.5" ry="3.2"/>
<ellipse transform="matrix(0.1624 -0.9867 0.9867 0.1624 -44.8356 385.1304)" class="st4" cx="204.4" cy="219" rx="3.5" ry="3.2"/>
<ellipse transform="matrix(0.1624 -0.9867 0.9867 0.1624 -39.4728 396.0065)" class="st4" cx="213.5" cy="221.3" rx="3.5" ry="3.2"/>
<ellipse transform="matrix(0.1624 -0.9867 0.9867 0.1624 -33.6035 406.5808)" class="st4" cx="222.7" cy="223.1" rx="3.5" ry="3.2"/>
<ellipse transform="matrix(0.1624 -0.9867 0.9867 0.1624 -28.0749 417.3842)" class="st4" cx="231.8" cy="225.2" rx="3.5" ry="3.2"/>
<ellipse transform="matrix(0.1624 -0.9867 0.9867 0.1624 -21.7123 427.5396)" class="st4" cx="241" cy="226.6" rx="3.5" ry="3.2"/>
<ellipse transform="matrix(0.1624 -0.9867 0.9867 0.1624 -15.0691 437.5264)" class="st4" cx="250.2" cy="227.6" rx="3.5" ry="3.2"/>
<ellipse transform="matrix(0.1624 -0.9867 0.9867 0.1624 -8.5729 447.3891)" class="st4" cx="259.2" cy="228.7" rx="3.5" ry="3.2"/>
<ellipse transform="matrix(0.1624 -0.9867 0.9867 0.1624 -1.1903 456.7126)" class="st4" cx="268.4" cy="229.1" rx="3.5" ry="3.2"/>
<ellipse transform="matrix(0.1624 -0.9867 0.9867 0.1624 6.4206 465.7586)" class="st4" cx="277.6" cy="229.1" rx="3.5" ry="3.2"/>
<ellipse transform="matrix(0.1624 -0.9867 0.9867 0.1624 38.8935 500.207)" class="st4" cx="314.1" cy="227.2" rx="3.5" ry="3.2"/>
<ellipse transform="matrix(0.1624 -0.9867 0.9867 0.1624 48.2252 507.9362)" class="st4" cx="323.3" cy="225.6" rx="3.5" ry="3.2"/>
<ellipse transform="matrix(0.1624 -0.9867 0.9867 0.1624 13.966 474.7701)" class="st4" cx="286.6" cy="229.2" rx="3.5" ry="3.2"/>
<ellipse transform="matrix(0.1624 -0.9867 0.9867 0.1624 21.9894 483.5754)" class="st4" cx="295.8" cy="228.8" rx="3.5" ry="3.2"/>
<ellipse transform="matrix(0.1624 -0.9867 0.9867 0.1624 29.7735 492.4262)" class="st4" cx="304.9" cy="228.7" rx="3.5" ry="3.2"/>
<ellipse transform="matrix(0.1624 -0.9867 0.9867 0.1624 57.7631 515.1572)" class="st4" cx="332.3" cy="223.6" rx="3.5" ry="3.2"/>
<ellipse transform="matrix(0.1624 -0.9867 0.9867 0.1624 68.2135 521.7469)" class="st4" cx="341.4" cy="220.7" rx="3.5" ry="3.2"/>
<ellipse transform="matrix(0.1624 -0.9867 0.9867 0.1624 78.2218 528.7639)" class="st4" cx="350.6" cy="218.3" rx="3.5" ry="3.2"/>
<ellipse transform="matrix(0.1624 -0.9867 0.9867 0.1624 89.2265 534.96)" class="st4" cx="359.7" cy="214.9" rx="3.5" ry="3.2"/>
<ellipse transform="matrix(0.1624 -0.9867 0.9867 0.1624 -48.4105 372.8772)" class="st4" cx="195.4" cy="215" rx="3.5" ry="3.2"/>
<ellipse transform="matrix(0.1624 -0.9867 0.9867 0.1624 -59.6366 397.694)" class="st4" cx="204.4" cy="234" rx="3.5" ry="3.2"/>
<ellipse transform="matrix(0.1624 -0.9867 0.9867 0.1624 -54.2739 408.57)" class="st4" cx="213.5" cy="236.3" rx="3.5" ry="3.2"/>
<ellipse transform="matrix(0.1624 -0.9867 0.9867 0.1624 -48.4045 419.1444)" class="st4" cx="222.7" cy="238.1" rx="3.5" ry="3.2"/>
<ellipse transform="matrix(0.1624 -0.9867 0.9867 0.1624 -42.876 429.9476)" class="st4" cx="231.8" cy="240.2" rx="3.5" ry="3.2"/>
<ellipse transform="matrix(0.1624 -0.9867 0.9867 0.1624 -36.5135 440.1033)" class="st4" cx="241" cy="241.6" rx="3.5" ry="3.2"/>
<ellipse transform="matrix(0.1624 -0.9867 0.9867 0.1624 -29.8702 450.09)" class="st4" cx="250.2" cy="242.6" rx="3.5" ry="3.2"/>
<ellipse transform="matrix(0.1624 -0.9867 0.9867 0.1624 -23.374 459.9525)" class="st4" cx="259.2" cy="243.7" rx="3.5" ry="3.2"/>
<ellipse transform="matrix(0.1624 -0.9867 0.9867 0.1624 -15.9915 469.2761)" class="st4" cx="268.4" cy="244.1" rx="3.5" ry="3.2"/>
<ellipse transform="matrix(0.1624 -0.9867 0.9867 0.1624 -8.3805 478.322)" class="st4" cx="277.6" cy="244.1" rx="3.5" ry="3.2"/>
<ellipse transform="matrix(0.1624 -0.9867 0.9867 0.1624 24.0924 512.7704)" class="st4" cx="314.1" cy="242.2" rx="3.5" ry="3.2"/>
<ellipse transform="matrix(0.1624 -0.9867 0.9867 0.1624 33.4241 520.4996)" class="st4" cx="323.3" cy="240.6" rx="3.5" ry="3.2"/>
<ellipse transform="matrix(0.1624 -0.9867 0.9867 0.1624 -0.8352 487.3336)" class="st4" cx="286.6" cy="244.2" rx="3.5" ry="3.2"/>
<ellipse transform="matrix(0.1624 -0.9867 0.9867 0.1624 7.1882 496.1389)" class="st4" cx="295.8" cy="243.8" rx="3.5" ry="3.2"/>
<ellipse transform="matrix(0.1624 -0.9867 0.9867 0.1624 14.9723 504.9898)" class="st4" cx="304.9" cy="243.7" rx="3.5" ry="3.2"/>
<ellipse transform="matrix(0.1624 -0.9867 0.9867 0.1624 42.9619 527.7207)" class="st4" cx="332.3" cy="238.6" rx="3.5" ry="3.2"/>
<ellipse transform="matrix(0.1624 -0.9867 0.9867 0.1624 53.4123 534.3105)" class="st4" cx="341.4" cy="235.7" rx="3.5" ry="3.2"/>
<ellipse transform="matrix(0.1624 -0.9867 0.9867 0.1624 63.4206 541.3275)" class="st4" cx="350.6" cy="233.3" rx="3.5" ry="3.2"/>
<ellipse transform="matrix(0.1624 -0.9867 0.9867 0.1624 74.4255 547.5236)" class="st4" cx="359.7" cy="229.9" rx="3.5" ry="3.2"/>
<ellipse transform="matrix(0.1624 -0.9867 0.9867 0.1624 -63.2118 385.4408)" class="st4" cx="195.4" cy="230" rx="3.5" ry="3.2"/>
<ellipse transform="matrix(0.1624 -0.9867 0.9867 0.1624 -74.4378 410.2576)" class="st4" cx="204.4" cy="249" rx="3.5" ry="3.2"/>
<ellipse transform="matrix(0.1624 -0.9867 0.9867 0.1624 -69.075 421.1335)" class="st4" cx="213.5" cy="251.3" rx="3.5" ry="3.2"/>
<ellipse transform="matrix(0.1624 -0.9867 0.9867 0.1624 -63.2057 431.7079)" class="st4" cx="222.7" cy="253.1" rx="3.5" ry="3.2"/>
<ellipse transform="matrix(0.1624 -0.9867 0.9867 0.1624 -57.6771 442.5111)" class="st4" cx="231.8" cy="255.2" rx="3.5" ry="3.2"/>
<ellipse transform="matrix(0.1624 -0.9867 0.9867 0.1624 -51.3146 452.6668)" class="st4" cx="241" cy="256.6" rx="3.5" ry="3.2"/>
<ellipse transform="matrix(0.1624 -0.9867 0.9867 0.1624 -44.6713 462.6535)" class="st4" cx="250.2" cy="257.6" rx="3.5" ry="3.2"/>
<ellipse transform="matrix(0.1624 -0.9867 0.9867 0.1624 -38.1751 472.516)" class="st4" cx="259.2" cy="258.7" rx="3.5" ry="3.2"/>
<ellipse transform="matrix(0.1624 -0.9867 0.9867 0.1624 -30.7926 481.8396)" class="st4" cx="268.4" cy="259.1" rx="3.5" ry="3.2"/>
<ellipse transform="matrix(0.1624 -0.9867 0.9867 0.1624 -23.1816 490.8855)" class="st4" cx="277.6" cy="259.1" rx="3.5" ry="3.2"/>
<ellipse transform="matrix(0.1624 -0.9867 0.9867 0.1624 9.2914 525.334)" class="st4" cx="314.1" cy="257.2" rx="3.5" ry="3.2"/>
<ellipse transform="matrix(0.1624 -0.9867 0.9867 0.1624 18.6229 533.0632)" class="st4" cx="323.3" cy="255.6" rx="3.5" ry="3.2"/>
<ellipse transform="matrix(0.1624 -0.9867 0.9867 0.1624 -15.6362 499.8971)" class="st4" cx="286.6" cy="259.2" rx="3.5" ry="3.2"/>
<ellipse transform="matrix(0.1624 -0.9867 0.9867 0.1624 -7.6129 508.7025)" class="st4" cx="295.8" cy="258.8" rx="3.5" ry="3.2"/>
<ellipse transform="matrix(0.1624 -0.9867 0.9867 0.1624 0.1713 517.5534)" class="st4" cx="304.9" cy="258.7" rx="3.5" ry="3.2"/>
<ellipse transform="matrix(0.1624 -0.9867 0.9867 0.1624 28.1607 540.2842)" class="st4" cx="332.3" cy="253.6" rx="3.5" ry="3.2"/>
<ellipse transform="matrix(0.1624 -0.9867 0.9867 0.1624 38.6112 546.874)" class="st4" cx="341.4" cy="250.7" rx="3.5" ry="3.2"/>
<ellipse transform="matrix(0.1624 -0.9867 0.9867 0.1624 48.6195 553.8909)" class="st4" cx="350.6" cy="248.3" rx="3.5" ry="3.2"/>
<ellipse transform="matrix(0.1624 -0.9867 0.9867 0.1624 59.6244 560.087)" class="st4" cx="359.7" cy="244.9" rx="3.5" ry="3.2"/>
<ellipse transform="matrix(0.1624 -0.9867 0.9867 0.1624 -78.0128 398.0043)" class="st4" cx="195.4" cy="245" rx="3.5" ry="3.2"/>
<ellipse transform="matrix(0.1624 -0.9867 0.9867 0.1624 -89.2389 422.821)" class="st4" cx="204.4" cy="264" rx="3.5" ry="3.2"/>
<ellipse transform="matrix(0.1624 -0.9867 0.9867 0.1624 -83.8761 433.697)" class="st4" cx="213.5" cy="266.3" rx="3.5" ry="3.2"/>
<ellipse transform="matrix(0.1624 -0.9867 0.9867 0.1624 -78.0067 444.2715)" class="st4" cx="222.7" cy="268.1" rx="3.5" ry="3.2"/>
<ellipse transform="matrix(0.1624 -0.9867 0.9867 0.1624 -72.4781 455.0747)" class="st4" cx="231.8" cy="270.2" rx="3.5" ry="3.2"/>
<ellipse transform="matrix(0.1624 -0.9867 0.9867 0.1624 -66.1158 465.2303)" class="st4" cx="241" cy="271.6" rx="3.5" ry="3.2"/>
<ellipse transform="matrix(0.1624 -0.9867 0.9867 0.1624 -59.4724 475.2169)" class="st4" cx="250.2" cy="272.6" rx="3.5" ry="3.2"/>
<ellipse transform="matrix(0.1624 -0.9867 0.9867 0.1624 -52.9761 485.0796)" class="st4" cx="259.2" cy="273.7" rx="3.5" ry="3.2"/>
<ellipse transform="matrix(0.1624 -0.9867 0.9867 0.1624 -45.5937 494.4031)" class="st4" cx="268.4" cy="274.1" rx="3.5" ry="3.2"/>
<ellipse transform="matrix(0.1624 -0.9867 0.9867 0.1624 -37.9828 503.4491)" class="st4" cx="277.6" cy="274.1" rx="3.5" ry="3.2"/>
<ellipse transform="matrix(0.1624 -0.9867 0.9867 0.1624 -5.5097 537.8975)" class="st4" cx="314.1" cy="272.2" rx="3.5" ry="3.2"/>
<ellipse transform="matrix(0.1624 -0.9867 0.9867 0.1624 3.8218 545.6268)" class="st4" cx="323.3" cy="270.6" rx="3.5" ry="3.2"/>
<ellipse transform="matrix(0.1624 -0.9867 0.9867 0.1624 -30.4375 512.4607)" class="st4" cx="286.6" cy="274.2" rx="3.5" ry="3.2"/>
<ellipse transform="matrix(0.1624 -0.9867 0.9867 0.1624 -22.414 521.2661)" class="st4" cx="295.8" cy="273.8" rx="3.5" ry="3.2"/>
<ellipse transform="matrix(0.1624 -0.9867 0.9867 0.1624 -14.6298 530.1168)" class="st4" cx="304.9" cy="273.7" rx="3.5" ry="3.2"/>
<ellipse transform="matrix(0.1624 -0.9867 0.9867 0.1624 13.3597 552.8478)" class="st4" cx="332.3" cy="268.6" rx="3.5" ry="3.2"/>
<ellipse transform="matrix(0.1624 -0.9867 0.9867 0.1624 23.8101 559.4376)" class="st4" cx="341.4" cy="265.7" rx="3.5" ry="3.2"/>
<ellipse transform="matrix(0.1624 -0.9867 0.9867 0.1624 33.8186 566.4545)" class="st4" cx="350.6" cy="263.3" rx="3.5" ry="3.2"/>
<ellipse transform="matrix(0.1624 -0.9867 0.9867 0.1624 44.8232 572.6506)" class="st4" cx="359.7" cy="259.9" rx="3.5" ry="3.2"/>
<ellipse transform="matrix(0.1624 -0.9867 0.9867 0.1624 -92.8139 410.5678)" class="st4" cx="195.4" cy="260" rx="3.5" ry="3.2"/>
<ellipse transform="matrix(0.1624 -0.9867 0.9867 0.1624 -104.04 435.3846)" class="st4" cx="204.4" cy="279" rx="3.5" ry="3.2"/>
<ellipse transform="matrix(0.1624 -0.9867 0.9867 0.1624 -98.6771 446.2606)" class="st4" cx="213.5" cy="281.3" rx="3.5" ry="3.2"/>
<ellipse transform="matrix(0.1624 -0.9867 0.9867 0.1624 -92.8079 456.835)" class="st4" cx="222.7" cy="283.1" rx="3.5" ry="3.2"/>
<ellipse transform="matrix(0.1624 -0.9867 0.9867 0.1624 -87.2794 467.6383)" class="st4" cx="231.8" cy="285.2" rx="3.5" ry="3.2"/>
<ellipse transform="matrix(0.1624 -0.9867 0.9867 0.1624 -80.9168 477.7938)" class="st4" cx="241" cy="286.6" rx="3.5" ry="3.2"/>
<ellipse transform="matrix(0.1624 -0.9867 0.9867 0.1624 -74.2736 487.7806)" class="st4" cx="250.2" cy="287.6" rx="3.5" ry="3.2"/>
<ellipse transform="matrix(0.1624 -0.9867 0.9867 0.1624 -67.7773 497.6431)" class="st4" cx="259.2" cy="288.7" rx="3.5" ry="3.2"/>
<ellipse transform="matrix(0.1624 -0.9867 0.9867 0.1624 -60.3948 506.9666)" class="st4" cx="268.4" cy="289.1" rx="3.5" ry="3.2"/>
<ellipse transform="matrix(0.1624 -0.9867 0.9867 0.1624 -52.7839 516.0126)" class="st4" cx="277.6" cy="289.1" rx="3.5" ry="3.2"/>
<ellipse transform="matrix(0.1624 -0.9867 0.9867 0.1624 -20.3109 550.461)" class="st4" cx="314.1" cy="287.2" rx="3.5" ry="3.2"/>
<ellipse transform="matrix(0.1624 -0.9867 0.9867 0.1624 -10.9793 558.1902)" class="st4" cx="323.3" cy="285.6" rx="3.5" ry="3.2"/>
<ellipse transform="matrix(0.1624 -0.9867 0.9867 0.1624 -45.2386 525.0241)" class="st4" cx="286.6" cy="289.2" rx="3.5" ry="3.2"/>
<ellipse transform="matrix(0.1624 -0.9867 0.9867 0.1624 -37.2151 533.8295)" class="st4" cx="295.8" cy="288.8" rx="3.5" ry="3.2"/>
<ellipse transform="matrix(0.1624 -0.9867 0.9867 0.1624 -29.4309 542.6803)" class="st4" cx="304.9" cy="288.7" rx="3.5" ry="3.2"/>
<ellipse transform="matrix(0.1624 -0.9867 0.9867 0.1624 -1.4414 565.4113)" class="st4" cx="332.3" cy="283.6" rx="3.5" ry="3.2"/>
<ellipse transform="matrix(0.1624 -0.9867 0.9867 0.1624 9.009 572.001)" class="st4" cx="341.4" cy="280.7" rx="3.5" ry="3.2"/>
<ellipse transform="matrix(0.1624 -0.9867 0.9867 0.1624 19.0173 579.018)" class="st4" cx="350.6" cy="278.3" rx="3.5" ry="3.2"/>
<ellipse transform="matrix(0.1624 -0.9867 0.9867 0.1624 30.0221 585.2142)" class="st4" cx="359.7" cy="274.9" rx="3.5" ry="3.2"/>
<ellipse transform="matrix(0.1624 -0.9867 0.9867 0.1624 -107.615 423.1314)" class="st4" cx="195.4" cy="275" rx="3.5" ry="3.2"/>
<ellipse transform="matrix(0.1624 -0.9867 0.9867 0.1624 -118.8411 447.9481)" class="st4" cx="204.4" cy="294" rx="3.5" ry="3.2"/>
<ellipse transform="matrix(0.1624 -0.9867 0.9867 0.1624 -113.4784 458.8242)" class="st4" cx="213.5" cy="296.3" rx="3.5" ry="3.2"/>
<ellipse transform="matrix(0.1624 -0.9867 0.9867 0.1624 -107.609 469.3985)" class="st4" cx="222.7" cy="298.1" rx="3.5" ry="3.2"/>
<ellipse transform="matrix(0.1624 -0.9867 0.9867 0.1624 -102.0805 480.2018)" class="st4" cx="231.8" cy="300.2" rx="3.5" ry="3.2"/>
<ellipse transform="matrix(0.1624 -0.9867 0.9867 0.1624 -95.7179 490.3573)" class="st4" cx="241" cy="301.6" rx="3.5" ry="3.2"/>
<ellipse transform="matrix(0.1624 -0.9867 0.9867 0.1624 -89.0747 500.3441)" class="st4" cx="250.2" cy="302.6" rx="3.5" ry="3.2"/>
<ellipse transform="matrix(0.1624 -0.9867 0.9867 0.1624 -82.5785 510.2067)" class="st4" cx="259.2" cy="303.7" rx="3.5" ry="3.2"/>
<ellipse transform="matrix(0.1624 -0.9867 0.9867 0.1624 -75.1959 519.5301)" class="st4" cx="268.4" cy="304.1" rx="3.5" ry="3.2"/>
<ellipse transform="matrix(0.1624 -0.9867 0.9867 0.1624 -67.585 528.5761)" class="st4" cx="277.6" cy="304.1" rx="3.5" ry="3.2"/>
<ellipse transform="matrix(0.1624 -0.9867 0.9867 0.1624 -35.112 563.0247)" class="st4" cx="314.1" cy="302.2" rx="3.5" ry="3.2"/>
<ellipse transform="matrix(0.1624 -0.9867 0.9867 0.1624 -25.7804 570.7537)" class="st4" cx="323.3" cy="300.6" rx="3.5" ry="3.2"/>
<ellipse transform="matrix(0.1624 -0.9867 0.9867 0.1624 -60.0396 537.5877)" class="st4" cx="286.6" cy="304.2" rx="3.5" ry="3.2"/>
<ellipse transform="matrix(0.1624 -0.9867 0.9867 0.1624 -52.0161 546.3931)" class="st4" cx="295.8" cy="303.8" rx="3.5" ry="3.2"/>
<ellipse transform="matrix(0.1624 -0.9867 0.9867 0.1624 -44.232 555.2439)" class="st4" cx="304.9" cy="303.7" rx="3.5" ry="3.2"/>
<ellipse transform="matrix(0.1624 -0.9867 0.9867 0.1624 -16.2427 577.9748)" class="st4" cx="332.3" cy="298.6" rx="3.5" ry="3.2"/>
<ellipse transform="matrix(0.1624 -0.9867 0.9867 0.1624 -5.792 584.5646)" class="st4" cx="341.4" cy="295.7" rx="3.5" ry="3.2"/>
<ellipse transform="matrix(0.1624 -0.9867 0.9867 0.1624 4.2162 591.5815)" class="st4" cx="350.6" cy="293.3" rx="3.5" ry="3.2"/>
<ellipse transform="matrix(0.1624 -0.9867 0.9867 0.1624 15.221 597.7777)" class="st4" cx="359.7" cy="289.9" rx="3.5" ry="3.2"/>
<ellipse transform="matrix(0.1624 -0.9867 0.9867 0.1624 -122.4161 435.6949)" class="st4" cx="195.4" cy="290" rx="3.5" ry="3.2"/>
<ellipse transform="matrix(0.1624 -0.9867 0.9867 0.1624 -133.6422 460.5116)" class="st4" cx="204.4" cy="309" rx="3.5" ry="3.2"/>
<ellipse transform="matrix(0.1624 -0.9867 0.9867 0.1624 -128.2794 471.3877)" class="st4" cx="213.5" cy="311.3" rx="3.5" ry="3.2"/>
<ellipse transform="matrix(0.1624 -0.9867 0.9867 0.1624 -122.4101 481.9619)" class="st4" cx="222.7" cy="313.1" rx="3.5" ry="3.2"/>
<ellipse transform="matrix(0.1624 -0.9867 0.9867 0.1624 -116.8815 492.7653)" class="st4" cx="231.8" cy="315.2" rx="3.5" ry="3.2"/>
<ellipse transform="matrix(0.1624 -0.9867 0.9867 0.1624 -110.5191 502.9208)" class="st4" cx="241" cy="316.6" rx="3.5" ry="3.2"/>
<ellipse transform="matrix(0.1624 -0.9867 0.9867 0.1624 -103.8758 512.9076)" class="st4" cx="250.2" cy="317.6" rx="3.5" ry="3.2"/>
<ellipse transform="matrix(0.1624 -0.9867 0.9867 0.1624 -97.3795 522.7702)" class="st4" cx="259.2" cy="318.7" rx="3.5" ry="3.2"/>
<ellipse transform="matrix(0.1624 -0.9867 0.9867 0.1624 -89.9971 532.0937)" class="st4" cx="268.4" cy="319.1" rx="3.5" ry="3.2"/>
<ellipse transform="matrix(0.1624 -0.9867 0.9867 0.1624 -82.3861 541.1396)" class="st4" cx="277.5" cy="319.1" rx="3.5" ry="3.2"/>
<ellipse transform="matrix(0.1624 -0.9867 0.9867 0.1624 -49.9131 575.5881)" class="st4" cx="314.1" cy="317.2" rx="3.5" ry="3.2"/>
<ellipse transform="matrix(0.1624 -0.9867 0.9867 0.1624 -40.5816 583.3174)" class="st4" cx="323.3" cy="315.6" rx="3.5" ry="3.2"/>
<ellipse transform="matrix(0.1624 -0.9867 0.9867 0.1624 -74.8407 550.1512)" class="st4" cx="286.6" cy="319.2" rx="3.5" ry="3.2"/>
<ellipse transform="matrix(0.1624 -0.9867 0.9867 0.1624 -66.8173 558.9566)" class="st4" cx="295.8" cy="318.8" rx="3.5" ry="3.2"/>
<ellipse transform="matrix(0.1624 -0.9867 0.9867 0.1624 -59.0332 567.8075)" class="st4" cx="304.9" cy="318.7" rx="3.5" ry="3.2"/>
<ellipse transform="matrix(0.1624 -0.9867 0.9867 0.1624 -31.0437 590.5383)" class="st4" cx="332.3" cy="313.6" rx="3.5" ry="3.2"/>
<ellipse transform="matrix(0.1624 -0.9867 0.9867 0.1624 -20.5933 597.1282)" class="st4" cx="341.4" cy="310.7" rx="3.5" ry="3.2"/>
<ellipse transform="matrix(0.1624 -0.9867 0.9867 0.1624 -10.5849 604.1451)" class="st4" cx="350.6" cy="308.3" rx="3.5" ry="3.2"/>
<ellipse transform="matrix(0.1624 -0.9867 0.9867 0.1624 0.4199 610.3411)" class="st4" cx="359.7" cy="304.9" rx="3.5" ry="3.2"/>
<ellipse transform="matrix(0.1624 -0.9867 0.9867 0.1624 -137.2173 448.2585)" class="st4" cx="195.4" cy="305" rx="3.5" ry="3.2"/>
<ellipse transform="matrix(0.1624 -0.9867 0.9867 0.1624 -148.4432 473.0751)" class="st4" cx="204.4" cy="324" rx="3.5" ry="3.2"/>
<ellipse transform="matrix(0.1624 -0.9867 0.9867 0.1624 -143.0805 483.9512)" class="st4" cx="213.5" cy="326.3" rx="3.5" ry="3.2"/>
<ellipse transform="matrix(0.1624 -0.9867 0.9867 0.1624 -137.2113 494.5256)" class="st4" cx="222.7" cy="328.1" rx="3.5" ry="3.2"/>
<ellipse transform="matrix(0.1624 -0.9867 0.9867 0.1624 -131.6827 505.3288)" class="st4" cx="231.8" cy="330.2" rx="3.5" ry="3.2"/>
<ellipse transform="matrix(0.1624 -0.9867 0.9867 0.1624 -125.3202 515.4843)" class="st4" cx="241" cy="331.6" rx="3.5" ry="3.2"/>
<ellipse transform="matrix(0.1624 -0.9867 0.9867 0.1624 -118.6769 525.4711)" class="st4" cx="250.2" cy="332.6" rx="3.5" ry="3.2"/>
<ellipse transform="matrix(0.1624 -0.9867 0.9867 0.1624 -112.1806 535.3336)" class="st4" cx="259.2" cy="333.7" rx="3.5" ry="3.2"/>
<ellipse transform="matrix(0.1624 -0.9867 0.9867 0.1624 -104.7982 544.6572)" class="st4" cx="268.4" cy="334.1" rx="3.5" ry="3.2"/>
<ellipse transform="matrix(0.1624 -0.9867 0.9867 0.1624 -97.1872 553.7031)" class="st4" cx="277.5" cy="334.1" rx="3.5" ry="3.2"/>
<ellipse transform="matrix(0.1624 -0.9867 0.9867 0.1624 -64.7142 588.1516)" class="st4" cx="314.1" cy="332.2" rx="3.5" ry="3.2"/>
<ellipse transform="matrix(0.1624 -0.9867 0.9867 0.1624 -55.3827 595.8809)" class="st4" cx="323.3" cy="330.6" rx="3.5" ry="3.2"/>
<ellipse transform="matrix(0.1624 -0.9867 0.9867 0.1624 -89.6419 562.7147)" class="st4" cx="286.6" cy="334.2" rx="3.5" ry="3.2"/>
<ellipse transform="matrix(0.1624 -0.9867 0.9867 0.1624 -81.6184 571.5203)" class="st4" cx="295.8" cy="333.8" rx="3.5" ry="3.2"/>
<ellipse transform="matrix(0.1624 -0.9867 0.9867 0.1624 -73.8344 580.371)" class="st4" cx="304.9" cy="333.7" rx="3.5" ry="3.2"/>
<ellipse transform="matrix(0.1624 -0.9867 0.9867 0.1624 -45.8449 603.1019)" class="st4" cx="332.3" cy="328.6" rx="3.5" ry="3.2"/>
<ellipse transform="matrix(0.1624 -0.9867 0.9867 0.1624 -35.3944 609.6917)" class="st4" cx="341.4" cy="325.7" rx="3.5" ry="3.2"/>
<ellipse transform="matrix(0.1624 -0.9867 0.9867 0.1624 -25.386 616.7086)" class="st4" cx="350.6" cy="323.3" rx="3.5" ry="3.2"/>
<ellipse transform="matrix(0.1624 -0.9867 0.9867 0.1624 -14.3811 622.9047)" class="st4" cx="359.7" cy="319.9" rx="3.5" ry="3.2"/>
<ellipse transform="matrix(0.1624 -0.9867 0.9867 0.1624 -3.3861 629.0841)" class="st4" cx="368.9" cy="316.5" rx="3.5" ry="3.2"/>
<ellipse transform="matrix(0.1624 -0.9867 0.9867 0.1624 -155.9745 448.586)" class="st4" cx="186.2" cy="316.2" rx="3.5" ry="3.2"/>
<ellipse transform="matrix(0.1624 -0.9867 0.9867 0.1624 -152.0183 460.822)" class="st4" cx="195.4" cy="320" rx="3.5" ry="3.2"/>
<ellipse transform="matrix(0.1624 -0.9867 0.9867 0.1624 -163.2445 485.6387)" class="st4" cx="204.4" cy="339" rx="3.5" ry="3.2"/>
<ellipse transform="matrix(0.1624 -0.9867 0.9867 0.1624 -157.8815 496.5146)" class="st4" cx="213.5" cy="341.3" rx="3.5" ry="3.2"/>
<ellipse transform="matrix(0.1624 -0.9867 0.9867 0.1624 -152.0124 507.089)" class="st4" cx="222.7" cy="343.1" rx="3.5" ry="3.2"/>
<ellipse transform="matrix(0.1624 -0.9867 0.9867 0.1624 -146.4838 517.8923)" class="st4" cx="231.8" cy="345.2" rx="3.5" ry="3.2"/>
<ellipse transform="matrix(0.1624 -0.9867 0.9867 0.1624 -140.1213 528.0479)" class="st4" cx="241" cy="346.6" rx="3.5" ry="3.2"/>
<ellipse transform="matrix(0.1624 -0.9867 0.9867 0.1624 -133.4781 538.0347)" class="st4" cx="250.2" cy="347.6" rx="3.5" ry="3.2"/>
<ellipse transform="matrix(0.1624 -0.9867 0.9867 0.1624 -126.9817 547.8971)" class="st4" cx="259.2" cy="348.7" rx="3.5" ry="3.2"/>
<ellipse transform="matrix(0.1624 -0.9867 0.9867 0.1624 -119.5993 557.2207)" class="st4" cx="268.4" cy="349.1" rx="3.5" ry="3.2"/>
<ellipse transform="matrix(0.1624 -0.9867 0.9867 0.1624 -111.9884 566.2667)" class="st4" cx="277.5" cy="349.1" rx="3.5" ry="3.2"/>
<ellipse transform="matrix(0.1624 -0.9867 0.9867 0.1624 -79.5152 600.7151)" class="st4" cx="314.1" cy="347.2" rx="3.5" ry="3.2"/>
<ellipse transform="matrix(0.1624 -0.9867 0.9867 0.1624 -70.1838 608.4443)" class="st4" cx="323.3" cy="345.6" rx="3.5" ry="3.2"/>
<ellipse transform="matrix(0.1624 -0.9867 0.9867 0.1624 -104.443 575.2783)" class="st4" cx="286.6" cy="349.2" rx="3.5" ry="3.2"/>
<ellipse transform="matrix(0.1624 -0.9867 0.9867 0.1624 -96.4195 584.0837)" class="st4" cx="295.8" cy="348.8" rx="3.5" ry="3.2"/>
<ellipse transform="matrix(0.1624 -0.9867 0.9867 0.1624 -88.6354 592.9345)" class="st4" cx="304.9" cy="348.7" rx="3.5" ry="3.2"/>
<ellipse transform="matrix(0.1624 -0.9867 0.9867 0.1624 -60.6459 615.6654)" class="st4" cx="332.3" cy="343.6" rx="3.5" ry="3.2"/>
<ellipse transform="matrix(0.1624 -0.9867 0.9867 0.1624 -50.1955 622.2551)" class="st4" cx="341.4" cy="340.7" rx="3.5" ry="3.2"/>
<ellipse transform="matrix(0.1624 -0.9867 0.9867 0.1624 -40.1871 629.272)" class="st4" cx="350.6" cy="338.3" rx="3.5" ry="3.2"/>
<ellipse transform="matrix(0.1624 -0.9867 0.9867 0.1624 -29.1823 635.4683)" class="st4" cx="359.7" cy="334.9" rx="3.5" ry="3.2"/>
<ellipse transform="matrix(0.1624 -0.9867 0.9867 0.1624 -18.1873 641.6476)" class="st4" cx="368.9" cy="331.5" rx="3.5" ry="3.2"/>
<ellipse transform="matrix(0.1624 -0.9867 0.9867 0.1624 -170.7756 461.1497)" class="st4" cx="186.2" cy="331.2" rx="3.5" ry="3.2"/>
<ellipse transform="matrix(0.1624 -0.9867 0.9867 0.1624 -166.8194 473.3855)" class="st4" cx="195.4" cy="335" rx="3.5" ry="3.2"/>
<path class="st5" d="M386.7,292.8"/>
<path class="st5" d="M377.7,210.6c0,0,0,70.8,0,90.5c14.8,0,32.1,0,32.1,0"/>
<path class="st5" d="M186.2,294.5"/>
<path class="st5" d="M145.1,301.1h32.1c0-17.8,0-89.1,0-89.1"/>
<path class="st6" d="M177.2,301.1"/>
<line class="st5" x1="379.7" y1="210.6" x2="379.7" y2="301.1"/>
<line class="st5" x1="175.2" y1="212.1" x2="175.2" y2="301.1"/>
<line class="st5" x1="377.7" y1="218.3" x2="409.8" y2="218.3"/>
<path class="st5" d="M363,218.3"/>
<line class="st5" x1="145.1" y1="218.3" x2="177.2" y2="218.3"/>
<line class="st5" x1="377.7" y1="230.3" x2="409.8" y2="230.3"/>
<line class="st5" x1="145.1" y1="230.3" x2="177.2" y2="230.3"/>
<line class="st5" x1="377.7" y1="242.3" x2="409.8" y2="242.3"/>
<line class="st5" x1="145.1" y1="242.3" x2="177.2" y2="242.3"/>
<line class="st5" x1="377.7" y1="254.3" x2="409.8" y2="254.3"/>
<line class="st5" x1="145.1" y1="254.3" x2="177.2" y2="254.3"/>
<line class="st5" x1="377.7" y1="266.3" x2="409.8" y2="266.3"/>
<line class="st5" x1="145.1" y1="266.3" x2="177.2" y2="266.3"/>
<line class="st5" x1="377.7" y1="278.3" x2="409.8" y2="278.3"/>
<line class="st5" x1="145.1" y1="278.3" x2="177.2" y2="278.3"/>
<line class="st5" x1="377.7" y1="290.3" x2="409.8" y2="290.3"/>
<line class="st5" x1="145.1" y1="290.3" x2="177.2" y2="290.3"/>
</svg>
