<?xml version="1.0" encoding="utf-8"?>
<!-- Generator: Adobe Illustrator 26.3.1, SVG Export Plug-In . SVG Version: 6.00 Build 0)  -->
<svg version="1.1" id="Layer_1" xmlns="http://www.w3.org/2000/svg" xmlns:xlink="http://www.w3.org/1999/xlink" x="0px" y="0px"
	 viewBox="0 0 757.4 506" style="enable-background:new 0 0 757.4 506;" xml:space="preserve">
<style type="text/css">
	.st0{fill:none;stroke:#B5B5B6;stroke-width:2;stroke-miterlimit:10;}
	.st1{fill:#B5B5B6;}
	.st2{fill:#226735;}
	.st3{fill:#FAE5A8;}
	.st4{fill:#FFFFFF;}
	.st5{font-family:'Algerian';}
	.st6{font-size:18px;}
</style>
<g id="Background">
</g>
<path class="st0" d="M349.7,74.5"/>
<path class="st0" d="M505.6,74.5"/>
<path class="st0" d="M516.5,75"/>
<path class="st0" d="M546.9,81.1"/>
<path class="st0" d="M588.6,100.8"/>
<path class="st0" d="M624.5,132"/>
<path class="st0" d="M624.9,132.5"/>
<path class="st0" d="M625.4,133"/>
<path class="st0" d="M649.3,169.3"/>
<path class="st0" d="M650,170.7"/>
<path class="st0" d="M662.9,213.4"/>
<path class="st0" d="M664.5,249.7"/>
<path class="st0" d="M662.7,292.3"/>
<path class="st0" d="M651,332.6"/>
<path class="st0" d="M632.3,364.5"/>
<path class="st0" d="M603.6,394"/>
<path class="st0" d="M564.8,416.7"/>
<path class="st0" d="M406.8,428.6"/>
<path class="st0" d="M404.7,428.6"/>
<path class="st0" d="M352.1,428.6"/>
<path class="st0" d="M349.6,428.6"/>
<path class="st0" d="M348.3,428.6"/>
<path class="st0" d="M248.6,427.3"/>
<path class="st0" d="M204.1,416"/>
<path class="st0" d="M125,353.5"/>
<path class="st0" d="M102.3,309.4"/>
<path class="st0" d="M93.3,267"/>
<path class="st0" d="M94.5,225.5"/>
<path class="st0" d="M104.6,187.4"/>
<path class="st0" d="M128.2,145.2"/>
<path class="st0" d="M160.9,111.9"/>
<path class="st0" d="M199.9,88.8"/>
<path class="st0" d="M288.2,74.5"/>
<path class="st0" d="M296.9,74.5"/>
<path class="st0" d="M485,74.5"/>
<path class="st0" d="M425.6,74.5"/>
<path class="st0" d="M223.5,136.2"/>
<path class="st0" d="M374.5,83"/>
<path class="st0" d="M426.9,83"/>
<path class="st0" d="M479.6,83"/>
<path class="st0" d="M521.4,84.1"/>
<path class="st0" d="M426.9,131.2"/>
<path class="st1" d="M478.7,131.2C478.7,131.2,478.6,131.2,478.7,131.2"/>
<path class="st1" d="M478.8,131.2L478.8,131.2"/>
<path class="st1" d="M479.4,131.2c-0.1,0-0.3,0-0.5,0"/>
<path class="st1" d="M479.6,131.2c0,0-0.1,0-0.2,0"/>
<path class="st0" d="M479.6,131.2"/>
<path class="st0" d="M511.6,131.5"/>
<path class="st0" d="M424.6,17.8"/>
<path class="st0" d="M424.6,74.5"/>
<path class="st0" d="M717,253.7"/>
<path class="st0" d="M715.2,253.6"/>
<path class="st0" d="M715.2,253.6"/>
<path class="st0" d="M275.8,21.8"/>
<path class="st0" d="M219.5,27.3"/>
<path class="st0" d="M172.9,43.1"/>
<path class="st0" d="M134,66.2"/>
<path class="st0" d="M101.8,94.9"/>
<path class="st0" d="M74.2,131"/>
<path class="st0" d="M43.7,290.9"/>
<path class="st0" d="M55.9,334.7"/>
<path class="st0" d="M73.8,370.9"/>
<path class="st0" d="M101.1,406.9"/>
<path class="st0" d="M133.4,435.9"/>
<path class="st0" d="M172.4,459.2"/>
<path class="st0" d="M219.5,475.3"/>
<path class="st0" d="M272.1,480.7"/>
<path class="st0" d="M325.8,480.7"/>
<path class="st0" d="M426.3,480.7"/>
<path class="st0" d="M431.2,480.7"/>
<path class="st0" d="M479.3,480.7"/>
<path class="st0" d="M534.9,478.6"/>
<path class="st0" d="M582.6,465.9"/>
<path class="st0" d="M625.8,442.7"/>
<path class="st0" d="M627.6,441.4"/>
<path class="st0" d="M659.5,413.5"/>
<path class="st0" d="M687.9,375.6"/>
<path class="st0" d="M705.3,337.9"/>
<path class="st0" d="M715.3,294.9"/>
<path class="st0" d="M717.7,256.3"/>
<path class="st0" d="M715.4,252.1"/>
<path class="st0" d="M715.4,252.1"/>
<path class="st0" d="M663.5,286.1"/>
<path class="st0" d="M655.2,322.1"/>
<path class="st0" d="M640.3,352.8"/>
<path class="st0" d="M619.7,379.4"/>
<path class="st0" d="M588.4,404.6"/>
<path class="st0" d="M524,427.3"/>
<path class="st0" d="M483.8,428.6"/>
<path class="st0" d="M430.6,428.6"/>
<path class="st0" d="M330.5,428.6"/>
<path class="st0" d="M200.3,414.4"/>
<path class="st0" d="M172.8,399.6"/>
<path class="st0" d="M143.3,375.5"/>
<path class="st0" d="M124.5,352.8"/>
<path class="st0" d="M123.4,351.2"/>
<path class="st0" d="M123.4,351.2"/>
<path class="st0" d="M122.8,350.3"/>
<path class="st0" d="M122.1,349.3"/>
<path class="st0" d="M107.3,322.3"/>
<path class="st0" d="M96.7,289.6"/>
<path class="st0" d="M92.6,251.2"/>
<path class="st0" d="M92.6,254.2"/>
<path class="st0" d="M92.6,252.9"/>
<path class="st0" d="M95.6,218.7"/>
<path class="st0" d="M106.1,183.7"/>
<path class="st0" d="M121,155.4"/>
<path class="st0" d="M141.5,129.5"/>
<path class="st0" d="M170.1,105.2"/>
<path class="st0" d="M198,89.6"/>
<path class="st0" d="M230.5,78.8"/>
<path class="st0" d="M272.5,74.5"/>
<path class="st0" d="M275,74.5"/>
<path class="st0" d="M326.5,74.5"/>
<path class="st0" d="M664.5,256.3"/>
<path class="st0" d="M665.3,254.9"/>
<path class="st0" d="M666.4,254.9"/>
<path class="st0" d="M666.4,254.9"/>
<path class="st0" d="M715.2,254.9"/>
<path class="st0" d="M718.4,254.9"/>
<path class="st0" d="M377.1,481.7"/>
<path class="st0" d="M377.6,478.9"/>
<path class="st0" d="M377.9,137.5"/>
<path class="st0" d="M377.9,421.7"/>
<path class="st0" d="M377.9,21.9"/>
<path class="st0" d="M388.6,481.7"/>
<path class="st0" d="M529.2,480.3"/>
<path class="st0" d="M546.1,477.4"/>
<path class="st0" d="M546.1,477.4"/>
<path class="st0" d="M584.1,465"/>
<path class="st0" d="M616.2,251.6"/>
<path class="st0" d="M367.1,481.7"/>
<path class="st0" d="M226.5,480.3"/>
<path class="st0" d="M209.7,477.4"/>
<path class="st0" d="M209.7,477.4"/>
<path class="st0" d="M171.6,465"/>
<path class="st0" d="M139.5,251.6"/>
<path class="st0" d="M367.1,22.4"/>
<path class="st0" d="M226.5,23.9"/>
<path class="st0" d="M209.7,26.8"/>
<path class="st0" d="M209.7,26.8"/>
<path class="st0" d="M171.6,39.2"/>
<path class="st0" d="M139.5,252.5"/>
<path class="st0" d="M39,252.6"/>
<path class="st0" d="M50.5,252.6"/>
<path class="st0" d="M62.1,252.6"/>
<path class="st0" d="M78.4,252.6"/>
<path class="st2" d="M293.8,428.6"/>
<path d="M377.9,21.9h46.7v52.6h-46.7"/>
<path d="M478.6,74.5h-46.7V21.9h46.7V74.5z"/>
<path class="st2" d="M529.1,21.9"/>
<path class="st2" d="M527.5,21.9"/>
<path class="st2" d="M524.9,21.9"/>
<path class="st2" d="M521.4,21.9"/>
<path class="st2" d="M717,256.3"/>
<path class="st2" d="M717,254.6"/>
<path class="st2" d="M717,253.6"/>
<path class="st2" d="M717,253.6"/>
<path class="st2" d="M717,251.3"/>
<path class="st2" d="M715.5,210.4"/>
<path class="st2" d="M688.4,130.8"/>
<path class="st2" d="M660.3,93.1"/>
<path class="st2" d="M627.2,63.4"/>
<path class="st2" d="M538.2,24.6"/>
<path class="st2" d="M523.6,75.8"/>
<path class="st2" d="M525.5,76.1"/>
<path class="st2" d="M526.2,76.2"/>
<path class="st2" d="M556.8,84.5"/>
<path class="st2" d="M559.8,85.7"/>
<path d="M588.1,40.2l-27.2,45.2c0,0-0.1,0.2-0.4,0.6c8.5,3.5,16.8,7.8,24.8,12.7c0.4-0.4,0.6-0.6,0.6-0.6l38.2-36.8l0,0
	C612.7,53,600.6,45.9,588.1,40.2"/>
<path class="st2" d="M586.6,99.5"/>
<path class="st2" d="M616.5,123.5"/>
<path d="M624.7,122.1c-3,2.3-5,3.9-5.4,4.2c6.6,6.9,12.5,14.1,17.7,21.7c0.5-0.2,0.8-0.4,0.8-0.4s43.3-18.3,48.4-20.5
	c-7.2-11.7-15.6-22.9-25.2-33.3C656.9,97,635.1,114,624.7,122.1z"/>
<path class="st2" d="M637.7,149"/>
<path class="st2" d="M639.2,151.3"/>
<path class="st2" d="M639.4,151.7"/>
<path d="M656.3,177.5c-1.4,0.4-2.4,0.7-2.9,0.8c-3.6-9-8.2-17.7-13.5-26c0.2-0.1,0.3-0.1,0.3-0.1s42.1-17.8,48.7-20.6
	c6.1,10.4,11.2,21.1,15.3,32.2c-0.1,0-0.1,0-0.1,0S667.5,174.3,656.3,177.5z"/>
<path class="st2" d="M654,180.1"/>
<path class="st2" d="M654.9,182.2"/>
<path d="M655.2,183.1c3.5,9.5,6,18.9,7.5,28.8c2.2-0.2,47.6-5,52.3-5.5c-1.8-12.9-4.9-25.6-9.1-37.9"/>
<path class="st2" d="M663,213.9"/>
<path class="st2" d="M663.1,214.9"/>
<path class="st2" d="M663.3,215.9"/>
<path class="st2" d="M663.3,216.3"/>
<path class="st2" d="M664.5,251.3"/>
<path class="st2" d="M484.6,21.8"/>
<path class="st2" d="M376.4,21.8"/>
<path d="M492.8,21.8c-3.3,0-6,0-6.8,0v52.7c0,0,9.2,0,18.3,0c5.9,0,11.9,0.4,17.9,1.2l12-51.7c-8.8-1.3-17.6-2-26.5-2.1
	c0.6,0-0.6,0,0,0C511.9,21.8,500.7,21.8,492.8,21.8z"/>
<path d="M583.4,38.1c-14.3-6.2-29.2-10.7-44.3-13.3l-12,51.6c9.6,1.6,19.2,4.2,28.6,7.7c0.4-0.6,0.6-1,0.6-1L583.4,38.1"/>
<path class="st2" d="M583.5,38.1C583.4,38.1,583.4,38.1,583.5,38.1"/>
<path d="M629.8,65.3c-0.5-0.3-0.9-0.7-1.4-1c-2.5,2.4-38.6,37.2-38.6,37.2s0,0-0.1,0.1c8.9,5.9,17.3,12.7,25.1,20.3
	c0.3,0.3,0.5,0.5,0.8,0.8h0.1c0,0,39.2-30.6,41.7-32.5c-1.9-2-3.9-4-5.9-6C644.6,77.3,637.3,71.1,629.8,65.3z"/>
<path d="M717,257.7c0,3.1,0,10.3,0,10.3c0,7.3-0.4,14.5-1.1,21.6c0,0-47-4.9-52.2-5.4c0.5-5.2,0.8-10.6,0.8-15.9c0,0,0-6.3,0-10.7
	H717"/>
<path d="M119.5,355.4c-0.3,0.1-0.4,0.2-0.4,0.2c-0.5,0.2-0.8,0.4-0.8,0.4S89,368.4,75.8,374c7.1,11.2,15.3,21.9,24.4,31.9
	c8.2-6.4,23.2-18.1,31.2-24.4c3-2.3,5-3.9,5.4-4.2c0,0,2.4-1.8,4.7-3.7c-0.1-0.1-0.2-0.2-0.2-0.2c-6-6.3-11.5-13-16.5-20.1
	C122.3,354.2,120.3,355,119.5,355.4z"/>
<path d="M140,440.7c9.8,6.8,20.1,12.7,30.8,17.8c7.1-11.9,24.2-40.3,24.2-40.3s0.1-0.2,0.4-0.6c0,0,1.3-2.1,2.5-4.2
	c-0.4-0.2-0.9-0.4-0.9-0.4c-7.7-3.5-15.2-7.5-22.3-12.1c-2.3,2.2-4.1,3.9-4.1,3.9c-0.4,0.4-0.6,0.6-0.6,0.6s-23.7,22.8-33.8,32.6
	C137.6,438.9,138.8,439.8,140,440.7z"/>
<path d="M547.1,476.5c12.4-2.5,24.5-6.1,36.1-10.8c-2.3-3.8-27.2-45.2-27.2-45.2s-0.1-0.2-0.3-0.4c-9.3,3.2-19,5.5-29,6.9
	c0,0.1,0,0.2,0,0.2s10.3,44.3,11.8,50.8C541.5,477.5,544.3,477,547.1,476.5z"/>
<path d="M707.3,331.9c-0.3,1.1-0.7,2.1-1,3.2c0,0-43-12.3-50.6-14.5c3.2-9.3,5.6-19,7.1-29c4.9,0.5,52.2,5.4,52.2,5.4
	C713.4,309,710.8,320.6,707.3,331.9z"/>
<path d="M690.9,370.3c5.4-9.8,9.9-19.9,13.7-30.3c-0.4-0.1-0.7-0.2-0.7-0.2c-0.1,0-0.1,0-0.1,0s-42.2-12.1-49.9-14.3
	c-3.5,9.2-7.9,18-13,26.3c7.2,3,48.5,20.5,48.5,20.5s0.1,0,0.3,0.1C690.1,371.7,690.5,371,690.9,370.3z"/>
<path class="st2" d="M479.3,428.6"/>
<path d="M374.9,428.6c0,0.3,0,0.5,0,0.5s-0.2,44.5-0.2,51.7c-19.1,0-37.5,0-43.3,0c0-7.2,0-51.6,0-51.6h1"/>
<path class="st2" d="M330.5,428.6"/>
<path d="M717,251.5c0-5.2,0-14.6,0-14.6c0-7-0.4-14-1.1-21c-0.1-0.6-0.1-1.3-0.2-1.9c-3.4,0.4-12.9,1.3-22.7,2.4
	c-14.2,1.5-29.4,3.1-29.4,3.1s-0.1,0-0.2,0c0.7,5.9,1.1,11.8,1.1,17.7c0,0,0,10,0,14.4"/>
<path d="M42.8,216.9c-1.7,11.3-2.5,22.7-2.5,34.4c0,0,0,0.1,0,0.3c9.5,0,46.2,0,51.3,0c0,0,0.5,0,1,0l0,0c0-10.7,0.9-21.1,2.8-31.2
	c-1.6-0.2-2.7-0.3-2.7-0.3c-0.1,0-0.2,0-0.2,0s-36.7-3.8-49.3-5.1C43,215.5,42.9,216.2,42.8,216.9z"/>
<path d="M119,154.1c-1.6-0.7-2.8-1.2-2.8-1.2c-0.2-0.1-0.3-0.1-0.3-0.1s-30.5-12.9-43.6-18.5c-6,10.1-11.2,20.6-15.5,31.5
	c11.9,3.4,42.5,12.2,46,13.2c0,0,2.1,0.6,4.9,1.4c3.8-8.7,8.3-17,13.4-24.9c0,0,0.1-0.2,0.2-0.4C120.5,154.8,119.7,154.4,119,154.1z
	"/>
<path d="M194.9,85.6c0.2,0.2,0.2,0.4,0.2,0.4s0.1,0.2,0.4,0.6c0,0,0.8,1.4,2,3.3c-8.1,3.6-15.9,7.9-23.4,12.7
	c-2-1.9-3.4-3.2-3.4-3.2c-0.4-0.4-0.6-0.6-0.6-0.6s-25.3-24.4-34.7-33.5c11-8,22.6-14.9,34.8-20.8C173.2,49.6,192.6,81.7,194.9,85.6
	z"/>
<path d="M270.1,68.9c0,2.7,0,4.7,0,5.6c-0.3,0-0.5,0-0.5,0c-12.1,0-23.9,1.2-35.3,3.5c-0.2-1.1-0.4-1.8-0.4-1.8s-9.2-39.8-11.5-49.6
	c15.4-3.2,31.2-4.8,47.2-4.8c0,0,0.1,0,0.4,0c0,0.4,0,0.6,0,0.6S270.1,55,270.1,68.9z"/>
<path d="M432.6,428.6h-1c0,0,0,45,0,52.2c4.5,0,40.4,0,46.7,0c0-7.2,0-52.2,0-52.2h-1.1"/>
<path class="st2" d="M528.8,481.7"/>
<path class="st2" d="M527.2,481.7"/>
<path class="st2" d="M524.6,481.7"/>
<path class="st2" d="M521.1,481.7"/>
<path class="st2" d="M716.7,247.2"/>
<path class="st2" d="M716.7,249"/>
<path class="st2" d="M716.7,249.9"/>
<path class="st2" d="M716.7,249.9"/>
<path class="st2" d="M716.7,252.3"/>
<path class="st2" d="M715.3,293.2"/>
<path class="st2" d="M705.3,335.8"/>
<path class="st2" d="M688.1,372.8"/>
<path class="st2" d="M660,410.5"/>
<path class="st2" d="M626.9,440.2"/>
<path class="st2" d="M586.8,463.8"/>
<path class="st2" d="M537.9,479"/>
<path class="st2" d="M523.3,427.7"/>
<path class="st2" d="M525.9,427.3"/>
<path class="st2" d="M556.5,419.1"/>
<path class="st2" d="M559.5,417.9"/>
<path d="M564.7,424.9c-2.2-3.6-3.7-6.2-4-6.6c8.9-3.4,17.4-7.5,25.5-12.3c4.5,4.3,37.7,36.4,37.7,36.4l0,0c0,0,0.4,0.4,1,1
	c-11.6,8-24,14.9-36.9,20.4c0-0.1-0.1-0.1-0.1-0.1S572.3,437.6,564.7,424.9z"/>
<path class="st2" d="M586.8,463.8"/>
<path class="st2" d="M586.3,404.1"/>
<path class="st2" d="M616.2,380.1"/>
<path d="M626.9,383.4c-0.9-0.7-1.7-1.3-2.5-1.9c-1.6-1.2-2.9-2.3-3.9-3c6.5-6.9,12.4-14.3,17.6-22.2c5.4,2.3,43,18.2,47.7,20.2
	c0,0,0.5,0.2,1.2,0.5c-7.2,12-15.6,23.3-25.1,33.9c-0.8-0.6-1.3-1-1.3-1C656.9,406.8,637.9,392,626.9,383.4z"/>
<path class="st2" d="M623.7,372.1"/>
<path class="st2" d="M637.4,354.5"/>
<path class="st2" d="M638.9,352.2"/>
<path class="st2" d="M639.1,351.9"/>
<path class="st2" d="M693.5,362.9"/>
<path class="st2" d="M693.5,362.9"/>
<path class="st2" d="M688.1,372.8"/>
<path class="st2" d="M653.8,323.5"/>
<path class="st2" d="M654.6,321.3"/>
<path class="st2" d="M705.3,335.8"/>
<path class="st2" d="M662.7,289.7"/>
<path class="st2" d="M662.9,288.7"/>
<path class="st2" d="M663,287.7"/>
<path class="st2" d="M663.1,287.2"/>
<path class="st2" d="M664.2,252.3"/>
<path class="st2" d="M484.3,481.7"/>
<path class="st2" d="M430.6,481.7"/>
<path class="st2" d="M432.6,481.7"/>
<path class="st2" d="M435.8,481.7"/>
<path class="st2" d="M475.4,481.7"/>
<path class="st2" d="M479.3,481.7"/>
<path class="st2" d="M430,481.7"/>
<path class="st2" d="M420.2,481.7"/>
<path class="st2" d="M421,481.7"/>
<path class="st2" d="M425.3,481.7"/>
<path class="st2" d="M376.1,481.7"/>
<path d="M485.7,434.6c0,12.1,0,40.5,0,46.1c5.4,0,18.6,0,18.6,0c9.9,0,19.6-0.7,29.3-2c-1.6-6.8-11.8-50.8-11.8-50.8s0-0.1-0.1-0.3
	c-5.7,0.6-11.6,1-17.5,1c0,0-13.5,0-18.5,0c0,0.3,0,0.5,0,0.5S485.7,431.2,485.7,434.6z"/>
<path d="M631.1,438.9c8.3-6.2,16.2-13,23.6-20.4c1.3-1.3,2.6-2.6,3.8-3.9c-0.8-0.6-1.3-1-1.3-1c-2.2-1.7-33.1-25.8-40.2-31.4
	c-8,7.9-16.8,15-26.3,21.1c6.2,5.9,35.2,34,37.4,36.1c0,0,0.4,0.4,1.1,1C629.8,439.8,630.5,439.3,631.1,438.9z"/>
<path d="M278.4,429.1h-1c0,0,0,44.4,0,51.6c7.5,0,39,0,46.7,0c0-7.2,0-51.6,0-51.6h-1"/>
<path class="st2" d="M226.9,481.7"/>
<path class="st2" d="M228.6,481.7"/>
<path class="st2" d="M231.2,481.7"/>
<path class="st2" d="M234.7,481.7"/>
<path class="st2" d="M39,247.2"/>
<path class="st2" d="M39,249"/>
<path class="st2" d="M39,249.9"/>
<path class="st2" d="M39,249.9"/>
<path class="st2" d="M39,252.3"/>
<path class="st2" d="M40.5,293.2"/>
<path class="st2" d="M50.5,335.8"/>
<path class="st2" d="M67.7,372.8"/>
<path class="st2" d="M95.7,410.5"/>
<path class="st2" d="M128.8,440.2"/>
<path class="st2" d="M169,463.8"/>
<path class="st2" d="M217.9,479"/>
<path class="st2" d="M232.5,427.7"/>
<path class="st2" d="M230.5,427.4"/>
<path class="st2" d="M229.9,427.3"/>
<path class="st2" d="M199.2,419.1"/>
<path class="st2" d="M196.3,417.9"/>
<path class="st2" d="M169,463.8"/>
<path class="st2" d="M169.5,404.1"/>
<path class="st2" d="M139.5,380.1"/>
<path class="st2" d="M132.1,372.1"/>
<path class="st2" d="M118.4,354.5"/>
<path class="st2" d="M116.9,352.2"/>
<path class="st2" d="M116.6,351.9"/>
<path d="M107.7,323.8c0.1,0,0.2-0.1,0.3-0.1c3.9,8.8,8.6,17.2,13.8,25.1c-3.2,1.4-5.6,2.4-5.6,2.4c-0.2,0.1-0.3,0.1-0.3,0.1
	S86.5,363.7,73,369.5c-6.1-10-11.3-20.5-15.7-31.3c12.3-3.5,42-12,45.4-13C102.7,325.2,104.8,324.6,107.7,323.8z"/>
<path class="st2" d="M62.2,362.9"/>
<path class="st2" d="M62.2,362.9"/>
<path class="st2" d="M67.7,372.8"/>
<path class="st2" d="M102,323.5"/>
<path class="st2" d="M101.2,321.3"/>
<path d="M92.3,291.7c-6.2,0.6-36.4,3.8-47.5,5c2.5,12.7,6.1,25,10.7,37c5.8-1.7,41.1-12,45.4-13.2c0,0,2.2-0.6,5.1-1.5
	c-3.7-8.9-6.7-18.2-8.9-27.7c-2.2,0.2-3.8,0.4-3.8,0.4C93.1,291.6,92.8,291.7,92.3,291.7z"/>
<path class="st2" d="M50.5,335.8"/>
<path class="st2" d="M93,289.7"/>
<path class="st2" d="M92.9,288.7"/>
<path class="st2" d="M92.8,287.7"/>
<path class="st2" d="M92.7,287.2"/>
<path class="st2" d="M91.5,252.3"/>
<path class="st2" d="M271.4,481.7"/>
<path class="st2" d="M323.1,481.7"/>
<path class="st2" d="M325.1,481.7"/>
<path class="st2" d="M319.9,481.7"/>
<path class="st2" d="M280.3,481.7"/>
<path class="st2" d="M276.5,481.7"/>
<path class="st2" d="M325.8,481.7"/>
<path class="st2" d="M335.6,481.7"/>
<path class="st2" d="M334.8,481.7"/>
<path class="st2" d="M330.5,481.7"/>
<path class="st2" d="M379.6,481.7"/>
<path d="M227.4,476.9c13.8,2.6,28,3.9,42.3,3.9c0,0,0.1,0,0.4,0c0-7.2,0-51.6,0-51.6s0-0.2,0-0.5c-0.3,0-0.5,0-0.5,0
	c-12,0-23.7-1.2-35-3.5c-0.4,1.7-0.7,2.9-0.7,2.9s-8.4,36.3-11.1,48C224.4,476.3,225.9,476.6,227.4,476.9z"/>
<path d="M199,421.6c0.4-0.7,0.7-1.2,0.7-1.2s3.5-5.9,3.1-5c8.6,3.5,17.6,6.4,26.9,8.5c-0.4,1.8-0.7,3.2-0.7,3.2s-8.3,35.7-11.1,47.7
	c-14.6-3.4-28.7-8.1-42.3-14.2C181.9,450.1,195.8,427.1,199,421.6z"/>
<path d="M170.4,398.1c-2,2-4.1,3.9-4.1,3.9c-0.1,0-0.1,0.1-0.1,0.1s-23.8,23-34.1,32.9c-8.6-6.5-16.9-13.6-24.7-21.4
	c-1.3-1.3-2.6-2.6-3.9-4c11.2-8.7,36.7-28.6,36.7-28.6s0,0,0.1,0c0,0,2-1.5,4.7-3.5l0.1-0.1c5.5,5.5,12.8,12.2,24.3,20.1"/>
<path d="M90.6,255.9c0.7,0,1.4,0,2,0c0.2,9.5,1.2,18.8,2.9,27.9c-1.7,0.2-2.9,0.3-2.9,0.3c-0.1,0-0.2,0-0.2,0s-36.2,3.8-49.1,5.1
	c-1.8-11-2.9-22.2-3.1-33.5C53.5,255.8,70.6,255.9,90.6,255.9z"/>
<path d="M277.4,21.8v0.6c0,0,0,46.3,0,52c8.3,0,39.1,0,46.7,0c0-5.8,0-52,0-52s0-0.2,0-0.6C315.4,21.8,277.3,21.8,277.4,21.8"/>
<path class="st2" d="M226.9,22.4"/>
<path class="st2" d="M228.6,22.4"/>
<path class="st2" d="M231.2,22.4"/>
<path class="st2" d="M234.7,22.4"/>
<path class="st2" d="M39,256.9"/>
<path class="st2" d="M39,255.2"/>
<path class="st2" d="M39,254.2"/>
<path class="st2" d="M39,254.2"/>
<path class="st2" d="M39,251.9"/>
<path class="st2" d="M40.5,211"/>
<path class="st2" d="M50.5,168.3"/>
<path class="st2" d="M67.7,131.4"/>
<path class="st2" d="M95.7,93.7"/>
<path class="st2" d="M128.8,64"/>
<path class="st2" d="M169,40.3"/>
<path class="st2" d="M217.9,25.2"/>
<path class="st2" d="M232.5,76.4"/>
<path class="st2" d="M230.5,76.7"/>
<path class="st2" d="M229.9,76.8"/>
<path class="st2" d="M199.2,85.1"/>
<path class="st2" d="M196.3,86.3"/>
<path class="st2" d="M169,40.3"/>
<path class="st2" d="M169.5,100.1"/>
<path class="st2" d="M139.5,124.1"/>
<path d="M137.3,127.4c0.7,0.5,2,1.5,3.5,2.8c-6.1,6.4-11.7,13.3-16.7,20.6c-2.9-1.2-5.1-2.1-5.1-2.1c-0.5-0.2-0.8-0.4-0.8-0.4
	S87.7,135.4,74.9,130c7.1-11.3,15.2-22.1,24.3-32.2c8,6.2,23.7,18.5,32.1,25c3,2.3,5,3.9,5.4,4.2C136.7,126.9,137,127.1,137.3,127.4
	z"/>
<path class="st2" d="M132.1,132"/>
<path class="st2" d="M118.4,149.6"/>
<path class="st2" d="M116.9,151.9"/>
<path class="st2" d="M116.6,152.3"/>
<path class="st2" d="M62.2,141.2"/>
<path class="st2" d="M62.2,141.2"/>
<path class="st2" d="M67.7,131.4"/>
<path class="st2" d="M102,180.7"/>
<path class="st2" d="M101.2,182.8"/>
<path d="M101.1,183.8c-0.2-0.1-0.3-0.1-0.3-0.1c-3.7-1.1-33.7-9.6-46-13.2c-4.6,12.2-8,24-10.4,36.9c7.9,0.8,46.7,4.9,48.9,5.1
	c0,0,1.5,0.2,3.6,0.4c2.1-9.6,5.1-18.9,8.7-27.8C103.4,184.5,101.8,184,101.1,183.8z"/>
<path class="st2" d="M50.5,168.3"/>
<path class="st2" d="M93,214.4"/>
<path class="st2" d="M92.9,215.5"/>
<path class="st2" d="M92.8,216.5"/>
<path class="st2" d="M92.7,216.9"/>
<path class="st2" d="M91.5,251.9"/>
<path class="st2" d="M271.4,22.4"/>
<path class="st2" d="M323.1,22.4"/>
<path class="st2" d="M319.9,22.4"/>
<path class="st2" d="M280.3,22.4"/>
<path class="st2" d="M276.5,22.4"/>
<path class="st2" d="M335.1,22.4"/>
<path class="st2" d="M334.4,22.4"/>
<path class="st2" d="M330.5,22.4"/>
<path class="st2" d="M379.6,22.4"/>
<path class="st2" d="M378.8,74.5"/>
<path class="st2" d="M377.8,74.5"/>
<path class="st2" d="M331.1,21.9"/>
<path class="st2" d="M331.3,22.4"/>
<path class="st2" d="M325.7,22.4"/>
<g>
	<polyline points="331.1,21.9 373.4,21.9 373.4,74.5 331.1,74.5 	"/>
</g>
<path class="st2" d="M329.6,21.8"/>
<path class="st2" d="M332.6,22.4"/>
<path d="M227.4,70.6c0.9,3.9,1.5,6.4,1.5,6.4s0.2,0.9,0.5,2.1c-9.4,2.2-18.4,5.1-27.2,8.7c-1.2-2.1-2.5-4.1-2.5-4.1
	s-21.9-35.9-25.2-41.3c13.8-6.3,28.1-11.2,43-14.6C219.3,35.4,224.8,59.1,227.4,70.6z"/>
<path d="M167.5,103.3c0.6,0.6,1.4,1.3,2.2,2.1c-9,6.2-17.5,13.2-25.2,20.9c-2.4-1.8-4.2-3.1-4.2-3.1h-0.1c0,0-31.9-25.2-37.3-29.5
	c1.5-1.6,2.9-3,4.5-4.6c7.5-7.5,15.4-14.4,23.7-20.7c9.7,9.3,35,33.8,35,33.8S166.7,102.5,167.5,103.3z"/>
<g id="XMLID_00000183956708234452668730000003370327085745169835_">
</g>
<path class="st0" d="M510,132"/>
<path class="st0" d="M520.9,81.1"/>
<path class="st0" d="M521.6,78"/>
<path class="st0" d="M514.9,131.9"/>
<path class="st0" d="M525.7,82.9"/>
<path class="st0" d="M529.1,135"/>
<path class="st0" d="M534,125.6"/>
<path class="st0" d="M534,125.6"/>
<path class="st0" d="M532.6,137.5"/>
<path class="st0" d="M537.3,128.9"/>
<path class="st0" d="M537.3,128.9"/>
<path class="st0" d="M554.1,98"/>
<path class="st0" d="M560.9,85.4"/>
<path class="st0" d="M545.4,141.4"/>
<path class="st0" d="M581.6,102.6"/>
<path class="st0" d="M485.9,77.1"/>
<path class="st0" d="M485.9,21.9"/>
<path class="st0" d="M325.4,363.4"/>
<path class="st0" d="M273.3,363.4"/>
<path class="st0" d="M193.7,327.2"/>
<path class="st0" d="M424.6,133"/>
<path class="st0" d="M424.6,131.2"/>
<path class="st0" d="M478.6,184.1"/>
<path class="st0" d="M501.2,206.6"/>
<path class="st1" d="M479.4,371.4c0-0.1,0-0.2,0-0.2"/>
<path class="st1" d="M479.6,372.1L479.6,372.1"/>
<path class="st1" d="M480,372.1c-0.1,0-0.2,0-0.3,0"/>
<path class="st1" d="M480.3,372.1c0,0-0.1,0-0.3,0"/>
<path class="st0" d="M662.7,257.6"/>
<path class="st0" d="M377.9,185.8"/>
<path class="st0" d="M377.9,137.5"/>
<path class="st1" d="M277.4,131.1c-0.2,0-0.3,0-0.3,0"/>
<path class="st0" d="M268.2,131.1"/>
<path class="st0" d="M233.9,133.3"/>
<path class="st0" d="M138.9,137.1"/>
<path class="st0" d="M180.5,163.2"/>
<path class="st0" d="M100.6,244.7"/>
<path class="st0" d="M100.6,252"/>
<path class="st0" d="M148.8,251.9"/>
<path class="st0" d="M155,201.8"/>
<path class="st0" d="M174,184.1"/>
<path class="st0" d="M376.6,131.1"/>
<path class="st0" d="M324.7,184.1"/>
<path class="st0" d="M270.7,184.1"/>
<path class="st0" d="M270.3,132.4"/>
<path class="st0" d="M266.1,130.7"/>
<path class="st0" d="M256.8,139.6"/>
<path class="st0" d="M152.6,248.5"/>
<path class="st0" d="M163.3,212.1"/>
<path class="st0" d="M290.6,420.3"/>
<path class="st0" d="M158.1,310.4"/>
<path class="st0" d="M179.2,339.5"/>
<path class="st0" d="M148.8,257.5"/>
<path class="st0" d="M150.7,286.1"/>
<path class="st0" d="M154.9,300.7"/>
<path class="st0" d="M188.9,348.2"/>
<path class="st0" d="M222,366.7"/>
<path class="st0" d="M158.4,282.9"/>
<path class="st0" d="M424.6,184.1"/>
<path class="st0" d="M191.3,340.1"/>
<path class="st0" d="M232.4,369.8"/>
<path class="st0" d="M264.2,372.1"/>
<path class="st0" d="M274.6,420.7"/>
<path class="st0" d="M317.5,420.7"/>
<path class="st0" d="M329.1,420.7"/>
<path class="st0" d="M372.1,185.8"/>
<path class="st0" d="M195.1,341.1"/>
<path class="st0" d="M192.6,342.9"/>
<path class="st0" d="M226.1,253"/>
<path class="st0" d="M226.1,314.6"/>
<path class="st3" d="M259.4,362.8c3.8,0.4,7.6,0.6,11.4,0.6c0,0,0.1,0,0.3,0c0-3.7,0-11.9,0-20.1c-8.3,0-43.8,0-43.8,0s0-18.8,0-25
	c-10.3,6.9-21.1,14.2-28.2,19C215.7,351.2,236.6,360.5,259.4,362.8z"/>
<path class="st3" d="M432,139.8C432,139.7,432,139.7,432,139.8c5.1-0.1,37.4-0.1,46.6-0.1c0,4.3,0,14.3,0,23.7c-7.7,0-38.8,0-46.7,0
	C432,154.3,432,144.6,432,139.8z"/>
<path class="st3" d="M507.2,139.7c-1,0-2-0.1-3-0.1c0,0-12.4,0-18.3,0c0,4.8,0,14.6,0,23.7c8.3,0,37.9,0,37.9,0s0,20.8,0,27.2
	c15-10.6,33.1-23.4,39.2-27.7C546.3,149,526.1,140.6,507.2,139.7z"/>
<path class="st3" d="M480.5,362c0,0.5,0,1,0,1.4c-8.3,0-37.9,0-46.7,0c0-3.6,0-11.8-0.1-20.1c7.6,0,39.5,0,46.7,0
	C480.5,350.4,480.5,357.6,480.5,362z"/>
<path class="st3" d="M310.1,139.6c7.4,0,13.7,0,15.8,0c0,4.8,0,14.6,0,23.8c-7.5,0-38.1,0-46.7,0c0-9.4,0-19.4,0-23.7
	c9.9,0,27.6,0,47.4,0"/>
<path class="st3" d="M314.6,363.3c-3.3,0-6.9,0-10.6,0c-10.3,0-21,0-25.5,0c0-4.1,0-12.1,0-20.1c8.6,0,39.6,0,46.7,0
	c0,8.3,0,16.5-0.1,20.1C322.8,363.3,319,363.3,314.6,363.3"/>
<path class="st3" d="M379.9,139.7c21.7,0,39.7,0,45.9,0c0,5.1,0,14.8,0,23.7c-8.7,0-37.7,0-45.9,0
	C379.9,153.9,379.9,144,379.9,139.7z"/>
<path class="st3" d="M333.2,139.7c13.3,0,27.3,0,40.2,0c0,4.3-0.1,14.2-0.1,23.7c-6.7,0-33.2,0-40.2,0
	C333.2,154.3,333.2,144.7,333.2,139.7L333.2,139.7z"/>
<path class="st3" d="M376.9,362c0,0.5,0,1,0,1.4c-14.2,0-29.8,0-44.5,0c0,0,0-10.1,0-20.1c8.5,0,36.7,0,44.5,0
	C376.9,350.5,376.9,357.8,376.9,362z"/>
<path class="st3" d="M176.2,191.9c5.2-8.2,11.4-15.7,18.5-22.3c7.7,5.5,20.5,14.7,32.5,23.4c0,9.3,0,49.8,0,58.4
	c-23.9,0-46.9-0.1-68.3-0.1C159,229.5,165.3,209.1,176.2,191.9z"/>
<path class="st3" d="M176,310.8c5.3,8.5,11.7,16.2,19,22.9c8-5.2,20.5-13.5,32.2-21.1c0-9.7,0-50,0-56.2
	c-23.9-0.1-46.8-0.1-68.2-0.2C159.9,276.1,166,294.8,176,310.8z"/>
<path class="st3" d="M426.5,362.3c0,0.4,0,0.8,0,1.1c-5,0-22.7,0-44.5,0c0-5.6,0-19.9,0-19.9s0-0.1,0-0.3c7.2,0,36.9,0,44.5,0
	C426.5,350.7,426.5,358.1,426.5,362.3z"/>
<path class="st3" d="M559.4,336.9c2.9,1.9,5.2,3.5,6.7,4.5c-11.6,9.7-25.6,16.6-40.9,19.9c-6.4,1.4-13,2.1-19.8,2.1
	c0,0-12.2,0-17.5,0c0-3.7,0-11.9,0-20.1c8.5,0,37.1,0,37.1,0s0-27.2,0-29.5C536.9,321.8,550.8,331.1,559.4,336.9z"/>
<path class="st3" d="M600.5,263.4c0-2.1,0-4.4,0-6c-23-0.1-48.5-0.1-75.5-0.2c0,8,0,40.9,0,51c17.1,11.2,38.6,25.3,45.2,29.6
	c10.5-9.8,18.8-21.9,24-35.5c4.1-10.6,6.3-22,6.3-34C600.5,268.3,600.5,266,600.5,263.4z"/>
<path class="st3" d="M587.6,189.9c-4.5-7.5-10.2-14.7-17-21.2c-0.7-0.7-1.4-1.4-2.1-2c-7.4,5.3-27.2,19.5-43.5,31.2c0,9.4,0,45,0,54
	c27,0,52.5,0.1,75.5,0.1c0-4,0-17.1,0-17.1C600.5,219.2,596,203.9,587.6,189.9z"/>
<path class="st3" d="M199.3,165.6c19.4-16.2,44.3-25.9,71.5-25.9c0,0,0.4,0,1,0c0,4.8,0,14.6,0,23.7c-8.6,0-44.6,0-44.6,0
	s0,16.9,0,22.5c-10.6-7.5-21.6-15.3-28.3-20C199.1,165.8,199.2,165.7,199.3,165.6z"/>
<text transform="matrix(1 0 0 1 362.2347 182.2397)" class="st4 st5 st6">VIP</text>
<path class="st1" d="M155.9,195.7c-5.9-2-28.7-9.5-40-13.2c8-17.7,19-33.8,32.3-47.7c11.9,9.3,33.5,26.2,33.5,26.2
	c0.2,0.2,5.3,3.9,5.3,3.9c-9.7,9.7-17.6,21.1-23.2,33.4c-3.7-1.2-6.4-2.1-6.4-2.1S156.8,196,155.9,195.7z"/>
<path class="st1" d="M156.8,126.4c-1.7,1.5-3.3,3-4.9,4.6c11.4,8.8,34.3,26.6,34.5,26.8c0,0,1.8,1.4,4.3,3.3
	c1.1-0.9,3.8-3.2,3.8-3.2c10-8.4,21.4-15.1,33.5-19.6c-1-1.7-1.8-3-1.8-3c-3.4-5.6-13-21.4-23.4-38.6
	C185.9,104.1,170.3,114.2,156.8,126.4z"/>
<path class="st1" d="M478.6,131.2c-5.9,0-36.9,0-46.6,0c0-0.2,0-0.4,0-0.4s-0.1-38.7-0.2-47.8c7.3,0,40.7,0,46.8,0
	C478.6,95.1,478.6,125.8,478.6,131.2"/>
<path class="st1" d="M485.9,119c0,5.7,0,10.4,0,12.2c5.6,0,18.3,0,18.3,0c2.7,0,5.4,0.1,8.1,0.4c4.4,0.4,8.8,1.3,13.1,2.4
	c2.7-4.4,13.8-22.9,25.7-42.5c-9.6-3.5-19.4-5.9-29.3-7.3c-5.9-0.8-11.8-1.2-17.7-1.2c0,0-12.7,0-18.3,0
	C485.9,90,485.9,107,485.9,119z"/>
<path class="st1" d="M617.7,137.2c-1.7-1.9-3.4-3.7-5.1-5.6C602.7,139.3,575,161,575,161s-0.2,0.2-0.6,0.5c0.3,0.3,0.7,0.7,1,1
	c10.4,10.1,18.5,21.5,24,33.7c0,0,37.1-12.2,46-15.2C638.8,165.4,629.5,150.6,617.7,137.2z"/>
<path class="st1" d="M607.4,198.2c-3.9,1.2-6.4,2-6.4,2c4.4,11.1,6.8,22.7,6.8,34.5c0,0,0,12.5,0,17.2c17.8,0,34,0,48.2,0.1
	c0-3.8,0-17.2,0-17.2c0-16.8-3-33.3-8.9-49.1C640.1,187.9,618.4,194.8,607.4,198.2z"/>
<path class="st1" d="M101.1,248.1c0,1,0,2.1,0,3.1c15.8,0,33.3,0,52,0.1c-0.1-1.5-0.1-3-0.1-4.5c0-15.4,3.1-30.6,9-44.6
	c-3.7-1.2-6.4-2-6.4-2s-2.5-0.8-6.4-2c-9.2-2.9-26-8.2-35.2-11.1C106.1,206,101.6,226.6,101.1,248.1z"/>
<path class="st1" d="M563.2,96.4c-2.4-1.1-4.8-2.2-7.3-3.1c-11.2,18.5-21.9,36.1-25.5,42.1c14,4.4,27.8,12.1,39.8,22.5
	c0.2-0.2,30.3-23.5,38.6-30C595.2,114.6,579.7,104,563.2,96.4z"/>
<path class="st1" d="M479.4,372c-5.9,0-36.9,0.2-46.6,0.2c0,0.2,0,0.4,0,0.4s-0.1,38.7-0.2,47.8c7.3,0,40.7,0,46.8,0
	C479.4,408.1,479.4,377,479.4,372"/>
<path class="st1" d="M486.7,384.3c0-5.7,0-10.4,0-12.2c5.6,0,18.3,0,18.3,0c2.7,0,5.4-0.1,8.1-0.4c4.4-0.4,8.8-1.3,13.1-2.4
	c2.7,4.4,13.8,22.9,25.7,42.5c-9.6,3.5-19.4,5.9-29.3,7.3c-5.9,0.8-11.8,1.2-17.7,1.2c0,0-12.7,0-18.3,0
	C486.7,413.3,486.7,396.3,486.7,384.3z"/>
<path class="st1" d="M618.4,366.1c-1.7,1.9-3.4,3.7-5.1,5.6c-9.9-7.7-37.6-29.4-37.6-29.4s-0.2-0.2-0.6-0.5c0.3-0.3,0.7-0.7,1-1
	c10.4-10.1,18.5-21.5,24-33.7c0,0,37.1,12.2,46,15.2C639.5,338,630.3,352.8,618.4,366.1z"/>
<path class="st1" d="M649.2,311c-0.6,2-1.3,4-2.1,6c-7-2.2-28.7-9.1-39.6-12.5c-3.9-1.2-6.4-2-6.4-2c4.4-11.1,6.8-22.7,6.8-34.5
	c0,0,0-5.3,0-10.3c3.5,0,37,0,48.2,0c0,4.9,0,10.3,0,10.3C656,282.5,653.7,297,649.2,311z"/>
<path class="st1" d="M425,420.3c0.1,0,0.2,0,0.4,0c0-11.2,0-47.8,0-47.8s0-0.1,0-0.4c-8.2,0-36.7,0-44.5,0c0,23.7,0,41.3,0,48.2
	C388.5,420.3,416.4,420.3,425,420.3z"/>
<path class="st1" d="M564,406.9c-2.4,1.1-4.8,2.2-7.3,3.1c-11.2-18.5-21.9-36.1-25.5-42.1c14-4.4,27.8-12.1,39.8-22.5
	c0.2,0.2,30.3,23.5,38.6,30C595.9,388.7,580.4,399.3,564,406.9z"/>
<path class="st1" d="M111.2,308.2c0.9,2.5,1.8,4.9,2.8,7.3c9.3-2.9,26-8.2,35.1-11.1c3.9-1.2,6.4-2,6.4-2s3.2-1,6.4-2
	c-5.8-13.9-9-28.9-9.1-44.2c-18.4-0.1-35.6-0.1-51.2-0.1C102.1,274.2,105.4,291.8,111.2,308.2z"/>
<path class="st1" d="M278,131.1c0-5.5,0-36,0-48.2c9.6,0,39.4,0,46.8,0c0,9.2-0.2,47.8-0.2,47.8s0,0.1,0,0.4c-10.1,0-43.5,0-47.3,0"
	/>
<path class="st1" d="M424.6,83.4c0-0.1,0-0.3,0-0.4c-0.1,0-0.2,0-0.4,0c-8.8,0-36.6,0-45.6,0c0,6.9,0,24.5,0,48.2
	c23.1,0,45.9,0,45.9,0c0-0.2,0-0.4,0-0.4S424.6,95,424.6,83.4z"/>
<path class="st1" d="M368.2,131.1c-12.3,0-29.9,0-36.2,0c0-0.2,0-0.4,0-0.4s0-36.5,0-47.8c6.7,0,33,0,40.5,0
	c0,10.7-0.1,39.1-0.2,48.2C371,131.1,369.6,131.1,368.2,131.1z"/>
<path class="st1" d="M219.8,90.5c-4.2,1.3-8.3,2.7-12.3,4.3c11.1,18.3,21.1,34.9,23.6,39.1c0,0,0.7,1.1,1.6,2.7
	c11.6-3.8,23.9-5.9,36.3-5.9h1c0,0,0.2,0,0.6,0c0-2,0-6.4,0-11.8c0-0.4,0-0.8,0-1.3c0-11.9,0-27.9,0-34.7c-0.6,0-1,0-1,0
	C252.3,83,235.5,85.6,219.8,90.5z"/>
<path class="st1" d="M143.9,363.7c1.3,1.5,2.6,2.9,4,4.4c12-9.3,33-25.8,33-25.8s0.2-0.2,0.6-0.5c0,0,2.3-1.8,5.4-4.2
	c-9.6-9.6-17.4-20.8-23-32.9c-4.2,1.4-7.4,2.4-7.4,2.4s-28.2,9.3-41.3,13.6c0.3-0.1,0.6-0.2,0.9-0.3
	C123.2,336.3,132.6,350.9,143.9,363.7z"/>
<path class="st1" d="M350.6,372.1c-8.1,0-15.7,0-19.4,0c0,0.2,0,0.4,0,0.4s0,36.6,0,47.8c0.1,0,0.2,0,0.4,0c2,0,5,0,8.6,0
	c0,0,7.5,0,14.9,0c8.7,0,17.3,0,17.3,0c1.3,0,2.4,0,3.2,0c0-6.9,0-24.5,0-48.2C371.4,372.1,360.7,372.1,350.6,372.1z"/>
<path class="st1" d="M197.3,404.1c-17-8.2-32.4-19.1-45.6-32.3c11.5-8.9,33.8-26.3,34-26.4c0,0,2.2-1.7,5.2-4c1.2,1,3.6,3,3.6,3
	c10,8.4,21.3,15,33.3,19.6c-1.2,2-2.3,3.9-2.3,3.9c-3.4,5.6-12.9,21.3-23.3,38.4C200.5,405.6,198.9,404.9,197.3,404.1z"/>
<path class="st1" d="M269.9,384c0,0.1,0,0.2,0,0.3c0,12,0,29,0,36c0,0,0,0.1,0,0.4c-22.3,0-43.6-4.4-63.1-12.4
	c11-18.3,21-34.8,23.6-39c0,0,0.9-1.5,2.2-3.6c12,4,24.6,6,37.4,5.9C269.9,372.9,269.9,377.8,269.9,384z"/>
<path class="st1" d="M297.7,372.1c-8.5,0-16.6-0.4-20.4-0.4c0.1,0.7,0,0.1,0,0.1s0.2,37.3,0.2,48.6c0.1,0,0.2,0,0.4,0
	c2.1,0,5.3,0,9,0c0,0,7.8,0,15.6,0c9.1,0,18.2,0,18.2,0c1.4,0,2.5,0,3.4,0c0-6.9,0-24.5,0-48.2C319.5,372.1,308.2,372.1,297.7,372.1
	z"/>
<image style="overflow:visible;enable-background:new    ;" width="884" height="504" xlink:href="0abc7cdb3f8dc17e8ce59a53ac7c7fdb.jpg"  transform="matrix(0.3368 0 0 0.3568 227.27 163.4077)">
</image>
<path d="M426,480.7c0.1,0,0.2,0,0.4,0c0-12.2,0-51.8,0-51.8s0-0.1,0-0.4c-8.2,0-36.7,0-44.5,0c0,25.7,0,44.7,0,52.2
	C389.5,480.7,417.4,480.7,426,480.7z"/>
</svg>
